<svg
                        xmlns="http://www.w3.org/2000/svg"
                        width="49"
                        height="49"
                        viewBox="0 0 49 49"
                      >
                        <g>
                          <g>
                            <path
                              fill="#fff"
                              d="M31.63 6.807l2.501 2.444-.007.007 4.99 4.902.021-.022 2.444 2.444 5.643-5.702c.698-.662 1.047-1.467 1.047-2.416 0-.95-.33-1.773-.989-2.471l-4.887-4.946C41.72.35 40.891 0 39.91 0c-.982 0-1.803.33-2.462.99zm-17.57 17.57v9.891h9.89l17.629-17.686-2.466-2.422-16.618 16.618H17.55v-5.004L34.124 9.258l-2.494-2.45zm24.435 23.855c.931 0 1.746-.35 2.444-1.047.698-.698 1.047-1.513 1.047-2.444V21.003l-3.49 3.491v20.247H3.585V9.833H23.66l3.49-3.491H3.588c-.931 0-1.746.349-2.444 1.047S.096 8.902.096 9.833V44.74c0 .93.349 1.746 1.047 2.444s1.513 1.047 2.444 1.047z"
                            />
                          </g>
                        </g>
                      </svg>