<svg
                      xmlns="http://www.w3.org/2000/svg"
                      width="36"
                      height="38"
                      viewBox="0 0 36 38"
                    >
                      <g>
                        <g
                          clip-path="url(#clip-46f0ff5d-068a-448b-9a60-5e9dbd11eae9)"
                        >
                          <path
                            fill="#4dad58"
                            d="M8.319 28.303c1.099-4.051 4.85-7.864 10.426-7.463 4.255.307 7.87 3.396 8.86 7.463zM32.352 3.284l.05.064-.005 12.473v12.443c-.398.034-.74.074-1.082.089-.338.015-.678.003-1.028.003-1.01-4.503-3.645-7.614-7.903-9.34 2.741-2.839 2.182-6.661.445-8.66-2.314-2.663-5.864-2.773-8.125-1.378-1.73 1.067-2.748 2.65-3.01 4.723-.263 2.08.466 3.785 1.773 5.25-.804.44-1.614.817-2.353 1.302-1.698 1.112-3.016 2.597-4.035 4.353-.632 1.09-1.12 2.234-1.355 3.481-.014.077-.136.185-.215.192-.614.047-1.23.073-1.87.107V3.29c.064-.006.139-.018.213-.018H32.15c.068 0 .136.007.203.011zM.375 37.434H22.126c4.37 0 8.74-.004 13.111.003.3 0 .4-.085.387-.385-.024-.533-.019-1.068-.019-1.601 0-11.655.002-23.31.003-34.963 0-.488 0-.488-.47-.488H.375zm21.316-23.017c.034-2-1.62-3.77-3.908-3.722-1.943.041-3.522 1.756-3.558 3.64-.044 2.218 1.704 3.772 3.587 3.863 2.26.11 3.923-1.75 3.879-3.78"
                          />
                        </g>
                      </g>
                    </svg>