<?xml version="1.0" encoding="UTF-8"?>
<svg id="SVGDoc" width="35" height="25" xmlns="http://www.w3.org/2000/svg" version="1.1" xmlns:xlink="http://www.w3.org/1999/xlink" xmlns:avocode="https://avocode.com/" viewBox="0 0 35 25"><defs></defs><desc>Generated with Avocode.</desc><g><g><title>visibility_FILL0_wght400_GRAD0_opsz48</title><path d="M17.49387,22.01495c3.20252,0 6.14511,-0.86554 8.82778,-2.59668c2.68266,-1.7312 4.7244,-4.03723 6.1252,-6.91815c-1.40079,-2.8808 -3.44029,-5.18695 -6.1185,-6.91815c-2.67822,-1.73114 -5.61858,-2.59668 -8.82108,-2.59668c-3.20253,0 -6.14512,0.86554 -8.82779,2.59668c-2.68266,1.7312 -4.73761,4.03735 -6.16484,6.91815c1.42723,2.88092 3.47994,5.18695 6.15814,6.91815c2.67823,1.73114 5.61859,2.59668 8.82108,2.59668zM17.50057,24.39368c-3.85881,0 -7.3476,-1.0968 -10.46636,-3.29053c-3.11877,-2.19366 -5.44462,-5.0614 -6.97757,-8.60303c1.53295,-3.54163 3.8588,-6.40936 6.97757,-8.60303c3.11877,-2.19373 6.60755,-3.29065 10.46636,-3.29065c3.85881,0 7.3476,1.09692 10.46636,3.29065c3.11877,2.19366 5.44463,5.0614 6.97758,8.60303c-1.53295,3.54163 -3.85881,6.40936 -6.97758,8.60303c-3.11876,2.19373 -6.60755,3.29053 -10.46636,3.29053zM20.64306,15.65186c0.8652,-0.85888 1.29779,-1.90637 1.29779,-3.14233c0,-1.23603 -0.42949,-2.28669 -1.28848,-3.15186c-0.85898,-0.86523 -1.90647,-1.29779 -3.14249,-1.29779c-1.23598,0 -2.28658,0.4295 -3.1518,1.28845c-0.86519,0.85901 -1.29778,1.9065 -1.29778,3.14252c0,1.23596 0.42949,2.28656 1.28847,3.15173c0.85899,0.86523 1.90648,1.29785 3.14249,1.29785c1.23598,0 2.28658,-0.42956 3.1518,-1.28857zM17.50526,19.23987c-1.87346,0 -3.46587,-0.65417 -4.77726,-1.96246c-1.31141,-1.30835 -1.96712,-2.89917 -1.96712,-4.77252c0,-1.87359 0.65414,-3.46594 1.96244,-4.77728c1.30829,-1.31152 2.89916,-1.96716 4.77258,-1.96716c1.87345,0 3.46587,0.65417 4.77726,1.9624c1.31142,1.30835 1.96712,2.89917 1.96712,4.77258c0,1.87353 -0.65414,3.46588 -1.96244,4.77728c-1.3083,1.3114 -2.89915,1.96716 -4.77257,1.96716z" fill="#ffffff" fill-opacity="1"></path></g></g></svg>