<svg
                      xmlns="http://www.w3.org/2000/svg"
                      class="formats-icon"
                      width="82"
                      height="82"
                      viewBox="0 0 82 82"
                    >
                      <g>
                        <g>
                          <path
                            fill="#4dad58"
                            d="M0 41C0 18.356 18.356 0 41 0s41 18.356 41 41-18.356 41-41 41S0 63.644 0 41z"
                          />
                        </g>
                        <g>
                          <path
                            fill="#fff"
                            d="M25.028 61.378c-1.232 0-2.317-.46-3.254-1.382-.936-.921-1.405-2.02-1.405-3.299v-6.946c0-.645.231-1.2.694-1.664a2.259 2.259 0 0 1 1.658-.696c.656 0 1.205.232 1.646.696.44.464.661 1.018.661 1.663v6.955h31.943V49.75c0-.645.228-1.199.684-1.663a2.24 2.24 0 0 1 1.66-.696c.652 0 1.2.232 1.647.696.446.464.669 1.018.669 1.663v6.955c0 1.276-.471 2.374-1.413 3.293-.942.92-2.024 1.38-3.247 1.38zm16.003-10.723a2.257 2.257 0 0 1-1.658-.679 2.21 2.21 0 0 1-.68-1.62V28.648l-5.722 5.722c-.46.451-1.002.672-1.623.661a2.06 2.06 0 0 1-1.562-.72c-.472-.468-.715-1.02-.73-1.659-.016-.638.227-1.213.729-1.724l9.614-9.615c.213-.2.463-.365.753-.496.29-.13.583-.196.88-.196.298 0 .592.065.88.194.29.128.54.294.749.498l9.72 9.735c.471.462.704 1.005.7 1.631-.005.626-.239 1.17-.701 1.632-.457.467-1.005.689-1.643.665a2.434 2.434 0 0 1-1.663-.727l-5.722-5.601v19.708c0 .628-.224 1.168-.672 1.62a2.232 2.232 0 0 1-1.65.679z"
                          />
                        </g>
                      </g>
                    </svg>