<svg
                      xmlns="http://www.w3.org/2000/svg"
                      width="43"
                      height="42"
                      viewBox="0 0 43 42"
                    >
                      <g>
                        <g>
                          <path
                            fill="#fff"
                            d="M37.47.86c1.224 0 2.306.46 3.247 1.38.942.92 1.413 2.017 1.413 3.293v6.955c0 .645-.223 1.199-.669 1.663a2.194 2.194 0 0 1-1.646.696 2.24 2.24 0 0 1-1.661-.696 2.29 2.29 0 0 1-.683-1.663V5.533H5.528v6.955c0 .645-.221 1.199-.662 1.663-.441.464-.99.696-1.646.696a2.259 2.259 0 0 1-1.658-.696 2.275 2.275 0 0 1-.694-1.664V5.54c0-1.278.469-2.378 1.405-3.3C3.21 1.322 4.295.86 5.528.86zM21.53 11.583c.651 0 1.201.226 1.65.678.448.453.672.993.672 1.621V33.59l5.722-5.601a2.434 2.434 0 0 1 1.663-.727c.637-.024 1.185.198 1.642.665.462.462.696 1.006.7 1.632.006.626-.227 1.17-.698 1.63l-9.721 9.736c-.21.204-.459.37-.748.498-.29.13-.583.194-.88.194-.298 0-.592-.066-.881-.196a2.71 2.71 0 0 1-.752-.496l-9.615-9.615c-.502-.51-.745-1.086-.73-1.724.016-.639.26-1.191.731-1.659.42-.47.94-.71 1.562-.72.621-.011 1.162.21 1.623.661l5.722 5.722V13.882c0-.628.227-1.168.68-1.62a2.257 2.257 0 0 1 1.658-.68z"
                          />
                        </g>
                      </g>
                    </svg>