<svg
                      xmlns="http://www.w3.org/2000/svg"
                      width="43"
                      height="50"
                      viewBox="0 0 43 50"
                    >
                      <g>
                        <g
                          clip-path="url(#clip-4faab520-90d6-4062-9f7e-c0fe266053dc)"
                        >
                          <path
                            fill="#707070"
                            d="M30.83 3.663v8.655h8.657v34.564H3.015V3.663zm2.959 5.73v-3.57l3.54 3.47.019.1zM.089 49.76H42.38c.007-.127.022-.265.022-.402.002-12.89.003-25.782-.01-38.673 0-.219-.114-.492-.269-.648-2.955-2.978-5.925-5.942-8.89-8.91-.11-.111-.205-.236-.307-.355H.089z"
                          />
                        </g>
                        <g
                          clip-path="url(#clip-4faab520-90d6-4062-9f7e-c0fe266053dc)"
                        >
                          <path
                            fill="#707070"
                            d="M11.543 38.3H8.767v2.831h2.776zM8.75 35.33h2.79v-2.828H8.75zm24.993-2.82H14.5v2.819h19.243zm-19.249 8.612h19.242v-2.82H14.494zm22.15-11.436c.006 3.366.013 6.732.015 10.098.001 1.388-.01 2.775-.014 4.163l-.083.075c-.112.004-.223.012-.335.012H6.265c-.11 0-.222-.008-.334-.012l-.082-.076c-.005-3.094-.013-6.19-.015-9.284 0-1.659.01-3.317.015-4.976l.083-.075c.111-.004.223-.012.334-.012h29.962c.111 0 .223.008.334.012l.083.075"
                          />
                        </g>
                        <g
                          clip-path="url(#clip-4faab520-90d6-4062-9f7e-c0fe266053dc)"
                        >
                          <path
                            fill="#707070"
                            d="M5.87 26.722v-2.853h30.766v2.853z"
                          />
                        </g>
                        <g
                          clip-path="url(#clip-4faab520-90d6-4062-9f7e-c0fe266053dc)"
                        >
                          <path
                            fill="#707070"
                            d="M5.862 15.163v-2.838h9.63v2.838z"
                          />
                        </g>
                        <g
                          clip-path="url(#clip-4faab520-90d6-4062-9f7e-c0fe266053dc)"
                        >
                          <path
                            fill="#707070"
                            d="M5.932 6.539h9.472l.083.075V9.39H5.849V6.613l.083-.074"
                          />
                        </g>
                      </g>
                    </svg>