<svg
                xmlns="http://www.w3.org/2000/svg"
                width="50"
                height="76"
                viewBox="0 0 50 76"
              >
                <g>
                  <g
                    clip-path="url(#clip-5b9c4253-d024-4789-845d-dd514a53c6e6)"
                  >
                    <path
                      fill="#e3763e"
                      d="M35.521 54.156c.041.62.221 1.154.573 1.632 1.042 1.414 2.601 1.549 3.837.32.907-.902 1.827-1.792 2.705-2.722.928-.981.951-2.353.107-3.302-.87-.978-2.288-1.092-3.361-.25-.98.77-1.938 1.57-2.92 2.338-.661.519-.883 1.223-.941 1.984zm-4.45-6.499c.01 1.245.627 2.13 1.7 2.68 1.025.525 1.967.35 2.807-.465.412-.4.887-.733 1.333-1.098.765-.627 1.587-1.194 2.065-2.107.709-1.35.437-2.784-.72-3.7-1.171-.929-2.732-.864-3.84.196-.854.82-1.676 1.673-2.507 2.517-.537.545-.85 1.191-.837 1.977zm11.122 17.296c-2.863-1.402-3.257-1.91-3.91-5.21-.08-.404-.287-.4-.58-.455-2.915-.542-4.603-2.598-4.497-5.535.02-.577-.112-.82-.686-1-3.953-1.24-5.106-5.878-2.21-8.841 1.523-1.558 3.076-3.087 4.616-4.629 2.423-2.426 4.87-4.828 7.26-7.286 1.612-1.658.92-4.306-1.259-4.923-1.31-.372-2.345.125-3.26 1.095-4.572 4.85-9.202 9.645-14.308 13.945-1.882 1.586-3.747 3.24-6.18 3.958-.637.189-.865.37-.704 1.074.424 1.846-.092 3.55-.975 5.163-.526.962-1.135 1.24-1.825.871-.71-.379-.798-1.01-.288-1.978.179-.34.378-.675.502-1.036.58-1.68.527-3.339-.679-4.705-1.115-1.264-1.958-2.686-2.844-4.093-.876-1.393-1.882-2.674-3.208-3.668-.792-.593-1.659-.81-2.609-.356-1.013.484-1.6 1.283-1.666 2.397-.056.937.362 1.742.9 2.48C6.449 45.875 7.91 49.853 7.7 54.49c-.14 3.108.514 6.182 1.844 9.05.442.955.838 1.947 1.665 2.668 3.095 2.695 6.597 2.6 9.54-.253.694-.672 1.258-1.45 1.88-2.182.423-.499.987-.614 1.544-.207.57.417.738.999.322 1.595-1.765 2.536-3.92 4.57-7.062 5.257-.518.113-1.056.13-1.676.201 6.75 4.766 19.195 3.926 26.437-5.666zm-1.525-5.451c.035 1.483.58 2.311 1.557 2.824.772.406 1.71.57 2.369-.012.924-.816 1.85-1.702 2.447-2.808.888-1.644-.078-3.728-1.89-4.192-.55-.14-1.034-.105-1.471.387-.68.764-1.443 1.455-2.168 2.18-.543.543-.873 1.178-.844 1.62m-3.155-19.499c.976.353 1.75.658 2.38 1.224 1.536 1.378 2.105 3.094 1.741 5.11-.076.422-.05.558.428.694 2.475.705 3.803 2.61 3.611 5.182-.044.593.095.794.65 1.01 3.312 1.293 4.602 5.384 2.357 8.09-2.656 3.198-5.314 6.441-8.478 9.159-6.827 5.864-16.87 7.06-24.446 3.001-5.473-2.932-8.57-7.633-9.86-13.61-.4-1.85-.705-3.736-.574-5.624.264-3.777-.984-7.046-3.09-10.074-.676-.974-1.336-1.949-1.6-3.143-.471-2.133.335-4.174 2.191-5.429 1.766-1.193 3.853-1.147 5.654.139 1.785 1.273 3.054 2.995 4.19 4.832.454.736.888 1.487 1.38 2.197.881 1.273 1.61 1.473 3.043.858 1.157-.497 2.165-1.24 3.145-2.018 4.935-3.913 9.306-8.426 13.686-12.928.738-.758 1.45-1.54 2.188-2.296 2.235-2.293 5.56-2.416 7.718-.294 2.203 2.167 2.188 5.442-.07 7.724-2.028 2.047-4.09 4.06-6.244 6.196"
                    />
                  </g>
                  <g
                    clip-path="url(#clip-5b9c4253-d024-4789-845d-dd514a53c6e6)"
                  >
                    <path
                      fill="#e3763e"
                      d="M35.452 14.864c0 2.307-.002 4.614.002 6.921.001.644-.103 1.238-.783 1.504-.844.33-1.602-.268-1.624-1.316-.03-1.474-.008-2.948-.008-4.422 0-3.14-.001-6.28.002-9.42 0-1.063.423-1.623 1.208-1.623.782 0 1.196.544 1.2 1.627.008 2.243.002 4.486.003 6.729"
                    />
                  </g>
                  <g
                    clip-path="url(#clip-5b9c4253-d024-4789-845d-dd514a53c6e6)"
                  >
                    <path
                      fill="#e3763e"
                      d="M2.624 16.118c.447.003.78.219 1.088.528 3.327 3.334 6.663 6.659 9.988 9.995.606.608.67 1.4.201 1.876-.526.533-1.18.501-1.855-.17-3.361-3.345-6.71-6.704-10.062-10.058-.41-.41-.664-.853-.406-1.459.202-.473.568-.667 1.046-.712"
                    />
                  </g>
                  <g
                    clip-path="url(#clip-5b9c4253-d024-4789-845d-dd514a53c6e6)"
                  >
                    <path
                      fill="#e3763e"
                      d="M20.715 15.573c.045.825-.367 1.267-1.04 1.341-.686.076-1.121-.335-1.292-1.02-.763-3.068-1.534-6.134-2.302-9.201-.387-1.55-.782-3.096-1.152-4.649-.135-.565-.046-1.088.501-1.43.47-.294.912-.195 1.344.096.259.175.367.445.437.722 1.16 4.613 2.313 9.228 3.466 13.843.03.123.032.254.038.298"
                    />
                  </g>
                  <g
                    clip-path="url(#clip-5b9c4253-d024-4789-845d-dd514a53c6e6)"
                  >
                    <path
                      fill="#e3763e"
                      d="M25.686 29.205c-1.557-1.23-2.996-1.297-4.491.1-.12-1.037.483-1.884.19-2.582-.286-.681-1.025-1.172-1.62-1.804.82-.388 1.82-.079 2.398-.585.552-.485.78-1.34 1.305-2.323.458 2.055 1.625 2.943 3.645 2.818-1.678 1.125-2.187 2.495-1.427 4.376"
                    />
                  </g>
                  <g
                    clip-path="url(#clip-5b9c4253-d024-4789-845d-dd514a53c6e6)"
                  >
                    <path
                      fill="#e3763e"
                      d="M28.694 6.913c-.52 1.334-.253 2.338.933 3.192-1.392-.033-2.358.44-2.763 1.873-.476-1.24-1.148-2.112-2.667-2.016 1.111-.835 1.636-1.813 1.13-3.218 1.104.906 2.177.952 3.367.17"
                    />
                  </g>
                  <g
                    clip-path="url(#clip-5b9c4253-d024-4789-845d-dd514a53c6e6)"
                  >
                    <path
                      fill="#e3763e"
                      d="M8.856 8.194c1.493 1.187 1.493 1.187 3.454.99-.968 1.139-.885 2.229.008 3.36-1.367-.459-2.35-.106-3.113 1.12-.13-1.34-.634-2.307-2.104-2.598 1.273-.527 1.985-1.343 1.755-2.872"
                    />
                  </g>
                </g>
              </svg>