<svg
                  xmlns="http://www.w3.org/2000/svg"
                  width="36"
                  height="40"
                  viewBox="0 0 36 40"
                >
                  <g>
                    <g
                      clip-path="url(#clip-e3a0c538-8d16-4ab3-aa8c-3dce7882620d)"
                    >
                      <path
                        fill="#e3763e"
                        d="M3.906 12.604c.103.03.206.05.306.069.088.017.17.033.25.055.33.088.622.259.893.523a.968.968 0 0 0 .68.277c.232 0 .457-.081.649-.234.286-.227.441-.832.216-1.213-.114-.192-.298-.338-.433-.445-.281-.223-.63-.5-1.06-.643l-.533-.177-.027-.01c.01-.04.02-.08.034-.114l.026-.066c.128-.32.261-.65.409-.963.098-.208.213-.416.325-.618l.142-.258.12-.22c.077-.136.155-.277.227-.422.217.115.442.216.66.314.087.04.175.079.262.12l.01.004.01.003.034.012.027.01.004.003.027.007.042.014.007-.002.042.011.321.082h.003v.002l.052.035.062.002.567.021.398.015h.024l.023-.004.01-.002.122-.023.057-.005h.012l.012-.003.157-.032.153-.03.003-.001.054-.009.01-.001.008-.003.034-.008.074-.019h.01l.037-.012.039-.013.025-.009h.01l.037-.013.063-.023.042-.015.005-.002.028-.01.01-.003.02-.005.012-.003.012-.005.026-.01.032-.013c.401-.14.789-.373 1.184-.714.308-.265.575-.593.796-.975.345-.598.52-1.13.549-1.672.012-.229.008-.459.005-.681-.002-.1-.003-.198-.003-.298V4.16l-.006-.024-.022-.098.001-.003-.016-.069-.025-.106v-.001l-.003-.014-.018-.068-.01-.038.005-.014-.022-.058-.003-.01-.002-.002-.007-.016-.004-.01-.004-.018-.009-.035-.002-.007-.002-.008-.018-.054-.017-.051-.004-.014-.006-.012-.01-.02-.002-.006-.005-.02-.014-.049-.03-.033-.104-.266-.002-.006-.007-.023-.004-.013-.006-.012-.019-.04V2.94l.013-.004c.034-.01.073-.023.113-.04l.412-.173c.283-.12.576-.246.866-.36.14-.055.284-.097.437-.141l.202-.06.202-.043.357-.074c.166.704.48 1.308.932 1.797a4.103 4.103 0 0 0 3.02 1.341c.4 0 .804-.064 1.2-.19.525-.166.947-.396 1.29-.7l.097-.086c.21-.185.427-.376.602-.606a3.837 3.837 0 0 0 .65-1.262 13.785 13.785 0 0 1 2.667 1.252c-.243.337-.503.748-.612 1.249-.029.133-.056.268-.081.399l-.058.285c-.072.348-.065.72.024 1.17.024.126.05.252.076.378l.034.172.006.028.013.026.003.005.1.194.01.026.013.032v.002l.005.01.042.097.012-.004-.003.02v.002l-.001.01.035.062.009.014.005.01.01.021.019.047.011.027.003.008.004.008c.464.89 1.185 1.529 2.145 1.896.47.18.938.272 1.39.272.305 0 .608-.042.903-.123l.204-.054c.185-.047.376-.096.562-.171.145-.06.272-.142.396-.222l.062-.04c.471.973.829 2.036 1.09 3.245a.989.989 0 0 0 .956.757.897.897 0 0 0 .331-.062c.445-.176.711-.689.606-1.168-.214-.978-.43-1.712-.701-2.38a26.454 26.454 0 0 0-.724-1.62c-.262-.54-.712-.838-1.339-.887a1.362 1.362 0 0 0-.106-.004c-.426 0-.758.205-1.051.386-.061.038-.122.075-.183.11-.218.128-.48.259-.764.272l-.135.003c-.807 0-1.411-.332-1.848-1.015a2.054 2.054 0 0 1-.317-1.005c-.036-.566.172-1.09.637-1.602.259-.285.383-.653.36-1.062a1.495 1.495 0 0 0-.736-1.239c-.424-.253-.86-.498-1.283-.735l-.141-.079c-.197-.11-.402-.213-.594-.306l-.031-.016a4.714 4.714 0 0 0-.478-.212c-.172-.061-.347-.119-.516-.174-.161-.053-.328-.108-.49-.166a2.771 2.771 0 0 0-.89-.174c-.708 0-1.325.52-1.467 1.237-.104.53-.401.974-.882 1.316-.198.141-.437.24-.775.322a1.819 1.819 0 0 1-.424.051c-.406 0-.807-.146-1.224-.447a1.858 1.858 0 0 1-.79-1.34l-.003-.015a1.406 1.406 0 0 0-.097-.427C16.037.332 15.558.002 14.881.002c-.199 0-.417.027-.667.084l-.005.001-.005.001-.071.02-.006-.002-.061.017-.05.014-.026.007h-.003l-.058.015-.323.09-.008-.003-.06.02L13.5.28l-.027.008-.024.006-.012.002-.01.004-.038.012-.033.012c-.73.23-1.508.488-2.24.861l-.125.063c-.227.113-.462.23-.66.404-.523.463-.646 1.24-.298 1.891.076.143.149.291.22.435.03.064.062.128.094.191l.012.035.012.033.028.15.03.16-.002.448-.01.053-.012.072-.004.028-.028.109-.032.123-.007.026-.021.053-.02.052v.004l-.012.026c-.284.61-.718 1.008-1.327 1.221l-.061.02-.045.009-.008.001-.01.003-.065.019-.018.002-.024.003-.696.023c-.4-.086-.74-.239-1.038-.467a1.655 1.655 0 0 0-.4-.207 3.286 3.286 0 0 1-.156-.066l-.013-.006-.014-.005-.054-.016-.019-.006-.008-.002-.009-.002-.044-.01a.616.616 0 0 0-.257-.062c-.08 0-.156.02-.227.058l-.05.005-.02.002-.018.005-.105.03H5.59l-.008.004-.046.014-.054.018-.005.001-.01.004-.069.026-.031.012-.026.02a3.783 3.783 0 0 1-.166.124 1.867 1.867 0 0 0-.403.355 6.845 6.845 0 0 0-.5.776l-.087.15c-.446.757-.846 1.628-1.222 2.662-.117.323-.227.671-.17 1.064.088.595.545 1.122 1.112 1.282"
                      />
                    </g>
                    <g
                      clip-path="url(#clip-e3a0c538-8d16-4ab3-aa8c-3dce7882620d)"
                    >
                      <path
                        fill="#e3763e"
                        d="M12.852 13.378l-.002.005a.884.884 0 0 0-.039.701c.151.416.472.658.905.682a.83.83 0 0 0 .048 0c.303 0 .573-.154.802-.46.145-.195.24-.416.332-.63l.02-.048c.136-.312.375-.554.628-.795.408-.387.936-.656 1.569-.801.188-.043.39-.05.603-.056.097-.002.196-.005.296-.012h.182l.656.122.035.006.032.026.074.06.089-.014c.073.038.147.075.22.111.224.113.436.22.63.353a3.19 3.19 0 0 1 1.187 1.516c.119.31.334.523.623.614.104.034.21.05.314.05.358 0 .672-.199.863-.547l.01-.013.03-.037.004-.015a.812.812 0 0 0 0-.733l-.006-.021-.029-.034-.002-.003a12.42 12.42 0 0 1-.035-.086 3.883 3.883 0 0 0-.118-.269c-.383-.769-.88-1.39-1.477-1.846-.297-.228-.627-.41-.946-.586a33.767 33.767 0 0 1-.174-.097c-.42-.235-.878-.336-1.321-.435l-.037-.008-.01-.002-.01-.001-.032-.004-.169-.028-.006-.001h-.007l-.134-.014-.179-.018-.015-.001h-.014l-.278.011-.615.024c-.617.021-1.183.22-1.655.411-.483.196-.941.483-1.361.852-.519.456-.901.928-1.169 1.443l-.006.01-.012.018-.01.013-.006.014-.01.02-.002.006-.015.026-.002.005-.004.007-.034.068-.035.068-.035.068-.006.013-.005.012-.005.016-.01.018-.014.02-.004.014-.012.029-.016.035-.022.052-.006.01-.034.068.001.004-.005.01z"
                      />
                    </g>
                    <g
                      clip-path="url(#clip-e3a0c538-8d16-4ab3-aa8c-3dce7882620d)"
                    >
                      <path
                        fill="#e3763e"
                        d="M12.66 37.217l-.003.008a5.58 5.58 0 0 1 1.536.244c.263.076.527.163.782.247.285.094.58.191.874.273.27.075.553.13.827.181.123.023.245.046.367.072h.069a2.096 2.096 0 0 1-.01-.172V19.561l-.002-.14c-.073-.033-.146-.068-.218-.103-.198-.094-.402-.19-.607-.268-.197-.075-.395-.151-.592-.228-.652-.251-1.327-.512-2.004-.716-.996-.3-2.032-.537-3.033-.766l-.015-.003a16.271 16.271 0 0 0-1.296-.223c-.122-.018-.245-.035-.367-.054l-.33-.05c-.458-.071-.93-.144-1.397-.186a50.74 50.74 0 0 0-1.697-.112c-.242-.013-.484-.026-.726-.041l-.463-.004-2.03-.016a.977.977 0 0 1-.11-.009l-.001.038a449418.913 449418.913 0 0 0 0 20.477h3.008l5.7.002h.681c.246 0 .493 0 .74.002.053 0 .103.012.147.022l.052.012zm10.63-.004l.117-.019.063-.012a.835.835 0 0 1 .168-.021c2.788-.002 5.576-.002 8.365-.002h1.586l.14-.001c.002-.029.003-.057.003-.086a319601.092 319601.092 0 0 0 0-20.396l-.155-.01a9.98 9.98 0 0 0-.825-.024c-.366 0-.737.004-1.097.008l-.184.003c-.074 0-.147.007-.225.014l-.094.008-.002.001h-.015l-.745.055.087-.032-.413.017c-.235.012-.545.028-.856.056a44.701 44.701 0 0 0-2.287.265c-.247.039-.497.088-.74.137l-.297.059c-.172.033-.348.063-.517.093-.377.065-.768.133-1.14.234-.952.26-2.059.567-3.137.936-.542.185-1.079.42-1.598.648-.211.093-.43.188-.647.28l-.001.138V38.24h.102a.629.629 0 0 1 .045 0h.077c.01 0 .018-.002.025-.004l.464-.122c.41-.106.833-.217 1.24-.348l.052-.017c.701-.225 1.426-.459 2.188-.518l.253-.018zm12.177.882c.002-.051.005-.104.005-.158V16.053c0-.047.002-.094.003-.14l.001-.018.022-.019.1-.085-.104-.08-.054-.04-.016-.013-.006-.005a6.26 6.26 0 0 1-.023-.067c-.032-.097-.065-.198-.119-.29-.031-.055-.147-.234-.301-.255a13.578 13.578 0 0 0-.827-.08l-.298-.022-.339-.016-.258-.012h-1.288l-.212.008-.49.02c-.23.014-.456.03-.683.045-.508.034-1.033.07-1.549.084-.526.014-1.052.084-1.56.152-.207.028-.421.057-.632.08-.496.058-.993.163-1.473.265-.232.048-.471.099-.707.143-.764.144-1.504.323-2.2.532l-.488.144c-.541.16-1.101.324-1.64.521-.481.176-.956.385-1.416.587-.2.088-.408.18-.612.267l-.123.058-.04.02.022.047.003.006-.03-.051-.011.005-.025.014h-.252l-.029-.015-.006-.004-.157-.087v.017l-.02-.008-.285-.122-.669-.284c-.096-.04-.192-.084-.288-.128a7.122 7.122 0 0 0-.628-.26c-.482-.165-.978-.316-1.457-.462l-.26-.079c-.126-.038-.252-.079-.378-.119a12.45 12.45 0 0 0-1.1-.312 76.38 76.38 0 0 0-3.02-.597c-.484-.085-.98-.142-1.46-.198-.14-.016-.28-.032-.42-.05-.426-.05-.867-.104-1.314-.134a42.696 42.696 0 0 0-1.194-.057l-.513-.02-.438-.019-.226-.01-1.287-.002h-.005l-.573.028-.055.003-.242.012c-.181.009-.363.018-.545.025a.813.813 0 0 0-.755.558c-.018.053-.018.105-.018.15v.044l-.01.061c-.01.053-.02.107-.02.166L.474 33.438v4.4c0 .05-.002.1-.004.15v.02c-.05.042-.074.09-.069.142.005.054.038.099.1.131.121.37.364.578.721.621l.063.01c.054.01.109.02.167.02a14998.186 14998.186 0 0 0 10.85 0c.047 0 .092-.003.136-.006l.05-.002.087.01c.07.01.135.017.2.03l.356.072c.339.067.689.136 1.027.222.188.047.378.113.56.178.133.046.27.094.408.136.844.253 1.562.425 2.324.436l.975.006H18.51c.145-.02.293-.036.436-.052.327-.035.664-.072.99-.148a17.213 17.213 0 0 0 1.895-.555c.463-.167.979-.273 1.624-.335l.02.002c.025.003.053.006.083.006h10.987c.051 0 .098-.013.139-.024a.96.96 0 0 1 .04-.01c.335-.026.52-.252.642-.462.068-.017.114-.051.136-.102.034-.077-.004-.154-.036-.203l.002-.036"
                      />
                    </g>
                    <g
                      clip-path="url(#clip-e3a0c538-8d16-4ab3-aa8c-3dce7882620d)"
                    >
                      <path
                        fill="#e3763e"
                        d="M3.982 21.584a.91.91 0 0 0 .09-.005c.009 0 .826-.08 2.105-.08 2.338 0 5.769.257 8.839 1.485a.893.893 0 0 0 1.166-.5.892.892 0 0 0-.008-.686.891.891 0 0 0-.492-.48c-3.348-1.34-6.99-1.62-9.455-1.62v.052-.052c-1.355 0-2.24.086-2.336.096a.898.898 0 0 0 .09 1.79"
                      />
                    </g>
                    <g
                      clip-path="url(#clip-e3a0c538-8d16-4ab3-aa8c-3dce7882620d)"
                    >
                      <path
                        fill="#e3763e"
                        d="M3.981 25.004c.03 0 .061-.001.092-.004.008-.001.825-.081 2.104-.081 2.338 0 5.769.258 8.839 1.486a.893.893 0 0 0 1.166-.5.891.891 0 0 0-.008-.687.892.892 0 0 0-.492-.48c-3.348-1.34-6.99-1.62-9.455-1.62v.053-.053c-1.354 0-2.24.086-2.336.096a.898.898 0 0 0 .09 1.79"
                      />
                    </g>
                    <g
                      clip-path="url(#clip-e3a0c538-8d16-4ab3-aa8c-3dce7882620d)"
                    >
                      <path
                        fill="#e3763e"
                        d="M15.349 29.89c.369 0 .696-.222.833-.565a.891.891 0 0 0-.008-.687.891.891 0 0 0-.492-.48c-3.348-1.339-6.99-1.62-9.455-1.62v.053-.053c-1.354 0-2.24.087-2.336.096a.898.898 0 0 0 .182 1.786c.008-.001.833-.08 2.104-.08 2.338 0 5.77.257 8.839 1.485a.891.891 0 0 0 .333.064"
                      />
                    </g>
                    <g
                      clip-path="url(#clip-e3a0c538-8d16-4ab3-aa8c-3dce7882620d)"
                    >
                      <path
                        fill="#e3763e"
                        d="M20.605 29.88a.892.892 0 0 0 .333-.064c3.07-1.228 6.5-1.486 8.838-1.486 1.281 0 2.096.08 2.104.08a.894.894 0 0 0 .984-.801.898.898 0 0 0-.801-.983c-.097-.01-.982-.097-2.336-.097-2.466 0-6.107.281-9.456 1.62a.891.891 0 0 0-.491.48.891.891 0 0 0-.009.687.893.893 0 0 0 .834.564"
                      />
                    </g>
                    <g
                      clip-path="url(#clip-e3a0c538-8d16-4ab3-aa8c-3dce7882620d)"
                    >
                      <path
                        fill="#e3763e"
                        d="M20.605 33.3a.892.892 0 0 0 .333-.064c3.07-1.228 6.5-1.486 8.838-1.486 1.282 0 2.096.08 2.104.081a.894.894 0 0 0 .984-.801.898.898 0 0 0-.801-.984c-.097-.01-.982-.097-2.336-.097-2.466 0-6.107.281-9.456 1.62a.891.891 0 0 0-.491.48.891.891 0 0 0-.009.687.893.893 0 0 0 .834.564"
                      />
                    </g>
                    <g
                      clip-path="url(#clip-e3a0c538-8d16-4ab3-aa8c-3dce7882620d)"
                    >
                      <path
                        fill="#e3763e"
                        d="M31.88 35.251a.894.894 0 0 0 .984-.801.898.898 0 0 0-.801-.984c-.097-.01-.982-.097-2.336-.097-2.465 0-6.107.281-9.456 1.62a.891.891 0 0 0-.491.48.892.892 0 0 0-.009.687.893.893 0 0 0 1.167.5c3.07-1.228 6.5-1.486 8.838-1.486 1.282 0 2.096.08 2.104.081"
                      />
                    </g>
                    <g
                      clip-path="url(#clip-e3a0c538-8d16-4ab3-aa8c-3dce7882620d)"
                    >
                      <path
                        fill="#e3763e"
                        d="M9.591 32.383v1.974a35.888 35.888 0 0 0-2.625-.102c-.742 0-1.443.028-2.087.081V32.13c.51-.028 1.017-.042 1.509-.042 1.3 0 2.378.1 3.203.296m.781-1.65c-1.012-.292-2.363-.44-4.014-.44-.815 0-1.521.038-1.97.069-.73.05-1.303.664-1.303 1.397v3.011a1.4 1.4 0 0 0 1.551 1.392c.688-.073 1.469-.11 2.32-.11 1.253 0 2.36.08 2.908.128a1.408 1.408 0 0 0 1.067-.362c.29-.265.455-.642.455-1.034V32.08c0-.622-.417-1.175-1.014-1.347"
                      />
                    </g>
                    <g
                      clip-path="url(#clip-e3a0c538-8d16-4ab3-aa8c-3dce7882620d)"
                    >
                      <path
                        fill="#e3763e"
                        d="M29.103 20.213c.491 0 .998.014 1.508.043v2.207a25.268 25.268 0 0 0-2.087-.081c-1.035 0-1.98.053-2.625.101V20.51c.826-.196 1.903-.296 3.204-.296m-3.598 4.098a1.4 1.4 0 0 0 .121-.005 34.643 34.643 0 0 1 2.909-.128c.85 0 1.631.037 2.32.11a1.403 1.403 0 0 0 1.552-1.392v-3.01c-.001-.733-.574-1.347-1.305-1.398a29.135 29.135 0 0 0-1.97-.068c-1.65 0-3.002.148-4.014.44a1.408 1.408 0 0 0-1.013 1.346v2.705a1.397 1.397 0 0 0 1.4 1.4"
                      />
                    </g>
                  </g>
                </svg>