<svg
                      xmlns="http://www.w3.org/2000/svg"
                      width="23"
                      height="26"
                      viewBox="0 0 23 26"
                    >
                      <g>
                        <g>
                          <path
                            fill="#e3763e"
                            d="M17.45 19.996c.244-.244.366-.546.366-.907 0-.36-.122-.663-.365-.907a1.231 1.231 0 0 0-.907-.366c-.36 0-.663.122-.907.366a1.231 1.231 0 0 0-.366.907c0 .36.122.663.366.907s.546.366.907.366c.36 0 .663-.122.907-.366zm-10.18 0c.244-.244.366-.546.366-.907 0-.36-.122-.663-.366-.907a1.231 1.231 0 0 0-.907-.366c-.36 0-.663.122-.907.366a1.231 1.231 0 0 0-.366.907c0 .36.122.663.366.907s.546.366.907.366c.36 0 .663-.122.907-.366zm5.09 0c.244-.244.366-.546.366-.907 0-.36-.122-.663-.366-.907a1.231 1.231 0 0 0-.907-.366c-.36 0-.662.122-.906.366a1.231 1.231 0 0 0-.366.907c0 .36.122.663.366.907s.546.366.906.366c.361 0 .663-.122.907-.366zm5.09-5.09c.244-.245.366-.547.366-.907 0-.361-.122-.663-.365-.907a1.231 1.231 0 0 0-.907-.366c-.36 0-.663.122-.907.366a1.231 1.231 0 0 0-.366.907c0 .36.122.662.366.906s.546.366.907.366c.36 0 .663-.122.907-.366zm-10.18 0c.244-.245.366-.547.366-.907 0-.361-.122-.663-.366-.907a1.231 1.231 0 0 0-.907-.366c-.36 0-.663.122-.907.366a1.231 1.231 0 0 0-.366.907c0 .36.122.662.366.906s.546.366.907.366c.36 0 .663-.122.907-.366zm5.09 0c.244-.245.366-.547.366-.907 0-.361-.122-.663-.366-.907a1.231 1.231 0 0 0-.907-.366c-.36 0-.662.122-.906.366a1.231 1.231 0 0 0-.366.907c0 .36.122.662.366.906s.546.366.906.366c.361 0 .663-.122.907-.366zM1.91 3.817h19.089v4.136H1.908zm0 6.045h19.089v13.68H1.908zm19.089 15.589c.509 0 .954-.19 1.336-.573.382-.381.573-.827.573-1.336V3.818c0-.51-.191-.955-.573-1.336-.382-.382-.827-.573-1.336-.573H18.93v-.89a.97.97 0 0 0-.302-.726A1.033 1.033 0 0 0 17.88 0a.985.985 0 0 0-.725.293.985.985 0 0 0-.293.725v.89H6.045v-.89a.97.97 0 0 0-.302-.725A1.033 1.033 0 0 0 4.995 0a.985.985 0 0 0-.725.293.985.985 0 0 0-.293.725v.89H1.909c-.51 0-.955.192-1.336.574C.19 2.863 0 3.309 0 3.818v19.725c0 .51.19.955.573 1.336.381.382.827.573 1.336.573z"
                          />
                        </g>
                      </g>
                    </svg>