 <svg
                  xmlns="http://www.w3.org/2000/svg"
                  width="38"
                  height="40"
                  viewBox="0 0 38 40"
                >
                  <g>
                    <g
                      clip-path="url(#clip-7fb75443-c315-44cd-998f-f108a74ae1a1)"
                    >
                      <path
                        fill="#e3763e"
                        d="M19 35.437c-1.246 0-3.618-.393-3.99-.456l-1.848-.52-.304.113c-.022.007-2.194.806-4.55 1.545-1.95.61-3.215.927-4.027 1.088 2.483-2.803 3.488-5.039 3.533-5.141l.288-.65-.52-.486c-3.417-3.198-5.3-7.534-5.3-12.21 0-9.217 7.5-16.716 16.718-16.716S35.717 9.503 35.717 18.72c0 9.217-7.5 16.716-16.717 16.716M19 .002C8.678.002.28 8.399.28 18.721c0 2.636.538 5.186 1.599 7.577a18.63 18.63 0 0 0 3.79 5.564c-.503.91-1.639 2.743-3.602 4.793-.912.954-.778 1.652-.504 2.07.259.394.653.64 1.494.64.986 0 2.586-.337 5.297-1.166 2.082-.636 4.13-1.363 4.888-1.636l1.326.373.05.01c.116.02 2.861.493 4.38.493 10.322 0 18.72-8.397 18.72-18.718C37.718 8.399 29.32.002 18.998.002"
                      />
                    </g>
                    <g
                      clip-path="url(#clip-7fb75443-c315-44cd-998f-f108a74ae1a1)"
                    >
                      <path
                        fill="#e3763e"
                        d="M19.73 30.142a1.89 1.89 0 0 1-1.416.59 1.891 1.891 0 0 1-1.416-.59 1.891 1.891 0 0 1-.59-1.416c0-.565.188-1.015.59-1.417.402-.402.852-.589 1.416-.589a1.89 1.89 0 0 1 1.417.59c.402.401.59.851.59 1.416 0 .564-.188 1.014-.59 1.416m-1.417-5.424c-1.099 0-2.052.396-2.831 1.176a3.876 3.876 0 0 0-1.176 2.832c0 1.099.396 2.052 1.176 2.832a3.877 3.877 0 0 0 2.831 1.175 3.877 3.877 0 0 0 2.832-1.175 3.877 3.877 0 0 0 1.176-2.832c0-1.1-.396-2.052-1.176-2.832a3.876 3.876 0 0 0-2.832-1.176"
                      />
                    </g>
                    <g
                      clip-path="url(#clip-7fb75443-c315-44cd-998f-f108a74ae1a1)"
                    >
                      <path
                        fill="#e3763e"
                        d="M24.38 15.548c-.514.814-1.508 1.805-2.955 2.947-1.085.836-1.643 1.842-1.66 2.991h-2.9v-.437c0-.947.274-1.674.84-2.223l.01-.01a38.76 38.76 0 0 1 1.575-1.463 59.501 59.501 0 0 0 1.466-1.334 5.91 5.91 0 0 0 .929-1.18c.336-.55.506-1.1.506-1.633 0-.965-.334-1.792-.966-2.393-.626-.594-1.43-.895-2.388-.895-1.246 0-2.257.37-3.004 1.103a4.008 4.008 0 0 0-1.052 1.75l-3.064-.2c.31-1.506.974-2.674 2.014-3.55 1.285-1.085 2.923-1.612 5.008-1.612 1.873 0 3.384.484 4.617 1.478 1.168.941 1.735 2.237 1.735 3.96 0 1.058-.232 1.941-.711 2.7m.232-8.218c-1.581-1.275-3.557-1.921-5.873-1.921-2.54 0-4.66.7-6.299 2.082-1.66 1.4-2.625 3.39-2.867 5.914l-.099 1.028 7.05.458.076-.986c.046-.606.254-1.081.634-1.454.364-.357.889-.53 1.603-.53.579 0 .854.197 1.01.345.147.14.342.389.342.94 0 .159-.073.362-.212.59-.194.317-.399.58-.607.78-.267.256-.755.7-1.41 1.282a40.772 40.772 0 0 0-1.655 1.538c-.957.932-1.442 2.161-1.442 3.654v2.439h6.903v-1.949c0-.335.092-.852.884-1.461l.01-.008c1.651-1.303 2.768-2.432 3.413-3.454.677-1.074 1.02-2.342 1.02-3.77 0-2.334-.835-4.19-2.48-5.517"
                      />
                    </g>
                  </g>
                </svg>