<svg
                      xmlns="http://www.w3.org/2000/svg"
                      width="70"
                      height="70"
                      viewBox="0 0 70 70"
                    >
                      <g>
                        <g>
                          <path
                            fill="#e3763e"
                            d="M0 35C0 15.67 15.67 0 35 0s35 15.67 35 35-15.67 35-35 35S0 54.33 0 35z"
                          />
                        </g>
                        <g>
                          <path
                            fill="#fff"
                            d="M21.24 52.089c-1.046 0-1.967-.39-2.761-1.173-.795-.782-1.193-1.715-1.193-2.8v-5.895c0-.547.196-1.018.589-1.412.392-.393.861-.59 1.407-.59a1.85 1.85 0 0 1 1.397.59c.374.394.561.864.561 1.411v5.903H48.35V42.22c0-.547.193-1.017.58-1.41.386-.394.856-.591 1.41-.591.552 0 1.018.197 1.396.59.379.394.568.864.568 1.411v5.903c0 1.083-.4 2.014-1.199 2.795-.799.78-1.717 1.171-2.755 1.171zm13.58-9.1a1.916 1.916 0 0 1-1.406-.576 1.875 1.875 0 0 1-.577-1.376V24.312l-4.856 4.856c-.391.383-.85.57-1.378.562a1.749 1.749 0 0 1-1.325-.612 1.987 1.987 0 0 1-.62-1.408c-.013-.542.193-1.03.619-1.463l8.16-8.16c.18-.17.392-.31.638-.42.245-.111.495-.167.747-.167.253 0 .502.055.747.164.246.11.457.25.635.423l8.25 8.262c.4.392.597.853.593 1.384-.004.531-.202.993-.595 1.385a1.782 1.782 0 0 1-1.394.565 2.066 2.066 0 0 1-1.41-.617l-4.857-4.754v16.725c0 .533-.19.992-.57 1.376-.38.384-.847.576-1.4.576z"
                          />
                        </g>
                      </g>
                    </svg>