<?xml version="1.0" standalone="no"?>
<!DOCTYPE svg PUBLIC "-//W3C//DTD SVG 1.1//EN" "http://www.w3.org/Graphics/SVG/1.1/DTD/svg11.dtd" >
<svg>
<metadata>
Created by FontForge 20090914 at Sat Sep 24 18:25:39 2016
 By www-data
Ray Larabie, 1996 (En) &#38; Reichsfuehrer, 2001 (Ru)
</metadata>
<defs>
<font id="NeuropolMedium" horiz-adv-x="1684" >
  <font-face 
    font-family="Neuropol"
    font-weight="500"
    font-stretch="normal"
    units-per-em="2048"
    panose-1="2 11 5 0 0 0 0 0 0 0"
    ascent="1638"
    descent="-410"
    x-height="968.001"
    cap-height="1274"
    bbox="-277 -347.996 2432 1792"
    underline-thickness="20"
    underline-position="-123"
    unicode-range="U+0020-U+F209"
  />
<missing-glyph horiz-adv-x="1024" 
d="M128 0v1507h768v-1507h-768zM256 128h512v1251h-512v-1251z" />
    <glyph glyph-name=".notdef" horiz-adv-x="1024" 
d="M128 0v1507h768v-1507h-768zM256 128h512v1251h-512v-1251z" />
    <glyph glyph-name="space" unicode=" " horiz-adv-x="1113" 
 />
    <glyph glyph-name="exclam" unicode="!" horiz-adv-x="564" 
d="M399 331c0 -55.333 -27.333 -83 -82 -83h-69c-55.333 0 -83 27.667 -83 83v868c0 55.333 27.667 83 83 83h69c54.667 0 82 -27.667 82 -83v-868zM426 107c0 -36 -15.333 -64.666 -46 -85.999c-26.667 -19.333 -58.667 -29 -96 -29s-70.333 9.66699 -99 29
c-32 21.333 -48 50 -48 86s16 64.667 48 86c28 18.667 61 28 99 28s70.333 -9.33301 97 -28c30 -20.667 45 -49.334 45 -86.001z" />
    <glyph glyph-name="quotedbl" unicode="&#x22;" horiz-adv-x="763" 
d="M683 1163l-50.999 -305c-8 -46 -35 -69 -81 -69h-68c-56 0 -84 24.333 -84 73v11c1.33301 5.33301 2 9.33301 2 12l50 305c7.33301 46 34.666 69 81.999 69h68c56 0 84 -24.333 84 -73v-11c-1.33301 -5.33301 -2 -9.33301 -2 -12zM386.001 1163l-50.999 -305
c-8 -46 -35 -69 -81 -69h-68c-56 0 -84 24.333 -84 73v11c1.33301 5.33301 2 9.33301 2 12l50 305c7.33301 46 34.666 69 81.999 69h68c56 0 84 -24.333 84 -73v-11c-1.33301 -5.33301 -2 -9.33301 -2 -12z" />
    <glyph glyph-name="numbersign" unicode="#" horiz-adv-x="1650" 
d="M1541 787l-8.99902 -27c-12.667 -37.333 -38.667 -56 -78 -56h-270l-51 -141h206c56.667 0 85 -22.333 85 -67c0 -13.333 -2.33301 -27 -7 -41l-9 -27c-12.667 -38 -38.667 -57 -78 -57h-269l-107 -291c-13.333 -36 -39 -54 -77 -54h-67c-57.333 0 -86 22.333 -86 67
c0 13.333 3 28 9 44l86 234h-184l-107 -291c-13.333 -36 -39 -54 -77 -54h-67c-57.333 0 -86 22.333 -86 67c0 13.333 3 28 9 44l86 234h-206c-58.667 0 -88 22 -88 66c0 15.333 3.66699 31.333 11 48l12 27c15.333 34 40.666 51 75.999 51h267l52 141h-206
c-56.667 0 -85 22.333 -85 67c0 13.333 2.33301 27 7 41l9 27c12.667 38 38.667 57 78 57h269l107 291c13.333 36 39 54 77 54h67c57.333 0 86 -22 86 -66c0 -13.333 -3 -28.333 -9 -45l-85 -234h182l107 291c13.333 36 39.333 54 78 54h67c57.333 0 86 -22 86 -66
c0 -14 -3 -29 -9 -45l-86 -234h206c56.667 0 85 -22.667 85 -68c0 -13.333 -2.33301 -27 -7 -41zM944.001 704h-186l-51 -141h185z" />
    <glyph glyph-name="dollar" unicode="$" horiz-adv-x="1635" 
d="M956 734h55.001c228 0 385.333 -44 472 -132c50.667 -51.333 76 -111 76 -179v-116c0 -208 -184.333 -312 -553 -312h-50v-33c0 -54.667 -27.667 -82 -83 -82h-69c-54.667 0 -82 27.333 -82 82v33l-386 -1c-78.667 0 -122.334 0.666992 -131.001 2
c-52.667 8 -85 31.667 -97 71c-1.33301 4 -2 9.33301 -2 16c0 8.66699 0.666992 15.667 2 21c0 54.667 27.667 82 83 82h531v356h-26c-324 0 -513.667 78.333 -569 235c-8.66699 24.667 -13 60 -13 106c0 30.667 1 52 3 64c0 120 67.333 208 202 264
c98 40.667 216.667 61 356 61h47v17c0 54.667 27.333 82 82 82h69c55.333 0 83 -27.333 83 -82v-555zM1327 305l0.00195312 111c0 56.667 -41.667 94.334 -125 113.001c-38.667 8.66699 -102.334 13 -191.001 13h-55v-356h52c113.333 0 192.666 7.33301 237.999 22
c54 17.333 81 49.666 81 96.999zM722.003 729v352h-50c-214.667 0 -322 -43.667 -322 -131v-95c0 -84 115.333 -126 346 -126h26z" />
    <glyph glyph-name="percent" unicode="%" horiz-adv-x="2128" 
d="M2055 185c0 -125.333 -102.999 -198 -308.999 -218h-208c-54.667 0 -104.334 -0.333008 -149.001 -1c-184 19.333 -282.333 90.333 -295 213v165c0 124.667 98 197.667 294 219h358c206 -20 309 -93 309 -219v-159zM1776 1135l-1164 -1113
c-14.667 -14 -32.334 -21.667 -53.001 -23l-116 -7c-24 -1.33301 -45.667 4 -65 16c-22 13.333 -33 31.666 -33 54.999c0 25.333 12 49.333 36 72l1170 1117c14.667 14 32.667 21.333 54 22l112 3c64 2 96 -21 96 -69c0 -25.333 -12.333 -49.666 -37 -72.999zM1046 879
c0 -125.333 -102.999 -197.999 -308.999 -217.999h-208c-54.667 0 -104 -0.333008 -148 -1c-184.667 19.333 -283.334 90.333 -296.001 213v165c0 125.333 98 198 294 218h359c205.333 -18.667 308 -91.334 308 -218.001v-159zM1776 248.001l0.000976562 24.001
c0 66 -46 99 -138 99h-162c-88 -8.66699 -132 -41.667 -132 -99v-27c5.33301 -53.333 49.666 -85.333 132.999 -96l160 2c92.667 1.33301 139 33.666 139 96.999zM768.004 942.002v24.001c0 66 -46.333 99 -139 99h-161c-88 -8.66699 -132 -41.667 -132 -99v-27
c5.33301 -53.333 49.333 -85.333 132 -96l160 2c93.333 1.33301 140 33.666 140 96.999z" />
    <glyph glyph-name="ampersand" unicode="&#x26;" horiz-adv-x="1878" 
d="M1751 147c35.333 -20.667 53.002 -46.999 53.002 -78.999c0 -24 -9.83301 -42.5 -29.5 -55.5s-41.834 -19.5 -66.501 -19.5l-80 1c-18 0 -32 4 -42 12l-101 61c-94 -50 -227 -75 -399 -75h-447c-122.667 0 -235.667 21.333 -339 64c-136.667 56.667 -205 138 -205 244v87
c0 104 60 182.667 180 236c32.667 14.667 80.667 31 144 49c-110 92 -171.333 160 -184 204c-4.66699 15.333 -6.33398 30.333 -5.00098 45l10 131c23.333 79.333 84.333 138.333 183 177c76 30 163.333 45 262 45h248c110 0 206 -21 288 -63
c103.333 -52.667 154.666 -128.667 153.999 -228c0 -36 -1.66699 -71.333 -5 -106c-23.333 -76.667 -132.666 -153.334 -327.999 -230.001c-61.333 -24 -95.333 -36 -102 -36l502 -285l1 266c0 54.667 27.667 82 83 82h68c54.667 0 82 -27.333 82 -82v-254
c0 -47.333 -10 -90.333 -30 -129zM1140 922.001v62c0 58 -53.667 90 -161 96l-51 3h-249c-48 0 -91 -5.33301 -129 -16c-57.333 -16 -86 -42.333 -86 -79v-68c0 -17.333 14 -38.333 42 -63l186 -111l288 81c106.667 30 160 61.667 160 95zM1263 194.001l-604.999 344
c-4 0 -32.333 -8.66699 -85 -26c-162.667 -53.333 -244 -94 -244 -122v-85c0 -26.667 25 -52 75 -76c62.667 -30 145.667 -45 249 -45h435c87.333 0 145.666 3.33301 174.999 10z" />
    <glyph glyph-name="quotesingle" unicode="'" horiz-adv-x="482" 
d="M386 1163l-50.999 -305c-8 -46 -35 -69 -81 -69h-68c-56 0 -84 24.333 -84 73v11c1.33301 5.33301 2 9.33301 2 12l50 305c7.33301 46 34.666 69 81.999 69h68c56 0 84 -24.333 84 -73v-11c-1.33301 -5.33301 -2 -9.33301 -2 -12z" />
    <glyph glyph-name="parenleft" unicode="(" horiz-adv-x="668" 
d="M543 1121c-114.667 -67.333 -172.003 -139.333 -172.003 -216v-543c0 -39.333 18.667 -81 56 -125c32.667 -39.333 68.834 -68.666 108.501 -87.999s59.5 -46.333 59.5 -81c0 -50.667 -31.667 -76 -95 -76h-62c-12.667 0 -25 3 -37 9
c-75.333 38 -139.666 97.667 -192.999 179c-47.333 72 -71 132.667 -71 182v543c0 102 45 194.333 135 277c34 31.333 78 59.666 132 84.999c6.66699 3.33301 38.667 5.66602 96 6.99902c24.667 0.666992 46.834 -5.66602 66.501 -18.999s29.5 -32 29.5 -56
c0 -31.333 -17.667 -57.333 -53 -78z" />
    <glyph glyph-name="parenright" unicode=")" horiz-adv-x="668" 
d="M534 362c0 -50.667 -23.334 -111.331 -70.001 -181.998c-53.333 -80.667 -118 -140.334 -194 -179.001c-12 -6 -24.333 -9 -37 -9h-63c-62.667 0 -94 25.667 -94 77c0 26 22.333 55.667 67 89c62 46.667 95.667 73 101 79c37.333 44 56 85.667 56 125v543
c0 78 -57.333 150 -172 216c-35.333 20.667 -53 46.667 -53 78c0 50.667 31.667 75.667 95 75c56 -0.666992 88.333 -3 97 -7c104.667 -49.333 180.334 -118.333 227.001 -207c26.667 -50.667 40 -102.334 40 -155.001v-543z" />
    <glyph glyph-name="asterisk" unicode="*" horiz-adv-x="1233" 
d="M1094 1160c21.333 -23.333 32.002 -45.665 32.002 -66.998c0 -35.333 -25 -58.333 -75 -69l-123 -27l118 -29c50 -12 75 -35.333 75 -70c0 -22.667 -12.667 -46 -38 -70l-42 -40c-16 -15.333 -35 -23 -57 -23c-10.667 0 -22 2.66699 -34 8l-224 101l27 -111
c2.66699 -10.667 4 -21.667 4 -33c0 -46 -28.333 -69 -85 -69h-93c-56 0 -84 23.333 -84 70c0 8 1.33301 18 4 30l25 114l-220 -103c-11.333 -5.33301 -23.333 -8 -36 -8c-22 0 -40.333 7 -55 21l-45 42c-26 24 -39 47.667 -39 71c0 34.667 25 58 75 70l114 28l-114 26
c-50 11.333 -75 34.666 -75 69.999c0 23.333 11.667 46.333 35 69l45 44c17.333 16.667 36.666 25 57.999 25c11.333 0 22.666 -2.66699 33.999 -8l223 -102l-26 112c-2.66699 11.333 -4 22.333 -4 33c0 45.333 28 68 84 68h97c56.667 0 85 -23 85 -69
c0 -10.667 -1.66699 -22.334 -5 -35.001l-28 -105l229 102c12 5.33301 24.333 8 37 8c22 0 41 -8.66699 57 -26z" />
    <glyph glyph-name="plus" unicode="+" horiz-adv-x="1878" 
d="M1737 620c0 -54.667 -27.333 -82 -82 -82h-607v-332c0 -55.333 -27.667 -83 -83 -83h-57c-55.333 0 -83 27.667 -83 83v332h-602c-55.333 0 -83 27.333 -83 82v23c0 54.667 27.667 82 83 82h599v324c0 54.667 27.667 82 83 82h60c55.333 0 83 -27.333 83 -82v-324h607
c54.667 0 82 -27.333 82 -82v-23z" />
    <glyph glyph-name="comma" unicode="," horiz-adv-x="434" 
d="M367 211l-50 -306c-7.33301 -46 -34.666 -69 -81.999 -69h-68c-55.333 0 -83 24 -83 72v12c1.33301 5.33301 2 9.33301 2 12l49 306c7.33301 46 34.666 69 81.999 69h68c56 0 84 -24.333 84 -73v-11c-1.33301 -5.33301 -2 -9.33301 -2 -12z" />
    <glyph glyph-name="hyphen" unicode="-" horiz-adv-x="986" 
d="M942 500c0 -54.667 -27.667 -82 -83 -82h-691c-55.333 0 -83 27.333 -83 82v56c0 54.667 27.667 82 83 82h691c55.333 0 83 -27.333 83 -82v-56z" />
    <glyph glyph-name="hyphen" unicode="&#x2010;" horiz-adv-x="986" 
d="M942 500c0 -54.667 -27.667 -82 -83 -82h-691c-55.333 0 -83 27.333 -83 82v56c0 54.667 27.667 82 83 82h691c55.333 0 83 -27.333 83 -82v-56z" />
    <glyph glyph-name="period" unicode="." horiz-adv-x="364" 
d="M329 107c0 -36 -15.333 -64.668 -46 -86.001c-26.667 -19.333 -58.667 -29 -96 -29s-70.333 9.66699 -99 29c-32.667 21.333 -49 50 -49 86s16.333 64.667 49 86c28 18.667 61 28 99 28c36.667 0 68.667 -9.66699 96 -29c30.667 -21.333 46 -49.666 46 -84.999z" />
    <glyph glyph-name="slash" unicode="/" horiz-adv-x="1509" 
d="M1426 1133l-1155 -1117c-16.667 -16 -35.667 -24 -57 -24h-74c-62.667 0 -94 23 -94 69c0 24.667 12.333 49 37 73l1155 1117c16 15.333 35 23 57 23h74c62.667 0 94 -23 94 -69c0 -24 -12.333 -48 -37 -72z" />
    <glyph glyph-name="zero" unicode="0" horiz-adv-x="1842" 
d="M1719 336c0 -229.333 -197.667 -344 -593 -344h-364c-284.667 0 -468 55.667 -550 167c-30.667 42 -46 90 -46 144l3 623c1.33301 232 199 348 593 348h364c395.333 0 593 -115.667 593 -347v-591zM1485 343v578c0 108 -118 162 -354 162h-372
c-99.333 0 -173 -6.33301 -221 -19c-90.667 -24 -136 -72 -136 -144v-579c0 -104.667 119 -157 357 -157h372c121.333 0 208 10 260 30c62.667 24 94 67 94 129z" />
    <glyph glyph-name="one" unicode="1" horiz-adv-x="518" 
d="M376 75c0 -55.333 -27.333 -83 -82 -83h-69c-55.333 0 -83 27.667 -83 83v1117c0 54.667 27.667 82 83 82h69c54.667 0 82 -27.333 82 -82v-1117z" />
    <glyph glyph-name="two" unicode="2" horiz-adv-x="1904" 
d="M1784 960c0 -20 -1.00098 -45.666 -3.00098 -76.999c-2.66699 -53.333 -5.66699 -85 -9 -95c-52 -171.333 -232 -257 -540 -257h-532c-216 0 -324 -40.333 -324 -121v-226h1321c54.667 0 82 -27.667 82 -83v-26c0 -55.333 -27.333 -83 -82 -83h-1471
c-54.667 0 -82 27.667 -82 83v332c0 120 68.333 206.667 205 260c95.333 37.333 214 56 356 56h518c72.667 0 136.667 6.66699 192 20c90.667 22 136 57.667 136 107v109c0 43.333 -49 76.666 -147 99.999c-67.333 16 -133 24 -197 24h-198c-54.667 0 -82 27.667 -82 83v26
c0 54.667 27.333 82 82 82h203c91.333 0 168 -5 230 -15c86.667 -14 162.334 -45 227.001 -93c78 -58 116.333 -126.667 115 -206z" />
    <glyph glyph-name="three" unicode="3" horiz-adv-x="1925" 
d="M1772 329c0 -126.667 -63.333 -218.333 -190 -275c-92 -41.333 -210.333 -62 -355 -62h-1015c-54.667 0 -82 27.667 -82 83v26c0 55.333 27.333 83 82 83h1015c207.333 0 311 45.333 311 136v121c0 71.333 -100.333 107 -301 107h-1025c-54.667 0 -82 27.667 -82 83v28
c0 54.667 27.333 82 82 82h1026c200 0 300 38.333 300 115v121c0 51.333 -42.333 84 -127 98c-32 5.33301 -93.333 8 -184 8h-211c-54.667 0 -82 27.667 -82 83v26c0 54.667 27.333 82 82 82h211c156.667 0 274.667 -14.333 354 -43c127.333 -46 191 -133.333 191 -262v-118
c0 -84 -36.667 -151.333 -110 -202c73.333 -52 110 -120.333 110 -205v-115z" />
    <glyph glyph-name="four" unicode="4" horiz-adv-x="1946" 
d="M1835 75c0 -55.333 -27.667 -83 -83 -83h-98c-54.667 0 -82 27.667 -82 83v243h-1354c-78.667 0 -118 44.667 -118 134v739c0 55.333 27.333 83 82 83h99c54.667 0 82 -27.667 82 -83v-652h1209v652c0 55.333 27.333 83 82 83h98c55.333 0 83 -27.667 83 -83v-1116z" />
    <glyph glyph-name="five" unicode="5" horiz-adv-x="1918" 
d="M1792 314c0 -214.667 -192.333 -322 -577 -322h-1011c-54.667 0 -82 27.667 -82 83v26c0 55.333 27.333 83 82 83h994c240 0 360 43.667 360 131v187c0 54.667 -37.667 94.667 -113 120c-52 17.333 -112 26 -180 26h-1061c-54.667 0 -82 27.667 -82 83v461
c0 54.667 27.333 82 82 82h766c54.667 0 82 -27.333 82 -82v-26c0 -55.333 -27.333 -83 -82 -83h-617v-244h907c130.667 0 245 -23.333 343 -70c126 -60 189 -148.667 189 -266v-189z" />
    <glyph glyph-name="six" unicode="6" horiz-adv-x="1939" 
d="M1837 314c0 -116 -61.999 -201.999 -185.999 -257.999c-94 -42.667 -206.333 -64 -337 -64h-620c-214.667 0 -367.334 41.333 -458.001 124c-20 18 -39.333 43 -58 75c-0.666992 1.33301 -9.33398 16.666 -26.001 45.999c-10 37.333 -15 70 -15 98v612
c0 218 186.667 327 560 327h263c54.667 0 82 -27.333 82 -82v-26c0 -55.333 -27.333 -83 -82 -83h-263c-217.333 0 -326 -44.333 -326 -133v-108h896c148.667 0 270.334 -19 365.001 -57c136.667 -54.667 205 -145 205 -271v-200zM1605 317.001l0.000976562 193.001
c0 53.333 -45 92.333 -135 117c-58.667 16 -124.334 24 -197.001 24h-902v-315c0 -52 41 -92 123 -120c62.667 -21.333 130.667 -32 204 -32h616c64 0 122.333 8 175 24c77.333 23.333 116 59.666 116 108.999z" />
    <glyph glyph-name="seven" unicode="7" horiz-adv-x="1881" 
d="M1778 1191c0.666992 -3.33301 0.999023 -7.33301 0.999023 -12c0 -17.333 -7.33301 -39.333 -22 -66c-3.33301 -6 -11 -17.333 -23 -34l-891 -1057c-16.667 -20 -59.667 -30 -129 -30c-23.333 0 -43.666 7.33301 -60.999 22s-26 33.334 -26 56.001c0 20 8 39.333 24 58
l808 955h-1234c-54.667 0 -82 27.667 -82 83v26c0 54.667 27.333 82 82 82h1398c50.667 0 84 -3 100 -9c28.667 -10.667 47 -35.334 55 -74.001z" />
    <glyph glyph-name="eight" unicode="8" horiz-adv-x="1876" 
d="M1737 851c0 -82.667 -44.667 -151.668 -134 -207.001c88 -65.333 132 -135.666 132 -210.999v-112c0 -119.333 -65.333 -207.666 -196 -264.999c-96.667 -42.667 -213 -64 -349 -64h-501c-134 0 -250 21.667 -348 65c-131.333 58 -197 145.667 -197 263v113
c0 89.333 42.667 159.666 128 210.999c-90 44 -135 113.667 -135 209v93c0 218.667 194 328 582 328h441c384.667 0 577 -109 577 -327v-96zM1505 853.999l0.000976562 93c0 90.667 -115 136 -345 136h-441c-94.667 0 -164.334 -4.66699 -209.001 -14
c-92.667 -19.333 -139 -60.333 -139 -123v-92c0 -75.333 108.667 -113 326 -113h485c67.333 0 129.333 6 186 18c91.333 19.333 137 51 137 95zM1503 322.999l-0.000976562 109.999c0 41.333 -48.333 72.666 -145 93.999c-63.333 14 -127 21 -191 21h-460
c-68.667 0 -132 -6 -190 -18c-94 -19.333 -141 -51.666 -141 -96.999v-112c0 -23.333 23.667 -49.666 71 -78.999c62.667 -38.667 143.334 -58 242.001 -58h501c69.333 0 132 8 188 24c83.333 24 125 62.333 125 115z" />
    <glyph glyph-name="nine" unicode="9" horiz-adv-x="1876" 
d="M1737 321c0 -123.333 -66 -213 -198 -269c-94.667 -40 -213.667 -60 -357 -60h-202c-54.667 0 -82 27.667 -82 83v26c0 55.333 27.333 83 82 83h199c217.333 0 326 51.667 326 155v86h-795c-380 0 -570 109.333 -570 328v202c0 112 62.667 196.667 188 254
c94.667 43.333 206 65 334 65h522c144.667 0 264.667 -21.667 360 -65c128.667 -58.667 193 -151.667 193 -279v-609zM1505 616l-0.000976562 314c0 54 -40.667 94.667 -122 122c-61.333 20.667 -130.666 31 -207.999 31h-510c-67.333 0 -126 -7.33301 -176 -22
c-77.333 -22.667 -116 -59 -116 -109v-195c0 -54.667 44.667 -94 134 -118c56.667 -15.333 122.667 -23 198 -23h800z" />
    <glyph glyph-name="colon" unicode=":" horiz-adv-x="404" 
d="M344 605c0 -36 -15 -64.668 -45 -86.001c-26.667 -19.333 -58.667 -29 -96 -29s-70.333 9.66699 -99 29c-32.667 21.333 -49 50 -49 86s16.333 64.667 49 86c28 18.667 61 28 99 28c36.667 0 68.667 -9.66699 96 -29c30 -21.333 45 -49.666 45 -84.999zM344 113.999
c0 -36 -15 -64.668 -45 -86.001c-26.667 -19.333 -58.667 -29 -96 -29s-70.333 9.66699 -99 29c-32.667 21.333 -49 50 -49 86s16.333 64.667 49 86c28 18.667 61 28 99 28c36.667 0 68.667 -9.66699 96 -29c30 -21.333 45 -49.666 45 -84.999z" />
    <glyph glyph-name="semicolon" unicode=";" horiz-adv-x="473" 
d="M410 602c0 -35.333 -15 -63.668 -45 -85.001c-27.333 -19.333 -59.333 -29 -96 -29c-38 0 -71 9.33301 -99 28c-32.667 21.333 -49 50 -49 86s16.333 64.667 49 86c28 18.667 61 28 99 28c36.667 0 68.667 -9.66699 96 -29c30 -21.333 45 -49.666 45 -84.999z
M367 210.998l-50 -306c-7.33301 -46 -34.666 -69 -81.999 -69h-68c-55.333 0 -83 24 -83 72v12c1.33301 5.33301 2 9.33301 2 12l49 306c7.33301 46 34.666 69 81.999 69h68c56 0 84 -24.333 84 -73v-11c-1.33301 -5.33301 -2 -9.33301 -2 -12z" />
    <glyph glyph-name="less" unicode="&#x3c;" horiz-adv-x="1246" 
d="M1111 266c0 -31.333 -23 -47 -69 -47c-21.333 0 -43.333 4.66699 -66 14l-856 356c-16 10.667 -24 24 -24 40c0 18 9 32.333 27 43l853 354c24 10 46.667 15 68 15c44.667 0 67 -15.667 67 -47v-32c0 -13.333 -10 -24 -30 -32l-735 -300l735 -301
c20 -8 30 -18.667 30 -32v-31z" />
    <glyph glyph-name="equal" unicode="=" horiz-adv-x="1084" 
d="M968 673c0 -55.333 -27.667 -83 -83 -83h-691c-55.333 0 -83 27.667 -83 83v55c0 55.333 27.667 83 83 83h691c55.333 0 83 -27.667 83 -83v-55zM968 403c0 -55.333 -27.667 -83 -83 -83h-691c-55.333 0 -83 27.667 -83 83v55c0 55.333 27.667 83 83 83h691
c55.333 0 83 -27.667 83 -83v-55z" />
    <glyph glyph-name="greater" unicode="&#x3e;" horiz-adv-x="1235" 
d="M1123 629c0 -14.667 -8.33301 -28.001 -25 -40.001l-856 -356c-22.667 -9.33301 -45 -14 -67 -14c-45.333 0 -68 15.667 -68 47v31c0 13.333 10 24 30 32l735 301l-735 300c-20 8 -30 18.667 -30 32v32c0 31.333 22.333 47 67 47c21.333 0 44 -5 68 -15l854 -354
c18 -11.333 27 -25.666 27 -42.999z" />
    <glyph glyph-name="question" unicode="?" horiz-adv-x="1364" 
d="M1238 785c0 -53.333 -22.667 -103.333 -68 -150c-38 -39.333 -85 -70.333 -141 -93c-86 -34.667 -190.667 -52 -314 -52h-248c-35.333 0 -53 -9.66699 -53 -29v-127c0 -55.333 -27.333 -83 -82 -83h-56c-55.333 0 -83 27.667 -83 83v134c0 137.333 114.667 206 344 206
h177c62.667 0 121.334 6.66699 176.001 20c84.667 20.667 127 53 127 97v143c0 57.333 -38 99.333 -114 126c-52.667 18.667 -114 28 -184 28h-53c-55.333 0 -83 27.333 -83 82v22c0 54.667 27.667 82 83 82h54c135.333 0 248.666 -22.333 339.999 -67
c118.667 -58 178 -148 178 -270v-152zM441 114c0 -36 -15 -64.668 -45 -86.001c-26.667 -19.333 -58.667 -29 -96 -29s-70.333 9.66699 -99 29c-32.667 21.333 -49 50 -49 86s16.333 64.667 49 86c28 18.667 61 28 99 28c36.667 0 68.667 -9.66699 96 -29
c30 -21.333 45 -49.666 45 -84.999z" />
    <glyph glyph-name="at" unicode="@" horiz-adv-x="1895" 
d="M1164 1131l121.999 0.00195312c352 0 528 -103.333 528 -310v-396c0 -202 -151.667 -303 -455 -303h-543c-52.667 0 -110 7.33301 -172 22c-201.333 47.333 -302 137.333 -302 270v129c0 104.667 54.667 183.667 164 237c83.333 40.667 184 61 302 61h786
c-11.333 69.333 -98.666 103.666 -261.999 102.999l-295 -1c-68.667 2.66699 -111.334 3.66699 -128.001 3l-303 -10c-248 -22 -372 -182.667 -372 -482c0 -36 10.333 -83.667 31 -143c20.667 -62 45 -113.333 73 -154c50.667 -99.333 264 -149 640 -149
c134 0 290 6.66699 468 20l261 20c42.667 0.666992 64 -21 64 -65c0 -24 -8 -47 -24 -69s-36.667 -35.333 -62 -40c-147.333 -24.667 -340.333 -37 -579 -37c-504 0 -806 67 -906 201c-31.333 41.333 -61 110.333 -89 207c-26 91.333 -39 163 -39 215
c0 431.333 175 652.666 525 663.999l312 11h124c25.333 0 50.333 -0.666992 75 -2s43.334 -2 56.001 -2zM1592 414.002l0.000976562 240h-789c-42 0 -87.667 -7.66699 -137 -23c-68 -21.333 -102 -50.333 -102 -87v-128c0 -42 39.667 -71.667 119 -89
c27.333 -6 69.666 -12.333 126.999 -19h551c154 0 231 35.333 231 106z" />
    <glyph glyph-name="A" unicode="A" horiz-adv-x="1903" 
d="M1859 111c2 -10 3 -20.333 3 -31c0 -34.667 -11.667 -62.667 -35 -84s-52.666 -32 -87.999 -32c-36.667 0 -69.667 21.333 -99 64l-207 302h-986l-207 -302c-6.66699 -12.667 -13 -21.667 -19 -27c-14.667 -14 -32.334 -21 -53.001 -21c-44.667 0 -77.667 16 -99 48
c-9.33301 14 -14 27.333 -14 40c0 8.66699 1.33301 15.667 4 21l739 1130c32 48.667 79.667 71.667 143 69c75.333 -2.66699 120.333 -25.667 135 -69zM1296 523l-355 523l-357 -523h712z" />
    <glyph glyph-name="B" unicode="B" horiz-adv-x="1879" 
d="M1747 333c0 -147.333 -81.001 -247.335 -243.001 -300.002c-49.333 -16 -107.333 -27.667 -174 -35c-36.667 -4 -68.667 -6 -96 -6h-992c-54.667 0 -82 27.667 -82 83v1117c0 54.667 27.333 82 82 82h963c108.667 0 191.334 -6.33301 248.001 -19
c80.667 -18 148 -52.333 202 -103c61.333 -56.667 92 -123.667 92 -201v-99c0 -77.333 -27.333 -141.666 -82 -192.999c-8 -7.33301 -12 -15.666 -12 -24.999c0 -6 2 -12.667 6 -20l6 -9c54.667 -50.667 82 -114.667 82 -192v-80zM1519 841.998l-6 108
c-4.66699 88.667 -105.667 133 -303 133h-811v-360h820c144.667 0 238.334 23.333 281.001 70c13.333 14.667 19.666 31 18.999 49zM1513 408.998c1.33301 81.333 -95.333 122 -290 122h-829v-347h813c180.667 0 282 40.333 304 121z" />
    <glyph glyph-name="C" unicode="C" horiz-adv-x="1729" 
d="M1612 1166c0 -55.333 -27.665 -83 -82.998 -83h-832c-202 0 -303 -40.333 -303 -121v-635c0 -60.667 44.667 -103 134 -127c39.333 -10.667 106.666 -16 201.999 -16h794c54.667 0 82 -27.667 82 -83v-26c0 -55.333 -27.333 -83 -82 -83h-794
c-96 0 -163.667 2.66699 -203 8c-68.667 9.33301 -132.334 29.666 -191.001 60.999c-117.333 62.667 -176 150 -176 262v638c0 80 37.333 148.667 112 206c63.333 48.667 138 80.334 224 95.001c47.333 8 113 12 197 12h836c55.333 0 83 -27.333 83 -82v-26z" />
    <glyph glyph-name="D" unicode="D" horiz-adv-x="1873" 
d="M1735 338c0 -59.333 -11.334 -107.333 -34.001 -144l3 7c-35.333 -72.667 -108 -127.667 -218 -165c-86 -29.333 -178.667 -44 -278 -44h-989c-54.667 0 -82 27.667 -82 83v1117c0 54.667 27.333 82 82 82h995c66.667 0 123.334 -4 170.001 -12
c234 -40 351 -145 351 -315v-609zM1503 339v607c0 52 -44.333 91.667 -133 119c-38.667 12 -93 18 -163 18h-836v-899h832c174.667 0 273.667 42 297 126c2 7.33301 3 17 3 29z" />
    <glyph glyph-name="E" unicode="E" horiz-adv-x="1682" 
d="M1580 636l-1.99902 -27c-4 -52 -31.333 -78 -82 -78h-1125v-211c0 -90.667 100 -136 300 -136h825c54.667 0 82 -27.667 82 -83v-26c0 -55.333 -27.333 -83 -82 -83h-836c-26 0 -58.333 2 -97 6c-284 29.333 -426 134 -426 314v635c0 120 69.667 209.333 209 268
c93.333 39.333 204.666 59 333.999 59h228c54.667 0 82 -27.333 82 -82v-26c0 -55.333 -27.333 -83 -82 -83h-237l-65 -4c-158.667 -10 -238 -54 -238 -132v-224h1129c59.333 0 87 -29 83 -87z" />
    <glyph glyph-name="F" unicode="F" horiz-adv-x="1675" 
d="M1573 614c0 -55.333 -27.668 -83 -83.001 -83h-1119v-456c0 -55.333 -27.667 -83 -83 -83h-69c-54.667 0 -82 27.667 -82 83v900c0 76 44 142.667 132 200c100.667 66 233.334 99 398.001 99h175c55.333 0 83 -27.333 83 -82v-26c0 -55.333 -27.667 -83 -83 -83h-159
c-60 0 -120 -7.33301 -180 -22c-88 -21.333 -132 -53 -132 -95v-243h1119c55.333 0 83 -27.333 83 -82v-27z" />
    <glyph glyph-name="G" unicode="G" horiz-adv-x="1853" 
d="M1716 318c0 -116.667 -58.002 -203.667 -174.002 -261c-88 -43.333 -197.333 -65 -328 -65h-531c-139.333 0 -256.333 19.667 -351 59c-130 54 -195 141.667 -195 263v642c0 114.667 67 200 201 256c98.667 41.333 214.334 62 347.001 62h211c54.667 0 82 -27.333 82 -82
v-26c0 -55.333 -27.333 -83 -82 -83h-199c-217.333 0 -326 -42.333 -326 -127v-641c0 -87.333 105 -131 315 -131h528c48.667 0 101.334 9.33301 158.001 28c73.333 24 110 56.333 110 97v332c0 54.667 27.667 82 83 82h69c54.667 0 82 -27.333 82 -82v-323z" />
    <glyph glyph-name="H" unicode="H" horiz-adv-x="1873" 
d="M1735 75c0 -55.333 -27.667 -83 -83 -83h-66c-55.333 0 -83 27.667 -83 83v456h-1132v-456c0 -55.333 -27.667 -83 -83 -83h-69c-54.667 0 -82 27.667 -82 83v1117c0 54.667 27.333 82 82 82h69c55.333 0 83 -27.333 83 -82v-469h1132v469c0 54.667 27.667 82 83 82h66
c55.333 0 83 -27.333 83 -82v-1117z" />
    <glyph glyph-name="I" unicode="I" horiz-adv-x="509" 
d="M371 75c0 -55.333 -27.667 -83 -83 -83h-69c-54.667 0 -82 27.667 -82 83v1117c0 54.667 27.333 82 82 82h69c55.333 0 83 -27.333 83 -82v-1117z" />
    <glyph glyph-name="J" unicode="J" horiz-adv-x="853" 
d="M727 359c0 -244.667 -193 -366.999 -579 -366.999h-51c-55.333 0 -83 27.667 -83 83v26c0 55.333 27.667 83 83 83h45c99.333 0 173 7 221 21c86.667 25.333 130 75.666 130 150.999v836c0 54.667 27.333 82 82 82h70c54.667 0 82 -27.333 82 -82v-833z" />
    <glyph glyph-name="K" unicode="K" horiz-adv-x="1676" 
d="M1509 148c37.333 -20 56 -46.668 56 -80.001c0 -50.667 -31.333 -76 -94 -76h-83c-13.333 0 -26.333 3.33301 -39 10l-984 519v-446c0 -55.333 -27.667 -83 -83 -83h-63c-54.667 0 -82 27.667 -82 83v1117c0 54.667 27.333 82 82 82h63c55.333 0 83 -27.333 83 -82v-431
l948 504c18 6 31 9 39 9h88c62.667 0 94 -25.333 94 -76c0 -33.333 -18.667 -59.666 -56 -78.999l-907 -475z" />
    <glyph glyph-name="L" unicode="L" horiz-adv-x="1640" 
d="M1592 75c0 -55.333 -27.667 -83 -83 -83h-734c-146.667 0 -244.667 5 -294 15c-229.333 46.667 -344 154 -344 322v863c0 54.667 27.333 82 82 82h69c55.333 0 83 -27.333 83 -82v-863c0 -68.667 54.333 -113 163 -133c43.333 -8 123 -12 239 -12h736
c55.333 0 83 -27.667 83 -83v-26z" />
    <glyph glyph-name="M" unicode="M" horiz-adv-x="2430" 
d="M2294 75c0 -55.333 -27.334 -82.999 -82.001 -82.999h-70c-54.667 0 -82 27.667 -82 83v829l-689 -850c-36.667 -45.333 -86 -68 -148 -68c-62.667 0 -112.667 22.667 -150 68l-702 854v-833c0 -55.333 -27.667 -83 -83 -83h-69c-54.667 0 -82 27.667 -82 83v1076
c0 35.333 14.333 64.666 43 87.999c26.667 22 58.334 33 95.001 33c50 0 93 -21.333 129 -64l821 -971l802 973c32.667 39.333 78.667 59 138 59c86 0 129 -42.667 129 -128v-1066z" />
    <glyph glyph-name="N" unicode="N" horiz-adv-x="1862" 
d="M1724 129c0 -59.333 -15.333 -99.667 -46 -121c-22 -15.333 -58.333 -23 -109 -23c-20 0 -43.667 10 -71 30c-4 2.66699 -16 12.667 -36 30l-1091 928v-898c0 -55.333 -27.667 -83 -83 -83h-69c-54.667 0 -82 27.667 -82 83v1115c0 28.667 20 54.667 60 78
c18 10.667 38 16 60 16c32 0 67.667 -11.333 107 -34c18.667 -10.667 35 -22 49 -34l1077 -917v893c0 54.667 27.667 82 83 82h68c55.333 0 83 -27.333 83 -82v-1063z" />
    <glyph glyph-name="O" unicode="O" horiz-adv-x="1824" 
d="M1688 336c0 -229.333 -198 -344 -594 -344h-364c-283.333 0 -466 63 -548 189c-30 46 -45 97.333 -45 154v591c0 232 197.333 348 592 348h365c178 0 309 -16.333 393 -49c134 -52 201 -151.667 201 -299v-590zM1454 341v580c0 108 -118.333 162 -355 162h-371
c-238 0 -357 -54 -357 -162v-580c0 -104.667 119 -157 357 -157h372c236 0 354 52.333 354 157z" />
    <glyph glyph-name="P" unicode="P" horiz-adv-x="1860" 
d="M1732 789c0 -127.333 -64 -219.667 -192 -277c-93.333 -42 -212.666 -63 -357.999 -63h-811v-374c0 -55.333 -27.667 -83 -83 -83h-69c-54.667 0 -82 27.667 -82 83v1117c0 54.667 27.333 82 82 82h974c125.333 0 236.666 -18 333.999 -54
c136.667 -50.667 205 -128 205 -232v-199zM1500 796.999v175c0 74 -101.667 111 -305 111h-824v-442h825c95.333 0 166 9 212 27c61.333 24 92 67 92 129z" />
    <glyph glyph-name="Q" unicode="Q" horiz-adv-x="1862" 
d="M1724 334c0 -137.333 -70 -232.334 -210 -285.001l96 -55c27.333 -15.333 41 -34.333 41 -57c0 -37.333 -27.667 -69.666 -83 -96.999c-9.33301 -4.66699 -20.333 -7 -33 -7c-29.333 0 -55 6 -77 18l-262 144h-450c-406 0 -609 113 -609 339v604
c0 171.333 97.333 276 292 314c75.333 14.667 180.666 22 315.999 22h375c136.667 0 239.334 -5.66699 308.001 -17c197.333 -32.667 296 -138.667 296 -318v-605zM1490 326.999v614c0 64.667 -51 107.334 -153 128.001c-46 9.33301 -121 14 -225 14h-366
c-128.667 0 -219 -8 -271 -24c-69.333 -21.333 -104 -60.666 -104 -117.999v-611c0 -74.667 60.333 -119.334 181 -134.001c44 -5.33301 108.667 -8 194 -8h366c129.333 0 222 9 278 27c66.667 21.333 100 58.666 100 111.999z" />
    <glyph glyph-name="R" unicode="R" horiz-adv-x="1814" 
d="M1721 795c0 -108.667 -55 -190.333 -165 -245c-91.333 -45.333 -209 -68 -353 -68h-385l781 -331c41.333 -17.333 62 -44.333 62 -81c0 -52.667 -31.333 -78.667 -94 -78c-52 0 -95.333 2.33301 -130 7l-1066 456v-380c0 -55.333 -27.667 -83 -83 -83h-69
c-54.667 0 -82 27.667 -82 83v1117c0 54.667 27.333 82 82 82h941c146 0 266 -19 360 -57c134 -54 201 -143 201 -267v-155zM1487 793.001v162c0 85.333 -109.333 128 -328 128h-788v-410h830c190.667 0 286 40 286 120z" />
    <glyph glyph-name="S" unicode="S" horiz-adv-x="1704" 
d="M1580 309c0 -142.667 -65.333 -234.667 -196 -276c-86.667 -27.333 -208.334 -41 -365.001 -41h-809c-54.667 0 -82 27.667 -82 83v26c0 55.333 27.333 83 82 83h809c218 0 327 40.333 327 121v111c0 86 -108 129 -324 129h-309c-392 0 -588 102 -588 306v96
c0 136 64.667 229 194 279c82.667 32 206.334 48 371.001 48h119c55.333 0 83 -27.333 83 -82v-26c0 -55.333 -27.667 -83 -83 -83h-122c-218.667 0 -328 -44.667 -328 -134v-89c0 -56 48.333 -92.333 145 -109c38.667 -6.66699 107 -10 205 -10h313
c139.333 0 257.333 -19.333 354 -58c136 -54.667 204 -141 204 -259v-115z" />
    <glyph glyph-name="T" unicode="T" horiz-adv-x="1450" 
d="M1452 1166c0 -55.333 -27.667 -83 -83 -83h-518v-1008c0 -55.333 -27.333 -83 -82 -83h-69c-54.667 0 -82 27.667 -82 83v1008h-515c-55.333 0 -83 27.667 -83 83v26c0 54.667 27.667 82 83 82h1266c55.333 0 83 -27.333 83 -82v-26z" />
    <glyph glyph-name="U" unicode="U" horiz-adv-x="1873" 
d="M1735 353c0 -240.667 -208.667 -360.999 -626 -360.999h-328c-325.333 0 -522 60 -590 180c-24.667 43.333 -37 103.666 -37 180.999v839c0 54.667 27.333 82 82 82h69c55.333 0 83 -27.333 83 -82v-824c0 -80.667 50 -134.667 150 -162c54 -14.667 136 -22 246 -22h322
c114.667 0 197 6.66699 247 20c99.333 26.667 149 81 149 163v825c0 54.667 27.667 82 83 82h68c54.667 0 82 -27.333 82 -82v-839z" />
    <glyph glyph-name="V" unicode="V" horiz-adv-x="1851" 
d="M1827 1145l-758.002 -1078c-19.333 -28 -37.666 -47 -54.999 -57c-24 -14 -52 -21 -84 -21c-40.667 0 -76.334 12.667 -107.001 38c-10.667 8.66699 -22 21.667 -34 39l-759 1079c-16 22.667 -24 44 -24 64c0 43.333 30.333 65 91 65h10c4 0 9.33301 0.333008 16 1
c58 0 95.333 -12 112 -36l695 -992l691 992c16.667 24 53.334 36 110.001 36h17c4.66699 0 8.33398 -0.333008 11.001 -1c60.667 -5.33301 91 -27.333 91 -66c0 -20 -7.66699 -41 -23 -63z" />
    <glyph glyph-name="W" unicode="W" horiz-adv-x="2434" 
d="M2421 1157l-506 -1071c-30 -63.333 -76 -95 -138 -95c-68.667 0 -117 29.667 -145 89l-405 864l-417 -866c-24.667 -51.333 -70.667 -77 -138 -77c-70.667 0 -118.667 27.333 -144 82l-504 1074c-6.66699 14 -10 27.333 -10 40c0 33.333 28.333 59 85 77
c12.667 4 27 6 43 6c49.333 0 82.333 -17.667 99 -53l432 -916l410 881c10 21.333 24.333 40 43 56c29.333 25.333 62 38 98 38c34 0 67 -14.333 99 -43c10.667 -9.33301 22.667 -23.666 36 -42.999l417 -889l425 915c16 34.667 50.333 52 103 52
c85.333 0 128 -26.333 128 -79c0 -12.667 -3.66699 -26.667 -11 -42z" />
    <glyph glyph-name="X" unicode="X" horiz-adv-x="1634" 
d="M1587 138c27.333 -23.333 40.999 -48.332 40.999 -74.999c0 -47.333 -31.667 -71 -95 -71c-8 -1.33301 -19.667 -2 -35 -2c-42.667 0 -72.667 7.33301 -90 22l-583 492l-589 -492c-17.333 -14.667 -48.333 -22 -93 -22c-13.333 0 -24 0.666992 -32 2
c-63.333 0 -95 24 -95 72c0 26 13.667 50.667 41 74l601 506l-581 485c-28 23.333 -42 48.333 -42 75c0 46.667 31.667 70 95 70h71c20.667 0 38.334 -6 53.001 -18l571 -477l567 476c15.333 12.667 33 19 53 19h69c62.667 0 94 -23.667 94 -71
c0 -26.667 -13.667 -51.334 -41 -74.001l-577 -485z" />
    <glyph glyph-name="Y" unicode="Y" horiz-adv-x="1588" 
d="M1552 1133l-631 -606l-2 -452c0 -55.333 -27.333 -83 -82 -83h-68c-55.333 0 -83 27.333 -83 82v453l-632 606c-24.667 23.333 -37 47.333 -37 72c0 46 31.667 69 95 69h72c22 0 41 -7.66699 57 -23l561 -538l563 538c16 15.333 35 23 57 23h73c62.667 0 94 -23 94 -69
c0 -24 -12.333 -48 -37 -72z" />
    <glyph glyph-name="Z" unicode="Z" horiz-adv-x="1659" 
d="M1548 75c0 -55.333 -27.333 -83.001 -82 -83.001h-1171c-50 0 -92.333 9 -127 27c-44 22 -66 55.667 -66 101c0 32 12.333 58.333 37 79l1191 1012c35.333 30 72.333 45 111 45c29.333 0 54.833 -8.66699 76.5 -26s32.5 -40.333 32.5 -69
c0 -31.333 -16 -60.666 -48 -87.999l-1050 -889h1014c54.667 0 82 -27.667 82 -83v-26z" />
    <glyph glyph-name="bracketleft" unicode="[" horiz-adv-x="649" 
d="M612 1166c0 -55.333 -27.333 -83 -82 -83h-159v-899h153c55.333 0 83 -27.667 83 -83v-26c0 -55.333 -27.667 -83 -83 -83h-305c-54.667 0 -82 27.667 -82 83v1117c0 54.667 27.333 82 82 82h311c54.667 0 82 -27.333 82 -82v-26z" />
    <glyph glyph-name="backslash" unicode="\" horiz-adv-x="1509" 
d="M1425 134c24.667 -24 37 -48.333 37 -73c0 -46 -31.333 -69 -94 -69h-74c-21.333 0 -40.333 8 -57 24l-1155 1117c-24.667 24 -37 48.333 -37 73c0 45.333 31.333 68 94 68h74c22 0 41 -7.66699 57 -23z" />
    <glyph glyph-name="bracketright" unicode="]" horiz-adv-x="649" 
d="M512 75c0 -55.333 -27.333 -83 -82 -83h-311c-55.333 0 -83 27.667 -83 83v26c0 55.333 27.667 83 83 83h159v899h-154c-55.333 0 -83 27.667 -83 83v26c0 54.667 27.667 82 83 82h306c54.667 0 82 -27.333 82 -82v-1117z" />
    <glyph glyph-name="glyph169" unicode="^" horiz-adv-x="2109" 
d="M1149 1501l527 -573h-187l-434 432l-436 -432h-187l527 573h190z" />
    <glyph glyph-name="underscore" unicode="_" horiz-adv-x="1566" 
d="M1558 -257c0 -54.667 -27.333 -82 -82 -82h-1399c-54.667 0 -82 27.333 -82 82v57c0 55.333 27.333 83 82 83h1399c54.667 0 82 -27.667 82 -83v-57z" />
    <glyph glyph-name="a" unicode="a" horiz-adv-x="1739" 
d="M1614 295c0 -202 -151.668 -303 -455.001 -303h-543c-52.667 0 -110 7.33301 -172 22c-201.333 47.333 -302 137.333 -302 270v129c0 104.667 54.667 183.667 164 237c83.333 40.667 184 61 302 61h786c-11.333 68.667 -98.666 103 -261.999 103h-168
c-54.667 0 -82 27.333 -82 82v22c0 55.333 27.333 83 82 83h122c352 0 528 -103.333 528 -310v-396zM1392 284l0.000976562 240h-789c-42 0 -87.667 -7.66699 -137 -23c-68 -21.333 -102 -50.333 -102 -87v-128c0 -42 39.667 -71.667 119 -89
c27.333 -6 69.666 -12.333 126.999 -19h551c154 0 231 35.333 231 106z" />
    <glyph glyph-name="b" unicode="b" 
d="M1570 309c0 -154.667 -94.333 -252.668 -283 -294.001c-70 -15.333 -151 -23 -243 -23h-341c-72 0 -146 9.33301 -222 28c-214 52.667 -321 147.334 -321 284.001v886c0 55.333 27.333 83 82 83h58c54.667 0 82 -27.667 82 -83v-197h662c350.667 0 526 -104.333 526 -313
v-371zM1348 316.999v359c0 86.667 -100 130 -300 130h-666v-501c0 -39.333 40 -71.333 120 -96c67.333 -20.667 143.333 -31 228 -31h316c113.333 0 189.333 7.33301 228 22c49.333 18.667 74 57.667 74 117z" />
    <glyph glyph-name="c" unicode="c" horiz-adv-x="1680" 
d="M1565 75c0 -55.333 -34.332 -83 -102.999 -83h-822c-151.333 0 -265 15 -341 45c-119.333 47.333 -179 134 -179 260v398c0 204 158 306 474 306h880c55.333 0 83 -27.667 83 -83v-22c0 -54.667 -27.667 -82 -83 -82h-865c-76.667 0 -132.334 -4.33301 -167.001 -13
c-66.667 -16.667 -100 -50 -100 -100v-395c0 -85.333 101.333 -128 304 -128h836c55.333 0 83 -27.667 83 -83v-20z" />
    <glyph glyph-name="d" unicode="d" 
d="M1564 302c0 -80.667 -44 -150.333 -132 -209c-100.667 -67.333 -237.667 -101 -411 -101h-339c-355.333 0 -532.333 95 -531 285l3 402c1.33301 209.333 176.333 314 525 314h663v197c0 55.333 27.333 83 82 83h57c55.333 0 83 -27.667 83 -83v-888zM1342 306.001
l-0.000976562 500h-668c-198.667 0 -298 -43.667 -298 -131v-358c0 -65.333 37.333 -107.333 112 -126c34.667 -8.66699 98.334 -13 191.001 -13h320c228.667 0 343 42.667 343 128z" />
    <glyph glyph-name="e" unicode="e" horiz-adv-x="1651" 
d="M1527 479c0 -61.333 -20.668 -92 -62.001 -92h-1104c0 -139.333 96 -209 288 -209h166c54.667 0 82 -27.667 82 -83v-20c0 -55.333 -27.333 -83 -82 -83h-142c-142 0 -258 18.667 -348 56c-128.667 53.333 -193 141 -193 263v371c0 116.667 63.667 203 191 259
c92.667 40.667 206.334 61 341.001 61h415c112 0 208.333 -19 289 -57c106 -50 159 -124.333 159 -223v-243zM1311 580v124c0 38 -42.667 67.333 -128 88c-60 14.667 -117.333 22 -172 22h-322c-223.333 0 -335 -39.333 -335 -118v-116h957z" />
    <glyph glyph-name="f" unicode="f" horiz-adv-x="914" 
d="M780 890c0 -55.333 -27.333 -83.002 -82 -83.002h-339v-732c0 -55.333 -27.333 -83 -82 -83h-58c-54.667 0 -82 27.667 -82 83v902c0 102.667 39.667 179.334 119 230.001c66 42.667 153.333 64 262 64c-32 0 28 1 180 3c54.667 0.666992 82 -26.666 82 -81.999v-20
c0 -55.333 -27.333 -83 -82 -83h-103c-155.333 0 -233 -32 -233 -96h336c54.667 0 82 -27.333 82 -82v-21z" />
    <glyph glyph-name="g" unicode="g" horiz-adv-x="1669" 
d="M1532 25c0 -116 -73.3311 -201 -219.998 -255c-102.667 -38 -223.334 -57 -362.001 -57h-93c-55.333 0 -83 27.333 -83 82v22c0 54.667 27.667 82 83 82h161c39.333 0 94.333 10.667 165 32c80 24 120 47 120 69h-609c-142.667 0 -260.667 18 -354 54
c-135.333 52 -203 138 -203 258v374c0 106 54.667 187.333 164 244c91.333 47.333 202.666 71 333.999 71h327c140 0 259.667 -19.333 359 -58c140.667 -54.667 211 -141 211 -259v-659zM1307 185l-0.000976562 490c0 50.667 -41.667 88.667 -125 114
c-57.333 17.333 -118.666 26 -183.999 26h-351c-81.333 0 -140.333 -4.33301 -177 -13c-74 -17.333 -111 -54.333 -111 -111v-376c0 -86.667 110 -130 330 -130h618z" />
    <glyph glyph-name="h" unicode="h" horiz-adv-x="1669" 
d="M1532 75c0 -55.333 -27.333 -83 -82 -83h-58c-54.667 0 -82 27.667 -82 83v595c0 61.333 -37.333 102 -112 122c-37.333 10 -99.333 15 -186 15h-653v-732c0 -55.333 -27.333 -83 -82 -83h-58c-54.667 0 -82 27.667 -82 83v1117c0 54.667 27.333 82 82 82h58
c54.667 0 82 -27.333 82 -82v-199h600c172 0 297 -14 375 -42c132 -47.333 198 -140 198 -278v-598z" />
    <glyph glyph-name="i" unicode="i" horiz-adv-x="503" 
d="M396 1055c0 -36 -15.333 -64.666 -46 -85.999c-26.667 -19.333 -58.667 -29 -96 -29s-70.333 9.66699 -99 29c-32 21.333 -48 50 -48 86s16 64.667 48 86c28 18.667 61 28 99 28s70.333 -9.33301 97 -28c30 -20.667 45 -49.334 45 -86.001zM365 75.001
c0 -55.333 -27.667 -83 -83 -83h-55c-55.333 0 -83 27.667 -83 83v763c0 54.667 27.667 82 83 82h55c55.333 0 83 -27.333 83 -82v-763z" />
    <glyph glyph-name="j" unicode="j" horiz-adv-x="499" 
d="M417 1059c0 -36 -15.333 -64.666 -46 -85.999c-26.667 -19.333 -58.667 -29 -96 -29s-70.333 9.66699 -99 29c-32.667 21.333 -49 50 -49 86s16.333 64.667 49 86c28 18.667 61 28 99 28s70.333 -9.33301 97 -28c30 -20.667 45 -49.334 45 -86.001zM385 86.001
c0 -160.667 -84 -257.333 -252 -290c-54.667 -10.667 -128 -16 -220 -16h-108c-54.667 0 -82 27.667 -82 83v21c0 55.333 27.333 83 82 83h105c46.667 0 95.667 7 147 21c70.667 19.333 106 46 106 80v771c0 54.667 27.667 82 83 82h57c54.667 0 82 -27.333 82 -82v-753z
" />
    <glyph glyph-name="k" unicode="k" horiz-adv-x="1421" 
d="M1260 149c38.667 -19.333 58 -46.332 58 -80.999c0 -50.667 -31.667 -76 -95 -76h-70c-12.667 0 -25 3 -37 9l-759 380v-306c0 -55.333 -27.333 -83 -82 -83h-56c-54.667 0 -82 27.667 -82 83v1117c0 54.667 27.333 82 82 82h56c54.667 0 82 -27.333 82 -82v-582l749 374
c18 6 30.333 9 37 9h64c62.667 0 94 -25.333 94 -76c0 -34.667 -19 -61.334 -57 -80.001l-680 -339z" />
    <glyph glyph-name="l" unicode="l" horiz-adv-x="496" 
d="M359 75c0 -55.333 -27.333 -83 -82 -83h-58c-54.667 0 -82 27.667 -82 83v1117c0 54.667 27.333 82 82 82h58c54.667 0 82 -27.333 82 -82v-1117z" />
    <glyph glyph-name="m" unicode="m" horiz-adv-x="2183" 
d="M2046 75c0 -55.333 -27.335 -82.999 -82.002 -82.999h-58c-55.333 0 -83 27.667 -83 83v622c0 78 -83 117 -249 117h-147c-148 0 -222 -48.667 -222 -146v-593c0 -55.333 -27.667 -83 -83 -83h-58c-55.333 0 -83 27.667 -83 83v596c0 59.333 -21 99.666 -63 120.999
c-29.333 14.667 -77.666 22 -144.999 22h-147c-178 0 -267 -39.667 -267 -119v-620c0 -55.333 -27.333 -83 -82 -83h-58c-54.667 0 -82 27.667 -82 83v597c0 219.333 161.333 329 484 329h152c122.667 0 231.334 -28.667 326.001 -86c94.667 57.333 203.667 86 327 86h154
c310.667 0 466 -109.667 466 -329v-597z" />
    <glyph glyph-name="n" unicode="n" horiz-adv-x="1650" 
d="M1514 75c0 -55.333 -27.668 -83 -83.001 -83h-58c-55.333 0 -83 27.667 -83 83v642c0 39.333 -24.333 66 -73 80c-39.333 11.333 -108.666 17 -207.999 17h-362c-103.333 0 -174.333 -5.33301 -213 -16c-50 -14 -75 -41.333 -75 -82v-641c0 -55.333 -27.333 -83 -82 -83
h-58c-54.667 0 -82 27.667 -82 83v639c0 191.333 169.667 287 509 287h363c336.667 0 505 -95 505 -285v-641z" />
    <glyph glyph-name="o" unicode="o" horiz-adv-x="1650" 
d="M1514 305c0 -116.667 -59.333 -202.333 -178 -257c-80.667 -37.333 -185.667 -56 -315 -56h-369c-238 0 -395.667 59 -473 177c-28 42.667 -42 88 -42 136v372c0 82 38.333 153 115 213c94 74 227 111 399 111h370c328.667 0 493 -107.333 493 -322v-374zM1288 305.001
l0.000976562 388.999c0 80 -91 120 -273 120h-361c-65.333 0 -124.333 -8 -177 -24c-78.667 -24 -118 -61.667 -118 -113v-372c0 -49.333 40 -84.666 120 -105.999c52 -14 110.667 -21 176 -21h361c57.333 0 111.666 8 162.999 24c72.667 22.667 109 57 109 103z" />
    <glyph glyph-name="p" unicode="p" horiz-adv-x="1669" 
d="M1532 313c0 -208.667 -160 -313.001 -480 -313.001h-693v-205c0 -54.667 -27.333 -82 -82 -82h-58c-54.667 0 -82 27.333 -82 82v906c0 122.667 57.667 207.334 173 254.001c76 30.667 187.333 46 334 46h354c356 0 534 -99 534 -297v-391zM1307 309.999v391
c0 53.333 -41.333 88 -124 104c-34.667 6.66699 -95.667 10 -183 10h-346c-196.667 0 -295 -39.667 -295 -119v-511h693c170 0 255 41.667 255 125z" />
    <glyph glyph-name="q" unicode="q" horiz-adv-x="1669" 
d="M1532 -205c0 -54.667 -27.333 -82 -82 -82h-61c-54.667 0 -82 27.333 -82 82v205h-689c-320.667 -0 -481 104.333 -481 313v390c0 198.667 177.667 298 533 298h356c144 0 254.667 -15.667 332 -47c116 -46.667 174 -130.667 174 -252v-907zM1307 185v512
c0 78.667 -97.333 118 -292 118h-347c-206 0 -309 -38 -309 -114v-391c0 -83.333 85 -125 255 -125h693z" />
    <glyph glyph-name="r" unicode="r" horiz-adv-x="896" 
d="M796 896c0 -54.667 -27.6689 -82 -83.002 -82h-102c-166 0 -249 -42 -249 -126v-613c0 -55.333 -27.333 -83 -82 -83h-61c-54.667 0 -82 28 -82 84l3 612c0.666992 113.333 56.334 197 167.001 251c84.667 41.333 190.334 62 317.001 62h89c55.333 0 83 -27.667 83 -83
v-22z" />
    <glyph glyph-name="s" unicode="s" horiz-adv-x="1501" 
d="M1409 280c0 -192 -146.667 -288 -440 -288h-751c-54.667 0 -82 27.667 -82 83v20c0 55.333 27.333 83 82 83h753c138.667 0 208 34 208 102v38c0 61.333 -63.333 92 -190 92h-361c-140 0 -247 13.667 -321 41c-117.333 43.333 -176 122 -176 236v55
c0 172.667 159.667 259 479 259h164c55.333 0 83 -27.667 83 -83v-22c0 -54.667 -27.667 -82 -83 -82h-160c-84 0 -134 -1 -150 -3c-74 -9.33301 -111 -32.333 -111 -69v-53c0 -36 24.667 -60.667 74 -74c39.333 -10.667 107 -16 203 -16h368c274 0 411 -91 411 -273v-46z
" />
    <glyph glyph-name="t" unicode="t" horiz-adv-x="944" 
d="M138 807c-55.333 0 -83 27.667 -83 83v21c0 54.667 27.667 82 83 82h78v199c0 54.667 27.333 82 82 82h58c54.667 0 82 -27.333 82 -82v-199h352c55.333 0 83 -27.333 83 -82v-21c0 -55.333 -27.667 -83 -83 -83h-352v-732c0 -55.333 -27.333 -83 -82 -83h-58
c-54.667 0 -82 27.667 -82 83v732h-78z" />
    <glyph glyph-name="u" unicode="u" 
d="M1547 293c0 -112.667 -66 -194.667 -198 -246c-94 -36.667 -207.333 -55 -340 -55h-331c-360.667 0 -541 100.333 -541 301v625c0 55.333 27.333 83 82 83h58c54.667 0 82 -27.667 82 -83v-625c0 -76.667 106.333 -115 319 -115h331c208.667 0 313 37.333 313 112v628
c0 55.333 27.333 83 82 83h60c55.333 0 83 -27.667 83 -83v-625z" />
    <glyph glyph-name="v" unicode="v" horiz-adv-x="1661" 
d="M1629 866l-707 -854c-24 -28.667 -52.333 -43 -85 -43c-32 0 -59.333 13.667 -82 41l-711 856c-19.333 23.333 -29 46 -29 68c0 44.667 31 67 93 67h63c26 0 47.333 -10 64 -30l603 -735l600 735c16 20 37.333 30 64 30h63c62 0 93 -22.333 93 -67
c0 -22 -9.66699 -44.667 -29 -68z" />
    <glyph glyph-name="w" unicode="w" horiz-adv-x="2056" 
d="M2047 881l-411.998 -799c-24 -46.667 -69 -70 -135 -70c-63.333 0 -107 22.667 -131 68l-327 614l-333 -616c-24.667 -46 -70 -69 -136 -69c-68 0 -114 24 -138 72l-403 800c-10 20 -15 38.333 -15 55c0 43.333 29.667 65 89 65h60c33.333 0 57.666 -15 72.999 -45
l341 -659l333 614c26.667 49.333 69.667 74 129 74c57.333 0 99.333 -24.333 126 -73l333 -615l339 659c15.333 30 39.666 45 72.999 45h61c59.333 0 89 -22 89 -66c0 -15.333 -5.33301 -33.333 -16 -54z" />
    <glyph glyph-name="x" unicode="x" horiz-adv-x="1436" 
d="M1391 142c30.667 -22.667 46.001 -48.334 46.001 -77.001c0 -48.667 -31.667 -73 -95 -73h-66c-18 0 -34.333 5.33301 -49 16l-496 363l-502 -363c-14.667 -10.667 -30.667 -16 -48 -16h-69c-63.333 0 -95 24.333 -95 73c0 28.667 15.667 54.334 47 77.001l495 354
l-489 355c-30.667 22 -46 47.667 -46 77c0 48.667 31.667 73 95 73h70c18 0 34.333 -5.33301 49 -16l494 -362l483 361c15.333 11.333 31.666 17 48.999 17h67c62.667 0 94 -24.333 94 -73c0 -28.667 -15 -54 -45 -76l-478 -353z" />
    <glyph glyph-name="y" unicode="y" horiz-adv-x="1661" 
d="M1524 7c0 -196 -159 -294 -477 -294h-179c-55.333 0 -83 27.333 -83 82v26c0 55.333 27.667 83 83 83h181c168 0 252 32 252 96h-663c-334 -0 -501 100.333 -501 301v617c0 55.333 27.333 83 82 83h58c54.667 0 82 -27.667 82 -83v-617c0 -77.333 93 -116 279 -116h663
v733c0 55.333 27.667 83 83 83h58c54.667 0 82 -27.667 82 -83v-911z" />
    <glyph glyph-name="z" unicode="z" horiz-adv-x="1614" 
d="M1522 75c0 -55.333 -27.667 -82.999 -83 -82.999h-1167c-39.333 0 -73.333 9.33301 -102 28c-32.667 21.333 -49 50.666 -49 87.999c0 38.667 19 70.334 57 95.001l1140 737c28.667 18.667 56.667 28 84 28c28 0 51.333 -10.167 70 -30.5s28 -44.5 28 -72.5
c0 -26.667 -9.66699 -46.334 -29 -59.001l-959 -625l927 -3c55.333 0 83 -27.667 83 -83v-20z" />
    <glyph glyph-name="braceleft" unicode="{" horiz-adv-x="805" 
d="M623 -175h-90c-66 0 -122.333 9.33301 -169 28c-64.667 26 -97 67.333 -97 124v544c0 15.333 -13.667 26.333 -41 33c-50 12 -75 37.333 -75 76c0 36.667 23.333 63.667 70 81c16 6 26.333 10.333 31 13c10 6 15 13.667 15 23v541c0 102.667 88.333 154 265 154h91
c62.667 0 94 -29.333 94 -88c0 -57.333 -31.333 -86 -94 -86h-111l-2 -520c0 -45.333 -17.333 -83.333 -52 -114c34.667 -30.667 52 -69 52 -115l2 -527h111c50.667 0 76 -28.667 76 -86c0 -54 -25.333 -81 -76 -81z" />
    <glyph glyph-name="bar" unicode="|" horiz-adv-x="509" 
d="M371 -205c0 -55.333 -27.667 -83 -83 -83h-69c-54.667 0 -82 27.667 -82 83v1507c0 54.667 27.333 82 82 82h69c55.333 0 83 -27.333 83 -82v-1507z" />
    <glyph glyph-name="braceright" unicode="}" horiz-adv-x="805" 
d="M587 711c46 -16 69.001 -42.999 69.001 -80.999c0 -38.667 -25 -64 -75 -76c-27.333 -6.66699 -41 -17.667 -41 -33v-544c0 -56.667 -32.333 -98 -97 -124c-46 -18.667 -102 -28 -168 -28h-91c-50.667 0 -76 27 -76 81c0 57.333 25.333 86 76 86h112l1 527
c0 45.333 17.667 83.666 53 114.999c-35.333 31.333 -53 69.333 -53 114l-1 520h-112c-62 0 -93 29 -93 87s31 87 93 87h91c65.333 0 121.666 -9.66699 168.999 -29c64 -26 96 -67.667 96 -125v-541c0 -13.333 15.667 -25.333 47 -36z" />
    <glyph glyph-name="glyph168" unicode="~" horiz-adv-x="1757" 
d="M1577 633c-140.667 -96.667 -274.665 -145 -401.998 -145c-30.667 0 -62 3.16699 -94 9.5s-68.5 16.333 -109.5 30l-93.5 31.5c-71.333 24 -127 41.333 -167 52s-83.333 16 -130 16c-60.667 0 -122.834 -13.5 -186.501 -40.5s-133.834 -67.5 -210.501 -121.5v160
c144.667 98 277.667 159 399 183c86 -24 187.667 -51 305 -81c38.667 -26.667 73.667 -45.5 105 -56.5s62.333 -20 93 -27s61 -10.5 91 -10.5c62.667 0 126 13.333 190 40s134 66.667 210 120v-160z" />
    <glyph glyph-name="exclamdown" unicode="&#xa1;" horiz-adv-x="582" 
d="M442 965c0 -14.667 -5.16699 -27.334 -15.5 -38.001s-22.833 -16 -37.5 -16h-196c-15.333 0 -28.166 5.33301 -38.499 16s-15.5 23.334 -15.5 38.001v200c0 14.667 5.16699 27.334 15.5 38.001s23.166 16 38.499 16h196c14.667 0 27.167 -5.33301 37.5 -16
s15.5 -23.334 15.5 -38.001v-200zM442 -281h-303l34 1054h235z" />
    <glyph glyph-name="glyph234" unicode="&#xa3;" horiz-adv-x="1149" 
d="M14 0l0.000976562 191h53c64 0 113.833 25.167 149.5 75.5s53.5 123.5 53.5 219.5v227h-125v186h125v105c0 77.333 10.333 147.333 31 210s50.5 115.334 89.5 158.001s86.5 75.167 142.5 97.5s118.667 33.5 188 33.5c78 0 152.333 -13.333 223 -40l-55 -156
c-60 23.333 -115.333 35 -166 35c-82 0 -145.833 -28.333 -191.5 -85s-68.5 -136.334 -68.5 -239.001v-119h239v-186h-239v-215c0 -77.333 -6.16699 -139.833 -18.5 -187.5s-35.5 -87.5 -69.5 -119.5h233c66 0 119.667 11.833 161 35.5s71.666 60.667 90.999 111
s29 116.166 29 197.499v133h194v-191c0 -151.333 -35.5 -268.666 -106.5 -351.999s-169.167 -125 -294.5 -125h-668z" />
    <glyph glyph-name="currency" unicode="&#xa4;" horiz-adv-x="979" 
d="M855 456l-93.999 -94l-99 101c-52.667 -36.667 -110.334 -55 -173.001 -55c-62 0 -119.333 18.333 -172 55l-101 -101l-92 94l99 101c-35.333 54 -53 111.333 -53 172c0 61.333 17.667 118.666 53 171.999l-99 102l94 94l99 -102c56 37.333 113.333 56 172 56
c59.333 0 117 -18.667 173 -56l99 102l94 -94l-99 -102c35.333 -53.333 53 -110.666 53 -171.999c0 -60.667 -17.667 -118 -53 -172zM489.001 563c46.667 0 86.334 16.333 119.001 49s49 71.667 49 117c0 46 -16.333 85.167 -49 117.5s-72.334 48.5 -119.001 48.5
c-46 0 -85.333 -16.167 -118 -48.5s-49 -71.5 -49 -117.5s16.333 -85.167 49 -117.5s72 -48.5 118 -48.5z" />
    <glyph glyph-name="glyph235" unicode="&#xa5;" horiz-adv-x="1171" 
d="M887 991h240v-98h-285l-78 -158h363v-96h-410l-37 -74v-567h-188v567l-37 74h-412v96h363l-78 158h-285v98h238l-238 482h191l352 -717l352 717h189z" />
    <glyph glyph-name="section" unicode="&#xa7;" horiz-adv-x="952" 
d="M393 -223c-113.333 0 -228 15.668 -344 47.001v156c135.333 -38.667 239 -58 311 -58c93.333 0 156.333 12 189 36s49 60.667 49 110c0 53.333 -14.167 93.5 -42.5 120.5s-83.833 57.167 -166.5 90.5c-141.333 56.667 -228.5 109.5 -261.5 158.5
s-49.5 110.833 -49.5 185.5c0 64.667 16.667 121.667 50 171s83.666 91.333 150.999 126c-60 31.333 -104.833 68.333 -134.5 111s-44.5 91 -44.5 145c0 104 39.167 183.833 117.5 239.5s186.833 83.5 325.5 83.5c106.667 0 209 -13 307 -39v-155
c-117.333 32.667 -207.333 49 -270 49c-70 0 -122.333 -10.833 -157 -32.5s-52 -53.834 -52 -96.501s11.5 -76.334 34.5 -101.001s75.5 -54 157.5 -88c149.333 -60 241.333 -116.5 276 -169.5s52 -118.5 52 -196.5c0 -122.667 -54.667 -222.334 -164 -299.001
c50.667 -29.333 86.834 -63.166 108.501 -101.499s32.5 -87.166 32.5 -146.499c0 -116.667 -38.667 -203.5 -116 -260.5s-197 -85.5 -359 -85.5zM553 455.001c68 47.333 102.001 104.001 102.001 170.001c0 58 -14.5 101 -43.5 129s-83.167 57.333 -162.5 88
c-90.667 -46 -136 -105.333 -136 -178c0 -50.667 15.167 -88.834 45.5 -114.501s95.166 -57.167 194.499 -94.5z" />
    <glyph glyph-name="dieresis" unicode="&#xa8;" horiz-adv-x="1682" 
d="M1580 636l-1.99902 -27c-4 -52 -31.333 -78 -82 -78h-1125v-211c0 -90.667 100 -136 300 -136h825c54.667 0 82 -27.667 82 -83v-26c0 -55.333 -27.333 -83 -82 -83h-836c-26 0 -58.333 2 -97 6c-284 29.333 -426 134 -426 314v635c0 120 69.667 209.333 209 268
c93.333 39.333 204.666 59 333.999 59h228c54.667 0 82 -27.333 82 -82v-26c0 -55.333 -27.333 -83 -82 -83h-237l-65 -4c-158.667 -10 -238 -54 -238 -132v-224h1129c59.333 0 87 -29 83 -87zM451.001 1517h207c37.333 0 56 -18.667 56 -56v-76
c0 -37.333 -18.667 -56 -56 -56h-207c-37.333 0 -56 18.667 -56 56v76c0 37.333 18.667 56 56 56zM1051 1517h207c37.333 0 56 -18.667 56 -56v-76c0 -37.333 -18.667 -56 -56 -56h-207c-37.333 0 -56 18.667 -56 56v76c0 37.333 18.667 56 56 56z" />
    <glyph glyph-name="glyph150" unicode="&#xa9;" horiz-adv-x="1757" 
d="M879 1510c212.667 0 393 -74 541 -222c70.667 -70.667 125.167 -152.5 163.5 -245.5s57.5 -190.5 57.5 -292.5c0 -68.667 -8.33301 -134.667 -25 -198s-41.667 -123.5 -75 -180.5s-73 -108.5 -119 -154.5c-155.333 -151.333 -336.333 -227 -543 -227s-385 75 -535 225
c-72.667 73.333 -128 155.666 -166 246.999s-57 187.333 -57 288s19.167 197.334 57.5 290.001s94.166 176 167.499 250c146.667 146.667 324.334 220 533.001 220zM1538 750c0 90 -16.165 174.834 -48.498 254.501s-78.833 150.5 -139.5 212.5
c-130.667 128 -287 192 -469 192c-89.333 0 -173.333 -16.167 -252 -48.5s-149 -78.833 -211 -139.5c-62.667 -64 -111.167 -137 -145.5 -219s-51.5 -166 -51.5 -252c0 -178 65 -333 195 -465c41.333 -40.667 87.166 -75.667 137.499 -105s103 -51.333 158 -66
s111.5 -22 169.5 -22c85.333 0 168.166 16.667 248.499 50s153.833 81.666 220.5 144.999c60.667 60.667 107.167 130.5 139.5 209.5s48.5 163.5 48.5 253.5zM1086 936.001c-8 52.667 -30.501 93.167 -67.501 121.5s-84.833 42.5 -143.5 42.5
c-71.333 0 -127.833 -30.667 -169.5 -92s-62.5 -147.333 -62.5 -258c0 -108.667 21.5 -192.834 64.5 -252.501s102.167 -89.5 177.5 -89.5c56 0 102.833 16.167 140.5 48.5s61.167 76.833 70.5 133.5h149c-4 -58.667 -21.833 -111.167 -53.5 -157.5
s-74.667 -82.166 -129 -107.499s-115.5 -38 -183.5 -38c-82 0 -153.333 18.333 -214 55s-107.167 90.5 -139.5 161.5s-48.5 155.167 -48.5 252.5c0 90.667 17.333 171 52 241s83 123.833 145 161.5s132.333 56.5 211 56.5c64.667 0 122.834 -11.833 174.501 -35.5
s93 -56.5 124 -98.5s48.833 -90.333 53.5 -145h-151z" />
    <glyph glyph-name="glyph151" unicode="&#xae;" horiz-adv-x="1757" 
d="M879 1510c68.667 0 135.167 -8.5 199.5 -25.5s125.333 -42.167 183 -75.5s111.167 -75 160.5 -125c70 -71.333 124 -153 162 -245s57 -188.333 57 -289c0 -70 -8.5 -136.833 -25.5 -200.5s-42 -123.667 -75 -180s-73.167 -107.833 -120.5 -154.5
c-49.333 -48 -103.5 -88.833 -162.5 -122.5s-120.667 -59.167 -185 -76.5s-128.833 -26 -193.5 -26c-208.667 0 -387.667 75.667 -537 227c-147.333 151.333 -221 329 -221 533c0 100.667 20 198.167 60 292.5s96.333 178.5 169 252.5c70 70.667 150 124.167 240 160.5
s186.333 54.5 289 54.5zM1538 744c0 187.333 -62.002 344.332 -186.002 470.999c-130 129.333 -287 194 -471 194c-183.333 0 -337 -62 -461 -186c-132.667 -137.333 -199 -295 -199 -473c0 -86 16.667 -168.667 50 -248s81 -151 143 -215
c40.667 -40.667 86.167 -75.667 136.5 -105s102.833 -51.666 157.5 -66.999s110.334 -23 167.001 -23c180.667 0 338.334 64.333 473.001 193c126.667 124.667 190 277.667 190 459zM898.998 1194c239.333 0 359 -78.334 359 -235.001c0 -61.333 -17 -112.166 -51 -152.499
s-82 -66.833 -144 -79.5l191 -393h-181l-176 367h-159v-367h-162v860h323zM870.998 1090h-133v-285h137c76 0 131.167 10.333 165.5 31s51.5 56 51.5 106c0 52 -17.667 89.667 -53 113s-91.333 35 -168 35z" />
    <glyph glyph-name="twosuperior" unicode="&#xb2;" horiz-adv-x="1651" 
d="M1527 479c0 -61.333 -20.668 -92 -62.001 -92h-1104c0 -139.333 96 -209 288 -209h166c54.667 0 82 -27.667 82 -83v-20c0 -55.333 -27.333 -83 -82 -83h-142c-142 0 -258 18.667 -348 56c-128.667 53.333 -193 141 -193 263v371c0 116.667 63.667 203 191 259
c92.667 40.667 206.334 61 341.001 61h415c112 0 208.333 -19 289 -57c106 -50 159 -124.333 159 -223v-243zM1311 580v124c0 38 -42.667 67.333 -128 88c-60 14.667 -117.333 22 -172 22h-322c-223.333 0 -335 -39.333 -335 -118v-116h957zM423.999 1260h189
c37.333 0 56 -18.667 56 -56v-66c0 -37.333 -18.667 -56 -56 -56h-189c-37.333 0 -56 18.667 -56 56v66c0 37.333 18.667 56 56 56zM1054 1260h189c37.333 0 56 -18.667 56 -56v-66c0 -37.333 -18.667 -56 -56 -56h-189c-37.333 0 -56 18.667 -56 56v66
c0 37.333 18.667 56 56 56z" />
    <glyph glyph-name="cedilla" unicode="&#xb8;" horiz-adv-x="1651" 
d="M1527 479c0 -61.333 -20.668 -92 -62.001 -92h-1104c0 -139.333 96 -209 288 -209h166c54.667 0 82 -27.667 82 -83v-20c0 -55.333 -27.333 -83 -82 -83h-142c-142 0 -258 18.667 -348 56c-128.667 53.333 -193 141 -193 263v371c0 116.667 63.667 203 191 259
c92.667 40.667 206.334 61 341.001 61h415c112 0 208.333 -19 289 -57c106 -50 159 -124.333 159 -223v-243zM1311 580v124c0 38 -42.667 67.333 -128 88c-60 14.667 -117.333 22 -172 22h-322c-223.333 0 -335 -39.333 -335 -118v-116h957zM405.999 1260h222
c37.333 0 56 -18.667 56 -56v-70c0 -37.333 -18.667 -56 -56 -56h-222c-37.333 0 -56 18.667 -56 56v70c0 37.333 18.667 56 56 56zM975.999 1260h222c37.333 0 56 -18.667 56 -56v-70c0 -37.333 -18.667 -56 -56 -56h-222c-37.333 0 -56 18.667 -56 56v70
c0 37.333 18.667 56 56 56z" />
    <glyph glyph-name="threequarters" unicode="&#xbe;" horiz-adv-x="1997" 
d="M157 107c0 33.333 11.998 62.166 35.998 86.499s53 36.5 87 36.5c34.667 0 63.834 -12.167 87.501 -36.5s35.5 -53.166 35.5 -86.499s-12 -61.833 -36 -85.5s-53 -35.5 -87 -35.5c-33.333 0 -62.166 11.833 -86.499 35.5s-36.5 52.167 -36.5 85.5zM859.998 107
c0 33.333 11.8311 62.166 35.498 86.499s52.834 36.5 87.501 36.5c34 0 63 -12.167 87 -36.5s36 -53.166 36 -86.499s-12.167 -61.833 -36.5 -85.5s-53.166 -35.5 -86.499 -35.5c-34 0 -63 11.833 -87 35.5s-36 52.167 -36 85.5zM1564 107
c0 33.333 11.998 62.166 35.998 86.499s53 36.5 87 36.5c34.667 0 63.834 -12.167 87.501 -36.5s35.5 -53.166 35.5 -86.499s-12 -61.833 -36 -85.5s-53 -35.5 -87 -35.5c-33.333 0 -62.166 11.833 -86.499 35.5s-36.5 52.167 -36.5 85.5z" />
    <glyph glyph-name="questiondown" unicode="&#xbf;" horiz-adv-x="795" 
d="M575 1219c15.333 0 28.166 -5.33301 38.499 -16s15.5 -23.334 15.5 -38.001v-200c0 -14.667 -5.16699 -27.334 -15.5 -38.001s-23.166 -16 -38.499 -16h-196c-14.667 0 -27.167 5.33301 -37.5 16s-15.5 23.334 -15.5 38.001v200c0 14.667 5.16699 27.334 15.5 38.001
s22.833 16 37.5 16h196zM754 -246c-92 -24.667 -180.332 -37 -264.999 -37c-147.333 0 -255.333 28.167 -324 84.5s-103 142.166 -103 257.499c0 72.667 12.167 134 36.5 184s59.833 102.667 106.5 158c56.667 68 93.667 119.167 111 153.5s26 72.833 26 115.5v103h271v-107
c0 -50.667 -9.16699 -102.334 -27.5 -155.001s-66.833 -126.667 -145.5 -222c-36.667 -43.333 -63.834 -84.166 -81.501 -122.499s-26.5 -74.166 -26.5 -107.499c0 -63.333 16.833 -112 50.5 -146s82.167 -51 145.5 -51c54 0 129.333 13 226 39v-147z" />
    <glyph glyph-name="Agrave" unicode="&#xc0;" horiz-adv-x="1903" 
d="M1859 111c2 -10 3 -20.333 3 -31c0 -34.667 -11.667 -62.667 -35 -84s-52.666 -32 -87.999 -32c-36.667 0 -69.667 21.333 -99 64l-207 302h-986l-207 -302c-6.66699 -12.667 -13 -21.667 -19 -27c-14.667 -14 -32.334 -21 -53.001 -21c-44.667 0 -77.667 16 -99 48
c-9.33301 14 -14 27.333 -14 40c0 8.66699 1.33301 15.667 4 21l739 1130c32 48.667 79.667 71.667 143 69c75.333 -2.66699 120.333 -25.667 135 -69zM1296 523l-355 523l-357 -523h712z" />
    <glyph glyph-name="Aacute" unicode="&#xc1;" horiz-adv-x="1682" 
d="M1492 629l79.002 -126.999l26 -164c-6 2.66699 -26 6 -60 10c-10.667 1.33301 -34.667 0 -72 -4c-39.333 -4 -60 -8.66699 -62 -14c6 12 1 35.667 -15 71c-4 18 -14 40.333 -30 67c-54.667 42 -101.334 63 -140.001 63h-847v-211c0 -90.667 100 -136 300 -136h547
c6 0 24 5.66699 54 17c62.667 23.333 100 53.666 112 90.999c7.33301 21.333 13.666 34 18.999 38c20 14 59.333 21 118 21c50 0 75.333 -4.33301 76 -13c2.66699 -28 -7.33301 -71.667 -30 -131l-52 -63l-86 -71c-24.667 -20 -58 -38.333 -100 -55
c-44 -17.333 -81 -26 -111 -26h-558c-26 0 -58.333 2 -97 6c-284 29.333 -426 134 -426 314v635c0 120 69.667 209.333 209 268c93.333 39.333 204.666 59 333.999 59h228c54.667 0 82 -27.333 82 -82v-26c0 -55.333 -27.333 -83 -82 -83h-237l-65 -4
c-158.667 -10 -238 -54 -238 -132v-224h851c32.667 0 81.334 -9.66699 146.001 -29c70.667 -21.333 113 -43 127 -65z" />
    <glyph glyph-name="Acircumflex" unicode="&#xc2;" horiz-adv-x="1879" 
d="M1747 333c0 -147.333 -81.001 -247.335 -243.001 -300.002c-49.333 -16 -107.333 -27.667 -174 -35c-36.667 -4 -68.667 -6 -96 -6h-992c-54.667 0 -82 27.667 -82 83v1117c0 54.667 27.333 82 82 82h963c108.667 0 191.334 -6.33301 248.001 -19
c80.667 -18 148 -52.333 202 -103c61.333 -56.667 92 -123.667 92 -201v-99c0 -77.333 -27.333 -141.666 -82 -192.999c-8 -7.33301 -12 -15.666 -12 -24.999c0 -6 2 -12.667 6 -20l6 -9c54.667 -50.667 82 -114.667 82 -192v-80zM1519 841.998l-6 108
c-4.66699 88.667 -105.667 133 -303 133h-811v-360h820c144.667 0 238.334 23.333 281.001 70c13.333 14.667 19.666 31 18.999 49zM1513 408.998c1.33301 81.333 -95.333 122 -290 122h-829v-347h813c180.667 0 282 40.333 304 121z" />
    <glyph glyph-name="Atilde" unicode="&#xc3;" horiz-adv-x="1640" 
d="M1592 1191c0 55.333 -27.667 83 -83 83h-734c-146.667 0 -244.667 -5 -294 -15c-229.333 -46.667 -344 -154 -344 -322v-863c0 -54.667 27.333 -82 82 -82h69c55.333 0 83 27.333 83 82v863c0 68.667 54.333 113 163 133c43.333 8 123 12 239 12h736
c55.333 0 83 27.667 83 83v26z" />
    <glyph glyph-name="Adieresis" unicode="&#xc4;" horiz-adv-x="1873" 
d="M1735 338c0 -59.333 -11.334 -107.333 -34.001 -144l3 7c-35.333 -72.667 -108 -127.667 -218 -165c-86 -29.333 -178.667 -44 -278 -44h-989c-54.667 0 -82 27.667 -82 83v1117c0 54.667 27.333 82 82 82h995c66.667 0 123.334 -4 170.001 -12
c234 -40 351 -145 351 -315v-609zM1503 339v607c0 52 -44.333 91.667 -133 119c-38.667 12 -93 18 -163 18h-836v-899h832c174.667 0 273.667 42 297 126c2 7.33301 3 17 3 29z" />
    <glyph glyph-name="Aring" unicode="&#xc5;" horiz-adv-x="1682" 
d="M1580 636l-1.99902 -27c-4 -52 -31.333 -78 -82 -78h-1125v-211c0 -90.667 100 -136 300 -136h825c54.667 0 82 -27.667 82 -83v-26c0 -55.333 -27.333 -83 -82 -83h-836c-26 0 -58.333 2 -97 6c-284 29.333 -426 134 -426 314v635c0 120 69.667 209.333 209 268
c93.333 39.333 204.666 59 333.999 59h228c54.667 0 82 -27.333 82 -82v-26c0 -55.333 -27.333 -83 -82 -83h-237l-65 -4c-158.667 -10 -238 -54 -238 -132v-224h1129c59.333 0 87 -29 83 -87z" />
    <glyph glyph-name="AE" unicode="&#xc6;" horiz-adv-x="1634" 
d="M1582 138c27.333 -23.333 40.999 -48.332 40.999 -74.999c0 -47.333 -31.667 -71 -95 -71c-8 -1.33301 -19.667 -2 -35 -2c-42.667 0 -72.667 7.33301 -90 22l-583 492l-589 -492c-17.333 -14.667 -48.333 -22 -93 -22c-13.333 0 -24 0.666992 -32 2
c-63.333 0 -95 24 -95 72c0 26 13.667 50.667 41 74l601 506l-581 485c-28 23.333 -42 48.333 -42 75c0 46.667 31.667 70 95 70h71c20.667 0 38.334 -6 53.001 -18l571 -477l567 476c15.333 12.667 33 19 53 19h69c62.667 0 94 -23.667 94 -71
c0 -26.667 -13.667 -51.334 -41 -74.001l-577 -485zM819.999 504.001l113 -92l-1 -337c0 -55.333 -27.667 -83 -83 -83h-69c-54.667 0 -82 27.667 -82 83v322zM819.999 779.001l-122 100v313c0 54.667 27.333 82 82 82h69c55.333 0 83 -27.333 83 -82l1 -317z" />
    <glyph glyph-name="Ccedilla" unicode="&#xc7;" horiz-adv-x="1925" 
d="M1772 329c0 -126.667 -63.333 -218.333 -190 -275c-92 -41.333 -210.333 -62 -355 -62h-1015c-54.667 0 -82 27.667 -82 83v26c0 55.333 27.333 83 82 83h1015c207.333 0 311 45.333 311 136v121c0 71.333 -100.333 107 -301 107h-1025c-54.667 0 -82 27.667 -82 83v28
c0 54.667 27.333 82 82 82h1026c200 0 300 38.333 300 115v121c0 51.333 -42.333 84 -127 98c-32 5.33301 -93.333 8 -184 8h-211c-54.667 0 -82 27.667 -82 83v26c0 54.667 27.333 82 82 82h211c156.667 0 274.667 -14.333 354 -43c127.333 -46 191 -133.333 191 -262v-118
c0 -84 -36.667 -151.333 -110 -202c73.333 -52 110 -120.333 110 -205v-115z" />
    <glyph glyph-name="Egrave" unicode="&#xc8;" horiz-adv-x="1862" 
d="M137 129c0 -59.333 15.333 -99.667 46 -121c22 -15.333 58.333 -23 109 -23c20 0 43.667 10 71 30c4 2.66699 16 12.667 36 30l1091 928v-898c0 -55.333 27.667 -83 83 -83h69c54.667 0 82 27.667 82 83v1115c0 28.667 -20 54.667 -60 78c-18 10.667 -38 16 -60 16
c-32 0 -67.667 -11.333 -107 -34c-18.667 -10.667 -35 -22 -49 -34l-1077 -917v893c0 54.667 -27.667 82 -83 82h-68c-55.333 0 -83 -27.333 -83 -82v-1063z" />
    <glyph glyph-name="Eacute" unicode="&#xc9;" horiz-adv-x="1862" 
d="M137 129c0 -59.333 15.333 -99.667 46 -121c22 -15.333 58.333 -23 109 -23c20 0 43.667 10 71 30c4 2.66699 16 12.667 36 30l1091 928v-898c0 -55.333 27.667 -83 83 -83h69c54.667 0 82 27.667 82 83v1115c0 28.667 -20 54.667 -60 78c-18 10.667 -38 16 -60 16
c-32 0 -67.667 -11.333 -107 -34c-18.667 -10.667 -35 -22 -49 -34l-1077 -917v893c0 54.667 -27.667 82 -83 82h-68c-55.333 0 -83 -27.333 -83 -82v-1063zM741 1463h369.001c69.333 0 113.666 -9.33301 132.999 -28c11.333 -10.667 17 -33.334 17 -68.001
c0 -36 -5 -59 -15 -69c-18.667 -18.667 -63.667 -28 -135 -28h-369c-70 0 -114.667 9.33301 -134 28c-10.667 10.667 -16 33.667 -16 69c0 34.667 5.33301 57.334 16 68.001c19.333 18.667 64 28 134 28z" />
    <glyph glyph-name="Ecircumflex" unicode="&#xca;" horiz-adv-x="1676" 
d="M1509 148c37.333 -20 56 -46.668 56 -80.001c0 -50.667 -31.333 -76 -94 -76h-83c-13.333 0 -26.333 3.33301 -39 10l-984 519v-446c0 -55.333 -27.667 -83 -83 -83h-63c-54.667 0 -82 27.667 -82 83v1117c0 54.667 27.333 82 82 82h63c55.333 0 83 -27.333 83 -82v-431
l948 504c18 6 31 9 39 9h88c62.667 0 94 -25.333 94 -76c0 -33.333 -18.667 -59.666 -56 -78.999l-907 -475z" />
    <glyph glyph-name="Edieresis" unicode="&#xcb;" horiz-adv-x="1851" 
d="M1827 119l-758.002 1078c-19.333 28 -37.666 47 -54.999 57c-24 14 -52 21 -84 21c-40.667 0 -76.334 -12.667 -107.001 -38c-10.667 -8.66699 -22 -21.667 -34 -39l-759 -1079c-16 -22.667 -24 -44 -24 -64c0 -43.333 30.333 -65 91 -65h10c4 0 9.33301 -0.333008 16 -1
c58 0 95.333 12 112 36l695 992l691 -992c16.667 -24 53.334 -36 110.001 -36h17c4.66699 0 8.33398 0.333008 11.001 1c60.667 5.33301 91 27.333 91 66c0 20 -7.66699 41 -23 63z" />
    <glyph glyph-name="Igrave" unicode="&#xcc;" horiz-adv-x="2430" 
d="M2294 75c0 -55.333 -27.334 -82.999 -82.001 -82.999h-70c-54.667 0 -82 27.667 -82 83v829l-689 -850c-36.667 -45.333 -86 -68 -148 -68c-62.667 0 -112.667 22.667 -150 68l-702 854v-833c0 -55.333 -27.667 -83 -83 -83h-69c-54.667 0 -82 27.667 -82 83v1076
c0 35.333 14.333 64.666 43 87.999c26.667 22 58.334 33 95.001 33c50 0 93 -21.333 129 -64l821 -971l802 973c32.667 39.333 78.667 59 138 59c86 0 129 -42.667 129 -128v-1066z" />
    <glyph glyph-name="Iacute" unicode="&#xcd;" horiz-adv-x="1873" 
d="M1735 75c0 -55.333 -27.667 -83 -83 -83h-66c-55.333 0 -83 27.667 -83 83v456h-1132v-456c0 -55.333 -27.667 -83 -83 -83h-69c-54.667 0 -82 27.667 -82 83v1117c0 54.667 27.333 82 82 82h69c55.333 0 83 -27.333 83 -82v-469h1132v469c0 54.667 27.667 82 83 82h66
c55.333 0 83 -27.333 83 -82v-1117z" />
    <glyph glyph-name="Icircumflex" unicode="&#xce;" horiz-adv-x="1824" 
d="M1688 336c0 -229.333 -198 -344 -594 -344h-364c-283.333 0 -466 63 -548 189c-30 46 -45 97.333 -45 154v591c0 232 197.333 348 592 348h365c178 0 309 -16.333 393 -49c134 -52 201 -151.667 201 -299v-590zM1454 341v580c0 108 -118.333 162 -355 162h-371
c-238 0 -357 -54 -357 -162v-580c0 -104.667 119 -157 357 -157h372c236 0 354 52.333 354 157z" />
    <glyph glyph-name="Idieresis" unicode="&#xcf;" horiz-adv-x="1873" 
d="M1735 913c0 67.333 -3.33691 112.666 -10.0039 135.999c-13.333 26.667 -27.166 52.5 -41.499 77.5s-36.166 42.5 -65.499 52.5l-109 36c-114.667 39.333 -248 59 -400 59h-328c-179.333 0 -317 -16.333 -413 -49c-50.667 -17.333 -82.667 -29.666 -96 -36.999
c-21.333 -12 -53.666 -52.667 -96.999 -122c-14 -32.667 -21 -83.667 -21 -153v-839c0 -54.667 27.333 -82 82 -82h69c55.333 0 83 27.333 83 82v824c0 58.667 8.33301 96 25 112c6.66699 4 31.334 15 74.001 33c61.333 26 160.333 39 297 39h322
c116.667 0 215.667 -11.333 297 -34c42.667 -12 67.667 -22 75 -30c16 -17.333 24 -57 24 -119v-825c0 -54.667 27.667 -82 83 -82h68c54.667 0 82 27.333 82 82v839z" />
    <glyph glyph-name="Eth" unicode="&#xd0;" horiz-adv-x="1860" 
d="M1732 789c0 -127.333 -64 -219.667 -192 -277c-93.333 -42 -212.666 -63 -357.999 -63h-811v-374c0 -55.333 -27.667 -83 -83 -83h-69c-54.667 0 -82 27.667 -82 83v1117c0 54.667 27.333 82 82 82h974c125.333 0 236.666 -18 333.999 -54
c136.667 -50.667 205 -128 205 -232v-199zM1500 796.999v175c0 74 -101.667 111 -305 111h-824v-442h825c95.333 0 166 9 212 27c61.333 24 92 67 92 129z" />
    <glyph glyph-name="Ntilde" unicode="&#xd1;" horiz-adv-x="1729" 
d="M1612 1166c0 -55.333 -27.665 -83 -82.998 -83h-832c-202 0 -303 -40.333 -303 -121v-635c0 -60.667 44.667 -103 134 -127c39.333 -10.667 106.666 -16 201.999 -16h794c54.667 0 82 -27.667 82 -83v-26c0 -55.333 -27.333 -83 -82 -83h-794
c-96 0 -163.667 2.66699 -203 8c-68.667 9.33301 -132.334 29.666 -191.001 60.999c-117.333 62.667 -176 150 -176 262v638c0 80 37.333 148.667 112 206c63.333 48.667 138 80.334 224 95.001c47.333 8 113 12 197 12h836c55.333 0 83 -27.333 83 -82v-26z" />
    <glyph glyph-name="Ograve" unicode="&#xd2;" horiz-adv-x="1450" 
d="M1452 1166c0 -55.333 -27.667 -83 -83 -83h-518v-1008c0 -55.333 -27.333 -83 -82 -83h-69c-54.667 0 -82 27.667 -82 83v1008h-515c-55.333 0 -83 27.667 -83 83v26c0 54.667 27.667 82 83 82h1266c55.333 0 83 -27.333 83 -82v-26z" />
    <glyph glyph-name="Oacute" unicode="&#xd3;" horiz-adv-x="1675" 
d="M116 692c2.66699 -37.333 43.666 -72.667 122.999 -106c68 -28.667 121.667 -43 161 -43h939v-243c0 -42 -44 -73.667 -132 -95c-60 -14.667 -120 -22 -180 -22h-159c-55.333 0 -83 -27.667 -83 -83v-26c0 -54.667 27.667 -82 83 -82h175
c164.667 0 297.334 33 398.001 99c88 57.333 132 124 132 200v900c0 55.333 -27.333 83 -82 83h-69c-55.333 0 -83 -27.667 -83 -83v-456h-896c-34 0 -73.333 6.33301 -118 19l-4 76v422c0 16 -5.5 30.667 -16.5 44s-24.167 20 -39.5 20h-100c-37.333 0 -56 -20.667 -56 -62
v-458z" />
    <glyph glyph-name="Ocircumflex" unicode="&#xd4;" horiz-adv-x="1724" 
d="M1568 426c0 -107.333 -44.999 -190 -134.999 -248c-64 -41.333 -105.333 -65.333 -124 -72c-44 -16 -112.333 -24 -205 -24h-374c-146.667 0 -267.334 18.667 -362.001 56c-147.333 58 -221 153.667 -221 287v391c0 232 194 348 582 348h375c98.667 0 170.667 -7 216 -21
c23.333 -7.33301 63 -28.333 119 -63c86 -53.333 129 -141.333 129 -264v-390zM1334 431v380.001c0 108 -95 162 -285 162h-311c-238 0 -357 -54 -357 -162v-380c0 -104.667 119 -157 357 -157h312c68 0 130.333 11 187 33c64.667 25.333 97 66.666 97 123.999z
M749.001 972.001h227v-703h-227v703zM772.001 1250h168c22 0 33 -11 33 -33v-56h-219c-10 0 -15 12.333 -15 37v19c0 22 11 33 33 33zM782.001 -8.99902l167.999 -0.000976562c22 0 33 11 33 33v56h-219c-9.33301 0 -14.666 -3 -15.999 -9
c0.666992 2.66699 1 -6.66602 1 -27.999v-19c0 -22 11 -33 33 -33z" />
    <glyph glyph-name="Otilde" unicode="&#xd5;" horiz-adv-x="1634" 
d="M1587 138c27.333 -23.333 40.999 -48.332 40.999 -74.999c0 -47.333 -31.667 -71 -95 -71c-8 -1.33301 -19.667 -2 -35 -2c-42.667 0 -72.667 7.33301 -90 22l-583 492l-589 -492c-17.333 -14.667 -48.333 -22 -93 -22c-13.333 0 -24 0.666992 -32 2
c-63.333 0 -95 24 -95 72c0 26 13.667 50.667 41 74l601 506l-581 485c-28 23.333 -42 48.333 -42 75c0 46.667 31.667 70 95 70h71c20.667 0 38.334 -6 53.001 -18l571 -477l567 476c15.333 12.667 33 19 53 19h69c62.667 0 94 -23.667 94 -71
c0 -26.667 -13.667 -51.334 -41 -74.001l-577 -485z" />
    <glyph glyph-name="Odieresis" unicode="&#xd6;" horiz-adv-x="1936" 
d="M1735 193l140.003 -1.99707c23.333 0 42.166 -9.5 56.499 -28.5s20.166 -40.167 17.499 -63.5c0 -14.667 -4.33301 -34.334 -13 -59.001c-26 -26.667 -54.333 -42.334 -85 -47.001c-8.66699 -1.33301 -40.334 -2 -95.001 -2h-35l-56 -1l-884 2
c-325.333 0 -522 60 -590 180c-24.667 43.333 -37 103.666 -37 180.999v839c0 54.667 27.333 82 82 82h69c55.333 0 83 -27.333 83 -82v-824c0 -80.667 50 -134.667 150 -162c53.333 -14.667 135.333 -22 246 -22l628 -1c49.333 0 77.333 7.66699 84 23
c4 9.33301 6 63 6 161v825c0 54.667 27.667 82 83 82h68c54.667 0 82 -27.333 82 -82v-999z" />
    <glyph glyph-name="multiply" unicode="&#xd7;" horiz-adv-x="1669" 
d="M137 1191c0 55.333 27.333 83 82 83h58c54.667 0 82 -27.667 82 -83v-567c0 -61.333 37.333 -102 112 -122c37.333 -10 99.333 -15 186 -15h653v704c0 55.333 27.333 83 82 83h58c54.667 0 82 -27.667 82 -83v-1117c0 -54.667 -27.333 -82 -82 -82h-58
c-54.667 0 -82 27.333 -82 82v227h-600c-172 0 -297 14 -375 42c-132 47.333 -198 140 -198 278v570z" />
    <glyph glyph-name="Oslash" unicode="&#xd8;" horiz-adv-x="2183" 
d="M2046 1168c0 55.333 -27.3359 83 -82.0029 83h-58c-55.333 0 -83 -27.667 -83 -83v-872c0 -78 -83 -117 -249 -117h-147c-105.333 0 -164.666 3.66699 -177.999 11c-29.333 16 -44 61 -44 135v843c0 55.333 -27.667 83 -83 83h-58c-55.333 0 -83 -27.667 -83 -83v-846
c0 -67.333 -9.66699 -107.333 -29 -120c-23.333 -15.333 -83 -23 -179 -23h-147c-178 0 -267 39.667 -267 119v870c0 55.333 -27.333 83 -82 83h-58c-54.667 0 -82 -27.667 -82 -83v-847c0 -219.333 161.333 -329 484 -329h422c6.66699 0 16.834 -0.333008 30.501 -1
s23.834 -1 30.501 -1h134l342 2c310.667 2 466 111.667 466 329v847z" />
    <glyph glyph-name="Ugrave" unicode="&#xd9;" horiz-adv-x="2183" 
d="M2046 1168c0 55.333 -27.3359 83 -82.0029 83h-58c-55.333 0 -83 -27.667 -83 -83v-872c0 -78 -83 -117 -249 -117h-147c-105.333 0 -164.666 3.66699 -177.999 11c-29.333 16 -44 61 -44 135v843c0 55.333 -27.667 83 -83 83h-58c-55.333 0 -83 -27.667 -83 -83v-846
c0 -67.333 -9.66699 -107.333 -29 -120c-23.333 -15.333 -83 -23 -179 -23h-147c-178 0 -267 39.667 -267 119v870c0 55.333 -27.333 83 -82 83h-58c-54.667 0 -82 -27.667 -82 -83v-847c0 -219.333 161.333 -329 484 -329h422c6.66699 0 16.834 -0.333008 30.501 -1
s23.834 -1 30.501 -1h134l716 3c72 0 155.333 1.66699 250 5c26.667 6 49.667 29.333 69 70c7.33301 15.333 11 27.666 11 36.999c0 16.667 -8.33301 35.667 -25 57c-8.66699 10.667 -16 17.334 -22 20.001c-17.333 7.33301 -51.333 11 -102 11h-67
c-14.667 1.33301 -22 7.33301 -22 18v957z" />
    <glyph glyph-name="Uacute" unicode="&#xda;" 
d="M1570 309c0 -154.667 -94.333 -252.668 -283 -294.001c-70 -15.333 -151 -23 -243 -23h-341c-72 0 -146 9.33301 -222 28c-214 52.667 -321 147.334 -321 284.001l1 805c-112.667 -1.33301 -169 15 -169 49v72c0 30 24.333 46 73 48l138 4c119.333 4 179 -16.667 179 -62
v-342h662c350.667 0 526 -104.333 526 -313v-256zM1348 316.999v244c0 86.667 -100 130 -300 130h-666v-386c0 -39.333 40 -71.333 120 -96c67.333 -20.667 143.333 -31 228 -31h316c113.333 0 189.333 7.33301 228 22c49.333 18.667 74 57.667 74 117z" />
    <glyph glyph-name="Ucircumflex" unicode="&#xdb;" horiz-adv-x="1965" 
d="M1570 309c0 -154.667 -94.333 -252.668 -283 -294.001c-70 -15.333 -151 -23 -243 -23h-341c-72 0 -146 9.33301 -222 28c-214 52.667 -321 147.334 -321 284.001v886c0 55.333 27.333 83 82 83h58c54.667 0 82 -27.667 82 -83v-312h662c350.667 0 526 -104.333 526 -313
v-256zM1348 316.999v244c0 86.667 -100 130 -300 130h-666v-386c0 -39.333 40 -71.333 120 -96c67.333 -20.667 143.333 -31 228 -31h316c113.333 0 189.333 7.33301 228 22c49.333 18.667 74 57.667 74 117zM1684 1282h100c16 0 29.667 -9 41 -27
c10 -15.333 15 -31.666 15 -48.999v-1130c0 -17.333 -5 -33.666 -15 -48.999c-11.333 -18 -25 -27 -41 -27h-100c-16 0 -29.667 9 -41 27c-10 15.333 -15 31.666 -15 48.999v1130c0 17.333 5 33.666 15 48.999c11.333 18 25 27 41 27z" />
    <glyph glyph-name="Udieresis" unicode="&#xdc;" 
d="M1570 309c0 -154.667 -94.333 -252.668 -283 -294.001c-70 -15.333 -151 -23 -243 -23h-341c-72 0 -146 9.33301 -222 28c-214 52.667 -321 147.334 -321 284.001v886c0 55.333 27.333 83 82 83h58c54.667 0 82 -27.667 82 -83v-312h662c350.667 0 526 -104.333 526 -313
v-256zM1348 316.999v244c0 86.667 -100 130 -300 130h-666v-386c0 -39.333 40 -71.333 120 -96c67.333 -20.667 143.333 -31 228 -31h316c113.333 0 189.333 7.33301 228 22c49.333 18.667 74 57.667 74 117z" />
    <glyph glyph-name="Yacute" unicode="&#xdd;" horiz-adv-x="1682" 
d="M137 636l1.99902 -27c4 -52 31.333 -78 82 -78h1125v-211c0 -90.667 -100 -136 -300 -136h-825c-54.667 0 -82 -27.667 -82 -83v-26c0 -55.333 27.333 -83 82 -83h836c26 0 58.333 2 97 6c284 29.333 426 134 426 314v635c0 120 -69.667 209.333 -209 268
c-93.333 39.333 -204.666 59 -333.999 59h-228c-54.667 0 -82 -27.333 -82 -82v-26c0 -55.333 27.333 -83 82 -83h237l65 -4c158.667 -10 238 -54 238 -132v-224h-1129c-59.333 0 -87 -29 -83 -87z" />
    <glyph glyph-name="Thorn" unicode="&#xde;" horiz-adv-x="1824" 
d="M437 699h-143v520c0 37.333 -18.667 56 -56 56h-107c-37.333 0 -56 -18.667 -56 -56v-1173c0 -30.667 18.667 -46 56 -46h107c37.333 -0 56 15.333 56 46v460zM437 699v227.001c0 232 197.333 348 592 348h65c178 0 309 -16.333 393 -49c134 -52 201 -151.667 201 -299
v-590c0 -229.333 -198 -344 -594 -344h-64c-283.333 0 -466 63 -548 189c-29.333 45.333 -44.333 96.666 -45 153.999l-1 171h-142zM1454 341.001v580c0 108 -118.333 162 -355 162h-71c-238 0 -357 -54 -357 -162v-580c0 -104.667 119 -157 357 -157h72
c236 0 354 52.333 354 157z" />
    <glyph glyph-name="germandbls" unicode="&#xdf;" horiz-adv-x="1814" 
d="M137 795c0 -108.667 55 -190.333 165 -245c91.333 -45.333 209 -68 353 -68h385l-781 -331c-41.333 -17.333 -62 -44.333 -62 -81c0 -52.667 31.333 -78.667 94 -78c52 0 95.333 2.33301 130 7l1066 456v-380c0 -55.333 27.667 -83 83 -83h69c54.667 0 82 27.667 82 83
v1117c0 54.667 -27.333 82 -82 82h-941c-146 0 -266 -19 -360 -57c-134 -54 -201 -143 -201 -267v-155zM371 793.001v162c0 85.333 109.333 128 328 128h788v-410h-830c-190.667 0 -286 40 -286 120z" />
    <glyph glyph-name="agrave" unicode="&#xe0;" horiz-adv-x="1739" 
d="M1614 295c0 -202 -151.668 -303 -455.001 -303h-543c-52 0 -109.333 7.33301 -172 22c-201.333 47.333 -302 137.333 -302 270v129c0 104.667 54.667 183.667 164 237c83.333 40.667 184 61 302 61h786c-11.333 68.667 -98.666 103 -261.999 103h-168
c-54.667 0 -82 27.333 -82 82v22c0 55.333 27.333 83 82 83h122c352 0 528 -103.333 528 -310v-396zM1392 284l0.000976562 240h-789c-42 0 -87.667 -7.66699 -137 -23c-68 -21.333 -102 -50.333 -102 -87v-128c0 -42 39.667 -71.667 119 -89
c27.333 -6 69.666 -12.333 126.999 -19h551c154 0 231 35.333 231 106z" />
    <glyph glyph-name="aacute" unicode="&#xe1;" horiz-adv-x="1739" 
d="M142 295c0 -202 151.668 -303 455.001 -303h543c52 0 109.333 7.33301 172 22c201.333 47.333 302 137.333 302 270v129c0 104.667 -54.667 183.667 -164 237c-83.333 40.667 -184 61 -302 61h-786c11.333 68.667 98.666 103 261.999 103h168c54.667 0 82 27.333 82 82
v22c0 55.333 -27.333 83 -82 83h-122c-352 0 -528 -103.333 -528 -310v-396zM364.001 284l-0.000976562 240h789c42 0 87.667 -7.66699 137 -23c68 -21.333 102 -50.333 102 -87v-128c0 -42 -39.667 -71.667 -119 -89c-27.333 -6 -69.666 -12.333 -126.999 -19h-551
c-154 0 -231 35.333 -231 106z" />
    <glyph glyph-name="acircumflex" unicode="&#xe2;" horiz-adv-x="1739" 
d="M1259 704l-341.003 -1c76.667 -1.33301 153.334 -2 230.001 -2h-786c12.667 75.333 100 113 262 113h168c22.667 0 56.334 0.833008 101.001 2.5s78.334 2.5 101.001 2.5c234 0 351 -26.333 351 -79c0 -24 -28.667 -36 -86 -36zM1547 847l-41.001 54.002l-37 23
c-6 3.33301 -18 10.666 -36 21.999c-27.333 11.333 -67.666 20.666 -120.999 27.999c-130 18 -303.333 27 -520 27h-122c-352 0 -528 -103.333 -528 -310v-396c0 -202 151.667 -303 455 -303h543c52 0 109.333 7.33301 172 22c201.333 47.333 302 137.333 302 270v129
c0 59.333 -31.333 114 -94 164l-70 33c-4 2 -6 4 -6 6c6.66699 6 30.667 22 72 48c30.667 50.667 46 94.667 46 132c0 20.667 -5 37.667 -15 51zM363.996 284.002l-0.000976562 240h789c42 0 87.667 -7.66699 137 -23c68 -21.333 102 -50.333 102 -87v-128
c0 -42 -39.667 -71.667 -119 -89c-27.333 -6 -69.666 -12.333 -126.999 -19h-551c-154 0 -231 35.333 -231 106z" />
    <glyph glyph-name="atilde" unicode="&#xe3;" horiz-adv-x="1182" 
d="M1096 896c0 -68 -27.667 -102 -83 -102h-102c-311.333 0 -475.333 -5.33301 -492 -16c-31.333 -20 -47 -56.667 -47 -110v-593c0 -55.333 -27.333 -83 -82 -83h-71c-54.667 0 -82 28 -82 84l3 612c0.666992 135.333 44 230.333 130 285c22 14 89 22.667 201 26
c44.667 1.33301 195.667 2 453 2h89c55.333 0 83 -27.667 83 -83v-22z" />
    <glyph glyph-name="adieresis" unicode="&#xe4;" horiz-adv-x="1669" 
d="M1532 25c0 -116 -73.3311 -201 -219.998 -255c-102.667 -38 -223.334 -57 -362.001 -57h-93c-55.333 0 -83 27.333 -83 82v22c0 54.667 27.667 82 83 82h161c39.333 0 94.333 10.667 165 32c80 24 120 47 120 69h-609c-142.667 0 -260.667 18 -354 54
c-135.333 52 -203 138 -203 258v374c0 106 54.667 187.333 164 244c91.333 47.333 202.666 71 333.999 71h327c140 0 259.667 -19.333 359 -58c140.667 -54.667 211 -141 211 -259v-659zM1307 185l-0.000976562 490c0 50.667 -41.667 88.667 -125 114
c-57.333 17.333 -118.666 26 -183.999 26h-351c-81.333 0 -140.333 -4.33301 -177 -13c-74 -17.333 -111 -54.333 -111 -111v-376c0 -86.667 110 -130 330 -130h618z" />
    <glyph glyph-name="aring" unicode="&#xe5;" horiz-adv-x="1651" 
d="M1527 479c0 -61.333 -20.668 -92 -62.001 -92h-1104c0 -139.333 96 -209 288 -209h166c54.667 0 82 -27.667 82 -83v-20c0 -55.333 -27.333 -83 -82 -83h-142c-142 0 -258 18.667 -348 56c-128.667 53.333 -193 141 -193 263v371c0 116.667 63.667 203 191 259
c92.667 40.667 206.334 61 341.001 61h415c112 0 208.333 -19 289 -57c106 -50 159 -124.333 159 -223v-243zM1311 580v124c0 38 -42.667 67.333 -128 88c-60 14.667 -117.333 22 -172 22h-322c-223.333 0 -335 -39.333 -335 -118v-116h957z" />
    <glyph glyph-name="ae" unicode="&#xe6;" horiz-adv-x="1442" 
d="M1413 112c22.667 -18 33.999 -38.333 33.999 -61c0 -38 -26.667 -57 -80 -57c-6.66699 -1.33301 -26.667 -2 -60 -2c-36 0 -61.333 6 -76 18l-495 398l-500 -398c-15.333 -12 -41.666 -18 -78.999 -18c-11.333 0 -20.333 0.666992 -27 2c-74 0 -111 19.333 -111 58
c0 21.333 11.667 41.333 35 60l510 409l-513 373c-24 17.333 -36 37.333 -36 60c0 19.333 17.667 34.333 53 45c26.667 8 52.667 12 78 12h60c17.333 0 32.333 -4.66699 45 -14l485 -367l481 366c13.333 10 28.333 15 45 15h89c52.667 0 79 -19 79 -57
c0 -22.667 -11.333 -42.667 -34 -60l-490 -373zM735.999 408l102.999 -85l2 -262c0.666992 -44.667 -22.666 -67 -69.999 -67h-79c-46.667 0 -70 22.333 -70 67l1 254zM735.998 630l-112.999 85l-1 230c0 44 23.333 66 70 66h79c47.333 0 70.666 -22 69.999 -66l-2 -235z
" />
    <glyph glyph-name="ccedilla" unicode="&#xe7;" horiz-adv-x="1620" 
d="M1491 297c0 -114 -56.333 -197.332 -169 -249.999c-76.667 -36 -175.334 -54 -296.001 -54h-849c-45.333 0 -68 27.333 -68 82v23c0 54.667 22.667 82 68 82h849c166.667 0 250 36.333 250 109v78c0 55.333 -80.667 83 -242 83h-857c-45.333 0 -68 27.667 -68 83v24
c0 54 22.667 81 68 81h858c160.667 0 241 30.333 241 91v3c0 39.333 -32 64.333 -96 75c-28 4.66699 -79.333 7 -154 7h-177c-45.333 0 -68 27.667 -68 83v22c0 54.667 22.667 82 68 82h177c130.667 0 229.334 -12.667 296.001 -38c106 -40 159 -119.333 159 -238v-1
c0 -72.667 -30.667 -131.334 -92 -176.001c68 -50 102 -109.333 102 -178v-73z" />
    <glyph glyph-name="egrave" unicode="&#xe8;" 
d="M1547 293c0 -26.667 2.33301 -117.667 7 -273c0.666992 -18.667 -33.666 -28 -102.999 -28c-76.667 0 -113 12.667 -109 38c2.66699 18 0 27.333 -8 28c-1.33301 0 -3 -0.333008 -5 -1c-110.667 -43.333 -217.334 -65 -320.001 -65h-331
c-360.667 0 -541 100.333 -541 301v625c0 55.333 27.333 83 82 83h58c54.667 0 82 -27.667 82 -83v-625c0 -76.667 106.333 -115 319 -115h331c96 0 174.333 15 235 45c52 26 78 55 78 87v608c0 55.333 27.333 83 82 83h60c55.333 0 83 -27.667 83 -83v-625z" />
    <glyph glyph-name="eacute" unicode="&#xe9;" 
d="M1547 293c0 -26.667 2.33301 -117.667 7 -273c0.666992 -18.667 -33.666 -28 -102.999 -28c-76.667 0 -113 12.667 -109 38c2.66699 18 0 27.333 -8 28c-1.33301 0 -3 -0.333008 -5 -1c-110.667 -43.333 -217.334 -65 -320.001 -65h-331
c-360.667 0 -541 100.333 -541 301v625c0 55.333 27.333 83 82 83h58c54.667 0 82 -27.667 82 -83v-625c0 -76.667 106.333 -115 319 -115h331c96 0 174.333 15 235 45c52 26 78 55 78 87v608c0 55.333 27.333 83 82 83h60c55.333 0 83 -27.667 83 -83v-625zM667 1137h319
c17.333 0 33.666 -5 48.999 -15c18 -11.333 27 -25 27 -41v-84c0 -16 -9 -29.667 -27 -41c-15.333 -10 -31.666 -15 -48.999 -15h-319c-17.333 0 -33.666 5 -48.999 15c-18 11.333 -27 25 -27 41v84c0 16 9 29.667 27 41c15.333 10 31.666 15 48.999 15z" />
    <glyph glyph-name="ecircumflex" unicode="&#xea;" horiz-adv-x="1421" 
d="M1260 149c38.667 -19.333 58 -46.332 58 -80.999c0 -50.667 -31.667 -76 -95 -76h-70c-12.667 0 -25 3 -37 9l-759 380v-306c0 -55.333 -27.333 -83 -82 -83h-56c-54.667 0 -82 27.667 -82 83v855c0 54.667 27.333 82 82 82h56c54.667 0 82 -27.333 82 -82v-320l749 374
c18 6 30.333 9 37 9h64c62.667 0 94 -25.333 94 -76c0 -34.667 -19 -61.334 -57 -80.001l-680 -339z" />
    <glyph glyph-name="edieresis" unicode="&#xeb;" horiz-adv-x="1661" 
d="M1629 104l-707 854c-24 28.667 -52.333 43 -85 43c-32 0 -59.333 -13.667 -82 -41l-711 -856c-19.333 -23.333 -29 -46 -29 -68c0 -44.667 31 -67 93 -67h63c26 0 47.333 10 64 30l603 735l600 -735c16 -20 37.333 -30 64 -30h63c62 0 93 22.333 93 67
c0 22 -9.66699 44.667 -29 68z" />
    <glyph glyph-name="igrave" unicode="&#xec;" horiz-adv-x="1614" 
d="M1560 61c0 -44.667 -18.335 -67 -55.002 -67h-77c-37.333 0 -56 22.333 -56 67v613l-466 -630c-27.333 -36.667 -60.666 -55 -99.999 -55c-41.333 0 -75 18.333 -101 55l-434 613v-596c0 -44.667 -18.667 -67 -56 -67h-87c-36.667 0 -55 22.333 -55 67v844
c0 26.667 8.83301 49.667 26.5 69s39.834 29 66.501 29c66 0 111.667 -17.333 137 -52l505 -699l542 701c24 31.333 65 47 123 47s87 -34.333 87 -103v-836z" />
    <glyph glyph-name="iacute" unicode="&#xed;" horiz-adv-x="1555" 
d="M1428 61c0 -44.667 -22.667 -67 -68 -67h-75c-45.333 0 -68 22.333 -68 67v360h-892v-360c0 -44.667 -22.667 -67 -68 -67h-77c-44.667 0 -67 22.333 -67 67v887c0 44.667 22.333 67 67 67h77c45.333 0 68 -22.333 68 -67v-351h892v351c0 44.667 22.667 67 68 67h75
c45.333 0 68 -22.333 68 -67v-887z" />
    <glyph glyph-name="icircumflex" unicode="&#xee;" horiz-adv-x="1650" 
d="M1514 305c0 -116.667 -59.333 -202.333 -178 -257c-80.667 -37.333 -185.667 -56 -315 -56h-369c-238 0 -395.667 59 -473 177c-28 42.667 -42 88 -42 136v372c0 82 38.333 153 115 213c94 74 227 111 399 111h370c328.667 0 493 -107.333 493 -322v-374zM1288 305.001
l0.000976562 388.999c0 80 -91 120 -273 120h-361c-65.333 0 -124.333 -8 -177 -24c-78.667 -24 -118 -61.667 -118 -113v-372c0 -49.333 40 -84.666 120 -105.999c52 -14 110.667 -21 176 -21h361c57.333 0 111.666 8 162.999 24c72.667 22.667 109 57 109 103z" />
    <glyph glyph-name="idieresis" unicode="&#xef;" horiz-adv-x="1650" 
d="M1514 75c0 -55.333 -27.668 -83 -83.001 -83h-58c-55.333 0 -83 27.667 -83 83v642c0 39.333 -24.333 66 -73 80c-39.333 11.333 -108.666 17 -207.999 17h-362c-103.333 0 -174.333 -5.33301 -213 -16c-50 -14 -75 -41.333 -75 -82v-641c0 -55.333 -27.333 -83 -82 -83
h-58c-54.667 0 -82 27.667 -82 83v639c0 191.333 169.667 287 509 287h363c336.667 0 505 -95 505 -285v-641z" />
    <glyph glyph-name="eth" unicode="&#xf0;" horiz-adv-x="1669" 
d="M1532 313c0 -208.667 -160 -313.001 -480 -313.001h-693v-205c0 -54.667 -27.333 -82 -82 -82h-58c-54.667 0 -82 27.333 -82 82v906c0 122.667 57.667 207.334 173 254.001c76 30.667 187.333 46 334 46h354c356 0 534 -99 534 -297v-391zM1307 309.999v391
c0 53.333 -41.333 88 -124 104c-34.667 6.66699 -95.667 10 -183 10h-346c-196.667 0 -295 -39.667 -295 -119v-511h693c170 0 255 41.667 255 125z" />
    <glyph glyph-name="ntilde" unicode="&#xf1;" horiz-adv-x="1680" 
d="M1565 75c0 -55.333 -34.332 -83 -102.999 -83h-822c-151.333 0 -265 15 -341 45c-119.333 47.333 -179 134 -179 260v398c0 204 158 306 474 306h880c55.333 0 83 -27.667 83 -83v-22c0 -54.667 -27.667 -82 -83 -82h-865c-76.667 0 -132.334 -4.33301 -167.001 -13
c-66.667 -16.667 -100 -50 -100 -100v-395c0 -85.333 101.333 -128 304 -128h836c55.333 0 83 -27.667 83 -83v-20z" />
    <glyph glyph-name="ograve" unicode="&#xf2;" horiz-adv-x="1149" 
d="M1132 877c0 -43.333 -21.333 -65 -64 -65h-394v-753c0 -43.333 -21.333 -65 -64 -65h-54c-56 0 -84 21.667 -84 65v753h-392c-42.667 0 -64 21.667 -64 65v61c0 42.667 21.333 64 64 64h988c42.667 0 64 -21.333 64 -64v-61z" />
    <glyph glyph-name="oacute" unicode="&#xf3;" horiz-adv-x="1661" 
d="M1524 7c0 -196 -159 -294 -477 -294h-179c-55.333 0 -83 27.333 -83 82v26c0 55.333 27.667 83 83 83h181c168 0 252 32 252 96h-663c-334 -0 -501 100.333 -501 301v617c0 55.333 27.333 83 82 83h58c54.667 0 82 -27.667 82 -83v-617c0 -77.333 93 -116 279 -116h663
v733c0 55.333 27.667 83 83 83h58c54.667 0 82 -27.667 82 -83v-911z" />
    <glyph glyph-name="ocircumflex" unicode="&#xf4;" horiz-adv-x="2018" 
d="M875 -5c-1.33301 16.667 -2.00195 36.667 -2.00195 60c0 34.667 1.33301 77.334 4 128.001c-369.333 8 -554 50.333 -554 127v391c0 46.667 41.333 78 124 94l183 10c-0.666992 -4 20 -7 62 -9c123.333 -6 185 -31 185 -75v-538c0 -20.667 -0.333008 -52 -1 -94
s-1 -73.333 -1 -94l1 5l1 -205c0 -54.667 27.333 -82 82 -82h58c54.667 0 82 27.333 82 82v901c0 72.667 95 109 285 109h6c80.667 0 138.334 -3.33301 173.001 -10c82.667 -16 124 -50.667 124 -104v-391c0 -38.667 -46.333 -69.667 -139 -93
c-82 -20.667 -170.667 -29.667 -266 -27l-183 5l3 -185c29.333 -4.66699 77.333 -7 144 -7c166.667 0 306.667 18 420 54c164 52 246 137.333 246 256v391c0 198 -174.667 297 -524 297h-14c-122 0 -230 -8.66699 -324 -26c-22 -4 -48 -6 -78 -6
c-39.333 0 -96.666 4.66699 -171.999 14c-86 10.667 -142 16.667 -168 18c-356 -22.667 -534 -118.334 -534 -287.001v-391c0 -208.667 160 -313 480 -313h120z" />
    <glyph glyph-name="otilde" unicode="&#xf5;" horiz-adv-x="1436" 
d="M1391 142c30.667 -22.667 46.001 -48.334 46.001 -77.001c0 -48.667 -31.667 -73 -95 -73h-66c-18 0 -34.333 5.33301 -49 16l-496 363l-502 -363c-14.667 -10.667 -30.667 -16 -48 -16h-69c-63.333 0 -95 24.333 -95 73c0 28.667 15.667 54.334 47 77.001l495 354
l-489 355c-30.667 22 -46 47.667 -46 77c0 48.667 31.667 73 95 73h70c18 0 34.333 -5.33301 49 -16l494 -362l483 361c15.333 11.333 31.666 17 48.999 17h67c62.667 0 94 -24.333 94 -73c0 -28.667 -15 -54 -45 -76l-478 -353z" />
    <glyph glyph-name="odieresis" unicode="&#xf6;" horiz-adv-x="1745" 
d="M1524 190h126.999c22.667 -2.66699 45.334 -4.66699 68.001 -6c46.667 -2 68 -25.333 64 -70l-7 -73c-2 -23.333 -25.333 -37 -70 -41h-1068c-334 -0 -501 100.333 -501 301v617c0 55.333 27.333 83 82 83h58c54.667 0 82 -27.667 82 -83v-617
c0 -77.333 93 -116 279 -116h663v733c0 55.333 27.667 83 83 83h58c54.667 0 82 -27.667 82 -83v-728z" />
    <glyph glyph-name="divide" unicode="&#xf7;" horiz-adv-x="1260" 
d="M101 946c0 45.333 20.332 68 60.999 68h72c40.667 0 61 -22.667 61 -68v-420c0 -50 27.333 -83 82 -99c27.333 -8 73.333 -12 138 -12h441v531c0 45.333 20.333 68 61 68h63c40 0 60 -22.667 60 -68v-886c0 -44 -20 -66 -60 -66h-63c-40.667 0 -61 22 -61 66v184h-432
c-127.333 0 -219.666 11.333 -276.999 34c-97.333 38.667 -146 114 -146 226v442z" />
    <glyph glyph-name="oslash" unicode="&#xf8;" horiz-adv-x="1891" 
d="M1364 -6c268 0 402.001 87.999 402.001 263.999v689c0 44.667 -23.667 67 -71 67h-60c-47.333 0 -71 -22.333 -71 -67v-690c0 -62 -68.333 -93 -205 -93h-117c-80.667 0 -127.334 2.33301 -140.001 7c-34.667 12.667 -52 49.334 -52 110.001v666
c0 44.667 -23.667 67 -71 67h-70c-48 0 -72 -22.333 -72 -67v-659c0 -60.667 -8.33301 -96 -25 -106c-20 -12 -68.333 -18 -145 -18h-127c-140 0 -210 31.667 -210 95v688c0 44.667 -23.667 67 -71 67h-70c-47.333 0 -71 -22.333 -71 -67v-689c0 -176 139.333 -264 418 -264
h364c6 0 15 -0.333008 27 -1z" />
    <glyph glyph-name="ugrave" unicode="&#xf9;" horiz-adv-x="1865" 
d="M1711 947c0 44.667 -22.667 67 -68 67h-69c-46 0 -69 -22.333 -69 -67v-690c0 -62 -65.667 -93 -197 -93h-122c-82 0 -128 2.66699 -138 8c-24 12.667 -36 49 -36 109v666c0 44.667 -23 67 -69 67h-68c-46 0 -69 -22.333 -69 -67v-669c0 -54 -8.33301 -86 -25 -96
c-19.333 -12 -65.333 -18 -138 -18h-123c-141.333 0 -212 31.667 -212 95v688c0 44.667 -22.667 67 -68 67h-68c-45.333 0 -68 -22.333 -68 -67v-689c0 -176 137.333 -264 412 -264h351c6 0 14.5 -0.333008 25.5 -1s19.5 -1 25.5 -1h111l595 2c62 0 131.333 1.33301 208 4
c22 5.33301 41.333 24.333 58 57c6 12 9 21.667 9 29c0 26.667 -7 48.667 -21 66c-6.66699 8.66699 -13 14 -19 16c-17.333 6 -45.333 9 -84 9h-51c-8.66699 0 -13 4.66699 -13 14v758z" />
    <glyph glyph-name="uacute" unicode="&#xfa;" horiz-adv-x="1271" 
d="M1162 245c0 -122.667 -69.335 -200.333 -208.002 -233c-51.333 -12 -110.666 -18 -177.999 -18h-250c-53.333 0 -107.666 7.33301 -162.999 22c-170.667 45.333 -256 120.333 -256 225l1 609c-69.333 -0.666992 -104 12.333 -104 39v87c0 23.333 18 36 54 38l101 4
c87.333 4 131 -12.667 131 -50v-271h486c257.333 0 386 -83 386 -249v-203zM988.998 262.001v173c0 68.667 -70 103 -210 103h-489v-286c0 -24.667 29.333 -46.667 88 -66c50 -16.667 105.667 -25 167 -25h232c76 0 128.333 6 157 18c36.667 15.333 55 43 55 83z" />
    <glyph glyph-name="ucircumflex" unicode="&#xfb;" horiz-adv-x="1572" 
d="M1222 248c0 -169.333 -136.333 -254 -409 -254h-266c-56.667 0 -114 7.33301 -172 22c-166.667 42 -250 118 -250 228v710c0 44.667 21 67 63 67h66c42 0 63 -22.333 63 -67v-250h496c272.667 0 409 -83.667 409 -251v-205zM1040 274v166.001
c0 69.333 -74.667 104 -224 104h-499v-279c0 -31.333 31.333 -57 94 -77c52.667 -16.667 105 -25 157 -25h246c83.333 0 139.333 5.66699 168 17c38.667 15.333 58 46.666 58 93.999zM1311 1028h88c12 0 22.333 -7 31 -21s13 -27.333 13 -40v-906
c0 -12.667 -4.33301 -26 -13 -40s-19 -21 -31 -21h-88c-12 0 -22.167 7 -30.5 21s-12.5 27.333 -12.5 40v906c0 12.667 4.16699 26 12.5 40s18.5 21 30.5 21z" />
    <glyph glyph-name="udieresis" unicode="&#xfc;" horiz-adv-x="1653" 
d="M1528 244c0 -122 -92 -199.333 -276 -232c-68 -12 -146.667 -18 -236 -18h-332c-70 0 -142 7.33301 -216 22c-208.667 41.333 -313 116 -313 224v700c0 44 26.667 66 80 66h56c53.333 0 80 -22 80 -66v-246h645c341.333 0 512 -82.667 512 -248v-202zM1312 270v152.998
c0 68.667 -97.333 103 -292 103h-649v-265c0 -31.333 39 -56.666 117 -75.999c64.667 -16 138.667 -24 222 -24h308c110.667 0 184.667 5.66699 222 17c48 14.667 72 45.334 72 92.001z" />
    <glyph glyph-name="yacute" unicode="&#xfd;" horiz-adv-x="1245" 
d="M97 513l1 -41.001c1.33301 -41.333 20.666 -62 57.999 -62h783v-137c0 -71.333 -67 -107 -201 -107h-582c-38.667 0 -58 -22 -58 -66v-41c0 -43.333 19.333 -65 58 -65h589c22.667 0 45.667 1.33301 69 4c200 22.667 300 105.667 300 249v502
c0 94.667 -49 165.334 -147 212.001c-66 31.333 -144.667 47 -236 47h-161c-38 0 -57 -21.667 -57 -65v-31c0 -50 19 -75 57 -75h168l35 -3c58.667 -5.33301 99.334 -14.666 122.001 -27.999c30.667 -18.667 46 -44.334 46 -77.001v-147h-786c-40 0 -59.333 -23 -58 -69z
" />
    <glyph glyph-name="thorn" unicode="&#xfe;" horiz-adv-x="1407" 
d="M372 566h-105v404c0 29.333 -13.667 44 -41 44h-99c-28 0 -42 -14.667 -42 -44v-933c0 -24.667 14 -37 42 -37h99c27.333 -0 41 12.333 41 37v356zM372 566v171c0 184 145.667 276 437 276h48c131.333 0 228 -13 290 -39c98.667 -41.333 148 -120.333 148 -237v-470
c0 -182 -146 -273 -438 -273h-47c-209.333 0 -344 50 -404 150c-22.667 37.333 -34 78 -34 122v127h-105zM1113 281v442c0 86 -84 129 -252 129h-53c-168.667 0 -253 -43 -253 -129v-442c0 -83.333 84.333 -125 253 -125h54c167.333 0 251 41.667 251 125z" />
    <glyph glyph-name="ydieresis" unicode="&#xff;" horiz-adv-x="1240" 
d="M111 631c0 -86.667 35 -151.667 105 -195c57.333 -36 132 -54 224 -54h185l-486 -262c-26.667 -14.667 -40 -36 -40 -64c0 -20 14 -36 42 -48c22 -9.33301 44.667 -14 68 -14c26 0 53.667 1.66699 83 5l637 362v-302c0 -43.333 21 -65 63 -65h74
c34.667 0 52 21.667 52 65v886c0 43.333 -17.333 65 -52 65h-598c-238 0 -357 -85.667 -357 -257v-122zM300 639v118c0 38.667 27 63.667 81 75c22.667 4.66699 65 7 127 7h421v-285h-447c-121.333 0 -182 28.333 -182 85z" />
    <glyph glyph-name="afii10023" unicode="&#x401;" horiz-adv-x="1682" 
d="M1580 636l-1.99902 -27c-4 -52 -31.333 -78 -82 -78h-1125v-211c0 -90.667 100 -136 300 -136h825c54.667 0 82 -27.667 82 -83v-26c0 -55.333 -27.333 -83 -82 -83h-836c-26 0 -58.333 2 -97 6c-284 29.333 -426 134 -426 314v635c0 120 69.667 209.333 209 268
c93.333 39.333 204.666 59 333.999 59h228c54.667 0 82 -27.333 82 -82v-26c0 -55.333 -27.333 -83 -82 -83h-237l-65 -4c-158.667 -10 -238 -54 -238 -132v-224h1129c59.333 0 87 -29 83 -87zM451.001 1517h207c37.333 0 56 -18.667 56 -56v-76
c0 -37.333 -18.667 -56 -56 -56h-207c-37.333 0 -56 18.667 -56 56v76c0 37.333 18.667 56 56 56zM1051 1517h207c37.333 0 56 -18.667 56 -56v-76c0 -37.333 -18.667 -56 -56 -56h-207c-37.333 0 -56 18.667 -56 56v76c0 37.333 18.667 56 56 56z" />
    <glyph glyph-name="afii10017" unicode="&#x410;" horiz-adv-x="1903" 
d="M1859 111c2 -10 3 -20.333 3 -31c0 -34.667 -11.667 -62.667 -35 -84s-52.666 -32 -87.999 -32c-36.667 0 -69.667 21.333 -99 64l-207 302h-986l-207 -302c-6.66699 -12.667 -13 -21.667 -19 -27c-14.667 -14 -32.334 -21 -53.001 -21c-44.667 0 -77.667 16 -99 48
c-9.33301 14 -14 27.333 -14 40c0 8.66699 1.33301 15.667 4 21l739 1130c32 48.667 79.667 71.667 143 69c75.333 -2.66699 120.333 -25.667 135 -69zM1296 523l-355 523l-357 -523h712z" />
    <glyph glyph-name="afii10018" unicode="&#x411;" horiz-adv-x="1682" 
d="M1492 629l79.002 -126.999l26 -164c-6 2.66699 -26 6 -60 10c-10.667 1.33301 -34.667 0 -72 -4c-39.333 -4 -60 -8.66699 -62 -14c6 12 1 35.667 -15 71c-4 18 -14 40.333 -30 67c-54.667 42 -101.334 63 -140.001 63h-847v-211c0 -90.667 100 -136 300 -136h547
c6 0 24 5.66699 54 17c62.667 23.333 100 53.666 112 90.999c7.33301 21.333 13.666 34 18.999 38c20 14 59.333 21 118 21c50 0 75.333 -4.33301 76 -13c2.66699 -28 -7.33301 -71.667 -30 -131l-52 -63l-86 -71c-24.667 -20 -58 -38.333 -100 -55
c-44 -17.333 -81 -26 -111 -26h-558c-26 0 -58.333 2 -97 6c-284 29.333 -426 134 -426 314v635c0 120 69.667 209.333 209 268c93.333 39.333 204.666 59 333.999 59h228c54.667 0 82 -27.333 82 -82v-26c0 -55.333 -27.333 -83 -82 -83h-237l-65 -4
c-158.667 -10 -238 -54 -238 -132v-224h851c32.667 0 81.334 -9.66699 146.001 -29c70.667 -21.333 113 -43 127 -65z" />
    <glyph glyph-name="afii10019" unicode="&#x412;" horiz-adv-x="1879" 
d="M1747 333c0 -147.333 -81.001 -247.335 -243.001 -300.002c-49.333 -16 -107.333 -27.667 -174 -35c-36.667 -4 -68.667 -6 -96 -6h-992c-54.667 0 -82 27.667 -82 83v1117c0 54.667 27.333 82 82 82h963c108.667 0 191.334 -6.33301 248.001 -19
c80.667 -18 148 -52.333 202 -103c61.333 -56.667 92 -123.667 92 -201v-99c0 -77.333 -27.333 -141.666 -82 -192.999c-8 -7.33301 -12 -15.666 -12 -24.999c0 -6 2 -12.667 6 -20l6 -9c54.667 -50.667 82 -114.667 82 -192v-80zM1519 841.998l-6 108
c-4.66699 88.667 -105.667 133 -303 133h-811v-360h820c144.667 0 238.334 23.333 281.001 70c13.333 14.667 19.666 31 18.999 49zM1513 408.998c1.33301 81.333 -95.333 122 -290 122h-829v-347h813c180.667 0 282 40.333 304 121z" />
    <glyph glyph-name="afii10020" unicode="&#x413;" horiz-adv-x="1640" 
d="M1592 1191c0 55.333 -27.667 83 -83 83h-734c-146.667 0 -244.667 -5 -294 -15c-229.333 -46.667 -344 -154 -344 -322v-863c0 -54.667 27.333 -82 82 -82h69c55.333 0 83 27.333 83 82v863c0 68.667 54.333 113 163 133c43.333 8 123 12 239 12h736
c55.333 0 83 27.667 83 83v26z" />
    <glyph glyph-name="afii10021" unicode="&#x414;" horiz-adv-x="1873" 
d="M1735 338c0 -59.333 -11.334 -107.333 -34.001 -144l3 7c-35.333 -72.667 -108 -127.667 -218 -165c-86 -29.333 -178.667 -44 -278 -44h-989c-54.667 0 -82 27.667 -82 83v1117c0 54.667 27.333 82 82 82h995c66.667 0 123.334 -4 170.001 -12
c234 -40 351 -145 351 -315v-609zM1503 339v607c0 52 -44.333 91.667 -133 119c-38.667 12 -93 18 -163 18h-836v-899h832c174.667 0 273.667 42 297 126c2 7.33301 3 17 3 29z" />
    <glyph glyph-name="afii10022" unicode="&#x415;" horiz-adv-x="1682" 
d="M1580 636l-1.99902 -27c-4 -52 -31.333 -78 -82 -78h-1125v-211c0 -90.667 100 -136 300 -136h825c54.667 0 82 -27.667 82 -83v-26c0 -55.333 -27.333 -83 -82 -83h-836c-26 0 -58.333 2 -97 6c-284 29.333 -426 134 -426 314v635c0 120 69.667 209.333 209 268
c93.333 39.333 204.666 59 333.999 59h228c54.667 0 82 -27.333 82 -82v-26c0 -55.333 -27.333 -83 -82 -83h-237l-65 -4c-158.667 -10 -238 -54 -238 -132v-224h1129c59.333 0 87 -29 83 -87z" />
    <glyph glyph-name="afii10024" unicode="&#x416;" horiz-adv-x="1634" 
d="M1582 138c27.333 -23.333 40.999 -48.332 40.999 -74.999c0 -47.333 -31.667 -71 -95 -71c-8 -1.33301 -19.667 -2 -35 -2c-42.667 0 -72.667 7.33301 -90 22l-583 492l-589 -492c-17.333 -14.667 -48.333 -22 -93 -22c-13.333 0 -24 0.666992 -32 2
c-63.333 0 -95 24 -95 72c0 26 13.667 50.667 41 74l601 506l-581 485c-28 23.333 -42 48.333 -42 75c0 46.667 31.667 70 95 70h71c20.667 0 38.334 -6 53.001 -18l571 -477l567 476c15.333 12.667 33 19 53 19h69c62.667 0 94 -23.667 94 -71
c0 -26.667 -13.667 -51.334 -41 -74.001l-577 -485zM819.999 504.001l113 -92l-1 -337c0 -55.333 -27.667 -83 -83 -83h-69c-54.667 0 -82 27.667 -82 83v322zM819.999 779.001l-122 100v313c0 54.667 27.333 82 82 82h69c55.333 0 83 -27.333 83 -82l1 -317z" />
    <glyph glyph-name="afii10025" unicode="&#x417;" horiz-adv-x="1925" 
d="M1772 329c0 -126.667 -63.333 -218.333 -190 -275c-92 -41.333 -210.333 -62 -355 -62h-1015c-54.667 0 -82 27.667 -82 83v26c0 55.333 27.333 83 82 83h1015c207.333 0 311 45.333 311 136v121c0 71.333 -100.333 107 -301 107h-1025c-54.667 0 -82 27.667 -82 83v28
c0 54.667 27.333 82 82 82h1026c200 0 300 38.333 300 115v121c0 51.333 -42.333 84 -127 98c-32 5.33301 -93.333 8 -184 8h-211c-54.667 0 -82 27.667 -82 83v26c0 54.667 27.333 82 82 82h211c156.667 0 274.667 -14.333 354 -43c127.333 -46 191 -133.333 191 -262v-118
c0 -84 -36.667 -151.333 -110 -202c73.333 -52 110 -120.333 110 -205v-115z" />
    <glyph glyph-name="afii10026" unicode="&#x418;" horiz-adv-x="1862" 
d="M137 129c0 -59.333 15.333 -99.667 46 -121c22 -15.333 58.333 -23 109 -23c20 0 43.667 10 71 30c4 2.66699 16 12.667 36 30l1091 928v-898c0 -55.333 27.667 -83 83 -83h69c54.667 0 82 27.667 82 83v1115c0 28.667 -20 54.667 -60 78c-18 10.667 -38 16 -60 16
c-32 0 -67.667 -11.333 -107 -34c-18.667 -10.667 -35 -22 -49 -34l-1077 -917v893c0 54.667 -27.667 82 -83 82h-68c-55.333 0 -83 -27.333 -83 -82v-1063z" />
    <glyph glyph-name="afii10027" unicode="&#x419;" horiz-adv-x="1862" 
d="M137 129c0 -59.333 15.333 -99.667 46 -121c22 -15.333 58.333 -23 109 -23c20 0 43.667 10 71 30c4 2.66699 16 12.667 36 30l1091 928v-898c0 -55.333 27.667 -83 83 -83h69c54.667 0 82 27.667 82 83v1115c0 28.667 -20 54.667 -60 78c-18 10.667 -38 16 -60 16
c-32 0 -67.667 -11.333 -107 -34c-18.667 -10.667 -35 -22 -49 -34l-1077 -917v893c0 54.667 -27.667 82 -83 82h-68c-55.333 0 -83 -27.333 -83 -82v-1063zM741 1463h369.001c69.333 0 113.666 -9.33301 132.999 -28c11.333 -10.667 17 -33.334 17 -68.001
c0 -36 -5 -59 -15 -69c-18.667 -18.667 -63.667 -28 -135 -28h-369c-70 0 -114.667 9.33301 -134 28c-10.667 10.667 -16 33.667 -16 69c0 34.667 5.33301 57.334 16 68.001c19.333 18.667 64 28 134 28z" />
    <glyph glyph-name="afii10028" unicode="&#x41a;" horiz-adv-x="1676" 
d="M1509 148c37.333 -20 56 -46.668 56 -80.001c0 -50.667 -31.333 -76 -94 -76h-83c-13.333 0 -26.333 3.33301 -39 10l-984 519v-446c0 -55.333 -27.667 -83 -83 -83h-63c-54.667 0 -82 27.667 -82 83v1117c0 54.667 27.333 82 82 82h63c55.333 0 83 -27.333 83 -82v-431
l948 504c18 6 31 9 39 9h88c62.667 0 94 -25.333 94 -76c0 -33.333 -18.667 -59.666 -56 -78.999l-907 -475z" />
    <glyph glyph-name="afii10029" unicode="&#x41b;" horiz-adv-x="1851" 
d="M1827 119l-758.002 1078c-19.333 28 -37.666 47 -54.999 57c-24 14 -52 21 -84 21c-40.667 0 -76.334 -12.667 -107.001 -38c-10.667 -8.66699 -22 -21.667 -34 -39l-759 -1079c-16 -22.667 -24 -44 -24 -64c0 -43.333 30.333 -65 91 -65h10c4 0 9.33301 -0.333008 16 -1
c58 0 95.333 12 112 36l695 992l691 -992c16.667 -24 53.334 -36 110.001 -36h17c4.66699 0 8.33398 0.333008 11.001 1c60.667 5.33301 91 27.333 91 66c0 20 -7.66699 41 -23 63z" />
    <glyph glyph-name="afii10030" unicode="&#x41c;" horiz-adv-x="2430" 
d="M2294 75c0 -55.333 -27.334 -82.999 -82.001 -82.999h-70c-54.667 0 -82 27.667 -82 83v829l-689 -850c-36.667 -45.333 -86 -68 -148 -68c-62.667 0 -112.667 22.667 -150 68l-702 854v-833c0 -55.333 -27.667 -83 -83 -83h-69c-54.667 0 -82 27.667 -82 83v1076
c0 35.333 14.333 64.666 43 87.999c26.667 22 58.334 33 95.001 33c50 0 93 -21.333 129 -64l821 -971l802 973c32.667 39.333 78.667 59 138 59c86 0 129 -42.667 129 -128v-1066z" />
    <glyph glyph-name="afii10031" unicode="&#x41d;" horiz-adv-x="1873" 
d="M1735 75c0 -55.333 -27.667 -83 -83 -83h-66c-55.333 0 -83 27.667 -83 83v456h-1132v-456c0 -55.333 -27.667 -83 -83 -83h-69c-54.667 0 -82 27.667 -82 83v1117c0 54.667 27.333 82 82 82h69c55.333 0 83 -27.333 83 -82v-469h1132v469c0 54.667 27.667 82 83 82h66
c55.333 0 83 -27.333 83 -82v-1117z" />
    <glyph glyph-name="afii10032" unicode="&#x41e;" horiz-adv-x="1824" 
d="M1688 336c0 -229.333 -198 -344 -594 -344h-364c-283.333 0 -466 63 -548 189c-30 46 -45 97.333 -45 154v591c0 232 197.333 348 592 348h365c178 0 309 -16.333 393 -49c134 -52 201 -151.667 201 -299v-590zM1454 341v580c0 108 -118.333 162 -355 162h-371
c-238 0 -357 -54 -357 -162v-580c0 -104.667 119 -157 357 -157h372c236 0 354 52.333 354 157z" />
    <glyph glyph-name="afii10033" unicode="&#x41f;" horiz-adv-x="1873" 
d="M1735 913c0 67.333 -3.33691 112.666 -10.0039 135.999c-13.333 26.667 -27.166 52.5 -41.499 77.5s-36.166 42.5 -65.499 52.5l-109 36c-114.667 39.333 -248 59 -400 59h-328c-179.333 0 -317 -16.333 -413 -49c-50.667 -17.333 -82.667 -29.666 -96 -36.999
c-21.333 -12 -53.666 -52.667 -96.999 -122c-14 -32.667 -21 -83.667 -21 -153v-839c0 -54.667 27.333 -82 82 -82h69c55.333 0 83 27.333 83 82v824c0 58.667 8.33301 96 25 112c6.66699 4 31.334 15 74.001 33c61.333 26 160.333 39 297 39h322
c116.667 0 215.667 -11.333 297 -34c42.667 -12 67.667 -22 75 -30c16 -17.333 24 -57 24 -119v-825c0 -54.667 27.667 -82 83 -82h68c54.667 0 82 27.333 82 82v839z" />
    <glyph glyph-name="afii10034" unicode="&#x420;" horiz-adv-x="1860" 
d="M1732 789c0 -127.333 -64 -219.667 -192 -277c-93.333 -42 -212.666 -63 -357.999 -63h-811v-374c0 -55.333 -27.667 -83 -83 -83h-69c-54.667 0 -82 27.667 -82 83v1117c0 54.667 27.333 82 82 82h974c125.333 0 236.666 -18 333.999 -54
c136.667 -50.667 205 -128 205 -232v-199zM1500 796.999v175c0 74 -101.667 111 -305 111h-824v-442h825c95.333 0 166 9 212 27c61.333 24 92 67 92 129z" />
    <glyph glyph-name="afii10035" unicode="&#x421;" horiz-adv-x="1729" 
d="M1612 1166c0 -55.333 -27.665 -83 -82.998 -83h-832c-202 0 -303 -40.333 -303 -121v-635c0 -60.667 44.667 -103 134 -127c39.333 -10.667 106.666 -16 201.999 -16h794c54.667 0 82 -27.667 82 -83v-26c0 -55.333 -27.333 -83 -82 -83h-794
c-96 0 -163.667 2.66699 -203 8c-68.667 9.33301 -132.334 29.666 -191.001 60.999c-117.333 62.667 -176 150 -176 262v638c0 80 37.333 148.667 112 206c63.333 48.667 138 80.334 224 95.001c47.333 8 113 12 197 12h836c55.333 0 83 -27.333 83 -82v-26z" />
    <glyph glyph-name="afii10036" unicode="&#x422;" horiz-adv-x="1450" 
d="M1452 1166c0 -55.333 -27.667 -83 -83 -83h-518v-1008c0 -55.333 -27.333 -83 -82 -83h-69c-54.667 0 -82 27.667 -82 83v1008h-515c-55.333 0 -83 27.667 -83 83v26c0 54.667 27.667 82 83 82h1266c55.333 0 83 -27.333 83 -82v-26z" />
    <glyph glyph-name="afii10037" unicode="&#x423;" horiz-adv-x="1675" 
d="M116 692c2.66699 -37.333 43.666 -72.667 122.999 -106c68 -28.667 121.667 -43 161 -43h939v-243c0 -42 -44 -73.667 -132 -95c-60 -14.667 -120 -22 -180 -22h-159c-55.333 0 -83 -27.667 -83 -83v-26c0 -54.667 27.667 -82 83 -82h175
c164.667 0 297.334 33 398.001 99c88 57.333 132 124 132 200v900c0 55.333 -27.333 83 -82 83h-69c-55.333 0 -83 -27.667 -83 -83v-456h-896c-34 0 -73.333 6.33301 -118 19l-4 76v422c0 16 -5.5 30.667 -16.5 44s-24.167 20 -39.5 20h-100c-37.333 0 -56 -20.667 -56 -62
v-458z" />
    <glyph glyph-name="afii10038" unicode="&#x424;" horiz-adv-x="1724" 
d="M1568 426c0 -107.333 -44.999 -190 -134.999 -248c-64 -41.333 -105.333 -65.333 -124 -72c-44 -16 -112.333 -24 -205 -24h-374c-146.667 0 -267.334 18.667 -362.001 56c-147.333 58 -221 153.667 -221 287v391c0 232 194 348 582 348h375c98.667 0 170.667 -7 216 -21
c23.333 -7.33301 63 -28.333 119 -63c86 -53.333 129 -141.333 129 -264v-390zM1334 431v380.001c0 108 -95 162 -285 162h-311c-238 0 -357 -54 -357 -162v-380c0 -104.667 119 -157 357 -157h312c68 0 130.333 11 187 33c64.667 25.333 97 66.666 97 123.999z
M749.001 972.001h227v-703h-227v703zM772.001 1250h168c22 0 33 -11 33 -33v-56h-229c-3.33301 0 -5 12.333 -5 37v19c0 22 11 33 33 33zM782.001 -8.99902l168 -0.000976562c22 0 33 11 33 33v56h-229c-2.66699 -0.666992 -4.66699 -3.66699 -6 -9
c0.666992 2.66699 1 -6.66602 1 -27.999v-19c0 -22 11 -33 33 -33z" />
    <glyph glyph-name="afii10039" unicode="&#x425;" horiz-adv-x="1634" 
d="M1587 138c27.333 -23.333 40.999 -48.332 40.999 -74.999c0 -47.333 -31.667 -71 -95 -71c-8 -1.33301 -19.667 -2 -35 -2c-42.667 0 -72.667 7.33301 -90 22l-583 492l-589 -492c-17.333 -14.667 -48.333 -22 -93 -22c-13.333 0 -24 0.666992 -32 2
c-63.333 0 -95 24 -95 72c0 26 13.667 50.667 41 74l601 506l-581 485c-28 23.333 -42 48.333 -42 75c0 46.667 31.667 70 95 70h71c20.667 0 38.334 -6 53.001 -18l571 -477l567 476c15.333 12.667 33 19 53 19h69c62.667 0 94 -23.667 94 -71
c0 -26.667 -13.667 -51.334 -41 -74.001l-577 -485z" />
    <glyph glyph-name="afii10040" unicode="&#x426;" horiz-adv-x="1936" 
d="M1735 193l140.003 -1.99707c23.333 0 42.166 -9.5 56.499 -28.5s20.166 -40.167 17.499 -63.5c0 -14.667 -4.33301 -34.334 -13 -59.001c-26 -26.667 -54.333 -42.334 -85 -47.001c-8.66699 -1.33301 -40.334 -2 -95.001 -2h-35l-56 -1l-884 2
c-325.333 0 -522 60 -590 180c-24.667 43.333 -37 103.666 -37 180.999v839c0 54.667 27.333 82 82 82h69c55.333 0 83 -27.333 83 -82v-824c0 -80.667 50 -134.667 150 -162c53.333 -14.667 135.333 -22 246 -22l628 -1c49.333 0 77.333 7.66699 84 23
c4 9.33301 6 63 6 161v825c0 54.667 27.667 82 83 82h68c54.667 0 82 -27.333 82 -82v-999z" />
    <glyph glyph-name="afii10041" unicode="&#x427;" horiz-adv-x="1669" 
d="M137 1191c0 55.333 27.333 83 82 83h58c54.667 0 82 -27.667 82 -83v-567c0 -61.333 37.333 -102 112 -122c37.333 -10 99.333 -15 186 -15h653v704c0 55.333 27.333 83 82 83h58c54.667 0 82 -27.667 82 -83v-1117c0 -54.667 -27.333 -82 -82 -82h-58
c-54.667 0 -82 27.333 -82 82v227h-600c-172 0 -297 14 -375 42c-132 47.333 -198 140 -198 278v570z" />
    <glyph glyph-name="afii10042" unicode="&#x428;" horiz-adv-x="2183" 
d="M2046 1168c0 55.333 -27.3359 83 -82.0029 83h-58c-55.333 0 -83 -27.667 -83 -83v-872c0 -78 -83 -117 -249 -117h-147c-105.333 0 -164.666 3.66699 -177.999 11c-29.333 16 -44 61 -44 135v843c0 55.333 -27.667 83 -83 83h-58c-55.333 0 -83 -27.667 -83 -83v-846
c0 -67.333 -9.66699 -107.333 -29 -120c-23.333 -15.333 -83 -23 -179 -23h-147c-178 0 -267 39.667 -267 119v870c0 55.333 -27.333 83 -82 83h-58c-54.667 0 -82 -27.667 -82 -83v-847c0 -219.333 161.333 -329 484 -329h422c6.66699 0 16.834 -0.333008 30.501 -1
s23.834 -1 30.501 -1h134l342 2c310.667 2 466 111.667 466 329v847z" />
    <glyph glyph-name="afii10043" unicode="&#x429;" horiz-adv-x="2183" 
d="M2046 1168c0 55.333 -27.3359 83 -82.0029 83h-58c-55.333 0 -83 -27.667 -83 -83v-872c0 -78 -83 -117 -249 -117h-147c-105.333 0 -164.666 3.66699 -177.999 11c-29.333 16 -44 61 -44 135v843c0 55.333 -27.667 83 -83 83h-58c-55.333 0 -83 -27.667 -83 -83v-846
c0 -67.333 -9.66699 -107.333 -29 -120c-23.333 -15.333 -83 -23 -179 -23h-147c-178 0 -267 39.667 -267 119v870c0 55.333 -27.333 83 -82 83h-58c-54.667 0 -82 -27.667 -82 -83v-847c0 -219.333 161.333 -329 484 -329h422c6.66699 0 16.834 -0.333008 30.501 -1
s23.834 -1 30.501 -1h134l716 3c72 0 155.333 1.66699 250 5c26.667 6 49.667 29.333 69 70c7.33301 15.333 11 27.666 11 36.999c0 16.667 -8.33301 35.667 -25 57c-8.66699 10.667 -16 17.334 -22 20.001c-17.333 7.33301 -51.333 11 -102 11h-67
c-14.667 1.33301 -22 7.33301 -22 18v957z" />
    <glyph glyph-name="afii10044" unicode="&#x42a;" 
d="M1570 309c0 -154.667 -94.333 -252.668 -283 -294.001c-70 -15.333 -151 -23 -243 -23h-341c-72 0 -146 9.33301 -222 28c-214 52.667 -321 147.334 -321 284.001l1 805c-112.667 -1.33301 -169 15 -169 49v72c0 30 24.333 46 73 48l138 4c119.333 4 179 -16.667 179 -62
v-342h662c350.667 0 526 -104.333 526 -313v-256zM1348 316.999v244c0 86.667 -100 130 -300 130h-666v-386c0 -39.333 40 -71.333 120 -96c67.333 -20.667 143.333 -31 228 -31h316c113.333 0 189.333 7.33301 228 22c49.333 18.667 74 57.667 74 117z" />
    <glyph glyph-name="afii10045" unicode="&#x42b;" horiz-adv-x="1965" 
d="M1570 309c0 -154.667 -94.333 -252.668 -283 -294.001c-70 -15.333 -151 -23 -243 -23h-341c-72 0 -146 9.33301 -222 28c-214 52.667 -321 147.334 -321 284.001v886c0 55.333 27.333 83 82 83h58c54.667 0 82 -27.667 82 -83v-312h662c350.667 0 526 -104.333 526 -313
v-256zM1348 316.999v244c0 86.667 -100 130 -300 130h-666v-386c0 -39.333 40 -71.333 120 -96c67.333 -20.667 143.333 -31 228 -31h316c113.333 0 189.333 7.33301 228 22c49.333 18.667 74 57.667 74 117zM1684 1282h100c16 0 29.667 -9 41 -27
c10 -15.333 15 -31.666 15 -48.999v-1130c0 -17.333 -5 -33.666 -15 -48.999c-11.333 -18 -25 -27 -41 -27h-100c-16 0 -29.667 9 -41 27c-10 15.333 -15 31.666 -15 48.999v1130c0 17.333 5 33.666 15 48.999c11.333 18 25 27 41 27z" />
    <glyph glyph-name="afii10046" unicode="&#x42c;" 
d="M1570 309c0 -154.667 -94.333 -252.668 -283 -294.001c-70 -15.333 -151 -23 -243 -23h-341c-72 0 -146 9.33301 -222 28c-214 52.667 -321 147.334 -321 284.001v886c0 55.333 27.333 83 82 83h58c54.667 0 82 -27.667 82 -83v-312h662c350.667 0 526 -104.333 526 -313
v-256zM1348 316.999v244c0 86.667 -100 130 -300 130h-666v-386c0 -39.333 40 -71.333 120 -96c67.333 -20.667 143.333 -31 228 -31h316c113.333 0 189.333 7.33301 228 22c49.333 18.667 74 57.667 74 117z" />
    <glyph glyph-name="afii10047" unicode="&#x42d;" horiz-adv-x="1682" 
d="M137 636l1.99902 -27c4 -52 31.333 -78 82 -78h1125v-211c0 -90.667 -100 -136 -300 -136h-825c-54.667 0 -82 -27.667 -82 -83v-26c0 -55.333 27.333 -83 82 -83h836c26 0 58.333 2 97 6c284 29.333 426 134 426 314v635c0 120 -69.667 209.333 -209 268
c-93.333 39.333 -204.666 59 -333.999 59h-228c-54.667 0 -82 -27.333 -82 -82v-26c0 -55.333 27.333 -83 82 -83h237l65 -4c158.667 -10 238 -54 238 -132v-224h-1129c-59.333 0 -87 -29 -83 -87z" />
    <glyph glyph-name="afii10048" unicode="&#x42e;" horiz-adv-x="1824" 
d="M437 699h-143v520c0 37.333 -18.667 56 -56 56h-107c-37.333 0 -56 -18.667 -56 -56v-1173c0 -30.667 18.667 -46 56 -46h107c37.333 -0 56 15.333 56 46v460zM437 699v227.001c0 232 197.333 348 592 348h65c178 0 309 -16.333 393 -49c134 -52 201 -151.667 201 -299
v-590c0 -229.333 -198 -344 -594 -344h-64c-283.333 0 -466 63 -548 189c-29.333 45.333 -44.333 96.666 -45 153.999l-1 171h-142zM1454 341.001v580c0 108 -118.333 162 -355 162h-71c-238 0 -357 -54 -357 -162v-580c0 -104.667 119 -157 357 -157h72
c236 0 354 52.333 354 157z" />
    <glyph glyph-name="afii10049" unicode="&#x42f;" horiz-adv-x="1814" 
d="M137 795c0 -108.667 55 -190.333 165 -245c91.333 -45.333 209 -68 353 -68h385l-781 -331c-41.333 -17.333 -62 -44.333 -62 -81c0 -52.667 31.333 -78.667 94 -78c52 0 95.333 2.33301 130 7l1066 456v-380c0 -55.333 27.667 -83 83 -83h69c54.667 0 82 27.667 82 83
v1117c0 54.667 -27.333 82 -82 82h-941c-146 0 -266 -19 -360 -57c-134 -54 -201 -143 -201 -267v-155zM371 793.001v162c0 85.333 109.333 128 328 128h788v-410h-830c-190.667 0 -286 40 -286 120z" />
    <glyph glyph-name="afii10065" unicode="&#x430;" horiz-adv-x="1739" 
d="M1614 295c0 -202 -151.668 -303 -455.001 -303h-543c-52 0 -109.333 7.33301 -172 22c-201.333 47.333 -302 137.333 -302 270v129c0 104.667 54.667 183.667 164 237c83.333 40.667 184 61 302 61h786c-11.333 68.667 -98.666 103 -261.999 103h-168
c-54.667 0 -82 27.333 -82 82v22c0 55.333 27.333 83 82 83h122c352 0 528 -103.333 528 -310v-396zM1392 284l0.000976562 240h-789c-42 0 -87.667 -7.66699 -137 -23c-68 -21.333 -102 -50.333 -102 -87v-128c0 -42 39.667 -71.667 119 -89
c27.333 -6 69.666 -12.333 126.999 -19h551c154 0 231 35.333 231 106z" />
    <glyph glyph-name="afii10066" unicode="&#x431;" horiz-adv-x="1739" 
d="M142 295c0 -202 151.668 -303 455.001 -303h543c52 0 109.333 7.33301 172 22c201.333 47.333 302 137.333 302 270v129c0 104.667 -54.667 183.667 -164 237c-83.333 40.667 -184 61 -302 61h-786c11.333 68.667 98.666 103 261.999 103h168c54.667 0 82 27.333 82 82
v22c0 55.333 -27.333 83 -82 83h-122c-352 0 -528 -103.333 -528 -310v-396zM364.001 284l-0.000976562 240h789c42 0 87.667 -7.66699 137 -23c68 -21.333 102 -50.333 102 -87v-128c0 -42 -39.667 -71.667 -119 -89c-27.333 -6 -69.666 -12.333 -126.999 -19h-551
c-154 0 -231 35.333 -231 106z" />
    <glyph glyph-name="afii10067" unicode="&#x432;" horiz-adv-x="1739" 
d="M1259 704l-341.003 -1c76.667 -1.33301 153.334 -2 230.001 -2h-786c12.667 75.333 100 113 262 113h168c22.667 0 56.334 0.833008 101.001 2.5s78.334 2.5 101.001 2.5c234 0 351 -26.333 351 -79c0 -24 -28.667 -36 -86 -36zM1547 847l-41.001 54.002l-37 23
c-6 3.33301 -18 10.666 -36 21.999c-27.333 11.333 -67.666 20.666 -120.999 27.999c-130 18 -303.333 27 -520 27h-122c-352 0 -528 -103.333 -528 -310v-396c0 -202 151.667 -303 455 -303h543c52 0 109.333 7.33301 172 22c201.333 47.333 302 137.333 302 270v129
c0 59.333 -31.333 114 -94 164l-70 33c-4 2 -6 4 -6 6c6.66699 6 30.667 22 72 48c30.667 50.667 46 94.667 46 132c0 20.667 -5 37.667 -15 51zM363.996 284.002l-0.000976562 240h789c42 0 87.667 -7.66699 137 -23c68 -21.333 102 -50.333 102 -87v-128
c0 -42 -39.667 -71.667 -119 -89c-27.333 -6 -69.666 -12.333 -126.999 -19h-551c-154 0 -231 35.333 -231 106z" />
    <glyph glyph-name="afii10068" unicode="&#x433;" horiz-adv-x="1182" 
d="M1096 896c0 -68 -27.667 -102 -83 -102h-102c-311.333 0 -475.333 -5.33301 -492 -16c-31.333 -20 -47 -56.667 -47 -110v-593c0 -55.333 -27.333 -83 -82 -83h-71c-54.667 0 -82 28 -82 84l3 612c0.666992 135.333 44 230.333 130 285c22 14 89 22.667 201 26
c44.667 1.33301 195.667 2 453 2h89c55.333 0 83 -27.667 83 -83v-22z" />
    <glyph glyph-name="afii10069" unicode="&#x434;" horiz-adv-x="1669" 
d="M1532 25c0 -116 -73.3311 -201 -219.998 -255c-102.667 -38 -223.334 -57 -362.001 -57h-93c-55.333 0 -83 27.333 -83 82v22c0 54.667 27.667 82 83 82h161c39.333 0 94.333 10.667 165 32c80 24 120 47 120 69h-609c-142.667 0 -260.667 18 -354 54
c-135.333 52 -203 138 -203 258v374c0 106 54.667 187.333 164 244c91.333 47.333 202.666 71 333.999 71h327c140 0 259.667 -19.333 359 -58c140.667 -54.667 211 -141 211 -259v-659zM1307 185l-0.000976562 490c0 50.667 -41.667 88.667 -125 114
c-57.333 17.333 -118.666 26 -183.999 26h-351c-81.333 0 -140.333 -4.33301 -177 -13c-74 -17.333 -111 -54.333 -111 -111v-376c0 -86.667 110 -130 330 -130h618z" />
    <glyph glyph-name="afii10070" unicode="&#x435;" horiz-adv-x="1651" 
d="M1527 479c0 -61.333 -20.668 -92 -62.001 -92h-1104c0 -139.333 96 -209 288 -209h166c54.667 0 82 -27.667 82 -83v-20c0 -55.333 -27.333 -83 -82 -83h-142c-142 0 -258 18.667 -348 56c-128.667 53.333 -193 141 -193 263v371c0 116.667 63.667 203 191 259
c92.667 40.667 206.334 61 341.001 61h415c112 0 208.333 -19 289 -57c106 -50 159 -124.333 159 -223v-243zM1311 580v124c0 38 -42.667 67.333 -128 88c-60 14.667 -117.333 22 -172 22h-322c-223.333 0 -335 -39.333 -335 -118v-116h957z" />
    <glyph glyph-name="afii10072" unicode="&#x436;" horiz-adv-x="1442" 
d="M1413 112c22.667 -18 33.999 -38.333 33.999 -61c0 -38 -26.667 -57 -80 -57c-6.66699 -1.33301 -26.667 -2 -60 -2c-36 0 -61.333 6 -76 18l-495 398l-500 -398c-15.333 -12 -41.666 -18 -78.999 -18c-11.333 0 -20.333 0.666992 -27 2c-74 0 -111 19.333 -111 58
c0 21.333 11.667 41.333 35 60l510 409l-513 373c-24 17.333 -36 37.333 -36 60c0 19.333 17.667 34.333 53 45c26.667 8 52.667 12 78 12h60c17.333 0 32.333 -4.66699 45 -14l485 -367l481 366c13.333 10 28.333 15 45 15h89c52.667 0 79 -19 79 -57
c0 -22.667 -11.333 -42.667 -34 -60l-490 -373zM735.999 408l102.999 -85l2 -262c0.666992 -44.667 -22.666 -67 -69.999 -67h-79c-46.667 0 -70 22.333 -70 67l1 254zM735.998 630l-112.999 85l-1 230c0 44 23.333 66 70 66h79c47.333 0 70.666 -22 69.999 -66l-2 -235z
M1413 112c22.667 -18 33.999 -38.333 33.999 -61c0 -38 -26.667 -57 -80 -57c-6.66699 -1.33301 -26.667 -2 -60 -2c-36 0 -61.333 6 -76 18l-495 398l-500 -398c-15.333 -12 -41.666 -18 -78.999 -18c-11.333 0 -20.333 0.666992 -27 2c-74 0 -111 19.333 -111 58
c0 21.333 11.667 41.333 35 60l510 409l-513 373c-24 17.333 -36 37.333 -36 60c0 19.333 17.667 34.333 53 45c26.667 8 52.667 12 78 12h60c17.333 0 32.333 -4.66699 45 -14l485 -367l481 366c13.333 10 28.333 15 45 15h89c52.667 0 79 -19 79 -57
c0 -22.667 -11.333 -42.667 -34 -60l-490 -373zM735.998 408l102.999 -85l2 -262c0.666992 -44.667 -22.666 -67 -69.999 -67h-79c-46.667 0 -70 22.333 -70 67l1 254zM735.997 630l-112.999 85l-1 230c0 44 23.333 66 70 66h79c47.333 0 70.666 -22 69.999 -66l-2 -235z
M1413 112c22.667 -18 33.999 -38.333 33.999 -61c0 -38 -26.667 -57 -80 -57c-6.66699 -1.33301 -26.667 -2 -60 -2c-36 0 -61.333 6 -76 18l-495 398l-500 -398c-15.333 -12 -41.666 -18 -78.999 -18c-11.333 0 -20.333 0.666992 -27 2c-74 0 -111 19.333 -111 58
c0 21.333 11.667 41.333 35 60l510 409l-513 373c-24 17.333 -36 37.333 -36 60c0 19.333 17.667 34.333 53 45c26.667 8 52.667 12 78 12h60c17.333 0 32.333 -4.66699 45 -14l485 -367l481 366c13.333 10 28.333 15 45 15h89c52.667 0 79 -19 79 -57
c0 -22.667 -11.333 -42.667 -34 -60l-490 -373zM735.997 408l102.999 -85l2 -262c0.666992 -44.667 -22.666 -67 -69.999 -67h-79c-46.667 0 -70 22.333 -70 67l1 254zM735.996 630l-112.999 85l-1 230c0 44 23.333 66 70 66h79c47.333 0 70.666 -22 69.999 -66l-2 -235z
" />
    <glyph glyph-name="afii10073" unicode="&#x437;" horiz-adv-x="1620" 
d="M1491 297c0 -114 -56.333 -197.332 -169 -249.999c-76.667 -36 -175.334 -54 -296.001 -54h-849c-45.333 0 -68 27.333 -68 82v23c0 54.667 22.667 82 68 82h849c166.667 0 250 36.333 250 109v75c0 55.333 -80.667 83 -242 83h-857c-45.333 0 -68 27.667 -68 83v24
c0 54 22.667 81 68 81h858c160.667 0 241 30.333 241 91v5c0 39.333 -32 64.333 -96 75c-28 4.66699 -79.333 7 -154 7h-177c-45.333 0 -68 27.667 -68 83v22c0 54.667 22.667 82 68 82h177c130.667 0 229.334 -12.667 296.001 -38c106 -40 159 -119.333 159 -238v-3
c0 -72.667 -30.667 -131.334 -92 -176.001c68 -50 102 -109.333 102 -178v-70z" />
    <glyph glyph-name="afii10074" unicode="&#x438;" 
d="M1547 293c0 -26.667 2.33301 -117.667 7 -273c0.666992 -18.667 -33.666 -28 -102.999 -28c-76.667 0 -113 12.667 -109 38c2.66699 18 0 27.333 -8 28c-1.33301 0 -3 -0.333008 -5 -1c-110.667 -43.333 -217.334 -65 -320.001 -65h-331
c-360.667 0 -541 100.333 -541 301v625c0 55.333 27.333 83 82 83h58c54.667 0 82 -27.667 82 -83v-625c0 -76.667 106.333 -115 319 -115h331c96 0 174.333 15 235 45c52 26 78 55 78 87v608c0 55.333 27.333 83 82 83h60c55.333 0 83 -27.667 83 -83v-625z" />
    <glyph glyph-name="afii10075" unicode="&#x439;" 
d="M1547 293c0 -26.667 2.33301 -117.667 7 -273c0.666992 -18.667 -33.666 -28 -102.999 -28c-76.667 0 -113 12.667 -109 38c2.66699 18 0 27.333 -8 28c-1.33301 0 -3 -0.333008 -5 -1c-110.667 -43.333 -217.334 -65 -320.001 -65h-331
c-360.667 0 -541 100.333 -541 301v625c0 55.333 27.333 83 82 83h58c54.667 0 82 -27.667 82 -83v-625c0 -76.667 106.333 -115 319 -115h331c96 0 174.333 15 235 45c52 26 78 55 78 87v608c0 55.333 27.333 83 82 83h60c55.333 0 83 -27.667 83 -83v-625zM667 1137h319
c17.333 0 33.666 -5 48.999 -15c18 -11.333 27 -25 27 -41v-84c0 -16 -9 -29.667 -27 -41c-15.333 -10 -31.666 -15 -48.999 -15h-319c-17.333 0 -33.666 5 -48.999 15c-18 11.333 -27 25 -27 41v84c0 16 9 29.667 27 41c15.333 10 31.666 15 48.999 15z" />
    <glyph glyph-name="afii10076" unicode="&#x43a;" horiz-adv-x="1421" 
d="M1260 149c38.667 -19.333 58 -46.332 58 -80.999c0 -50.667 -31.667 -76 -95 -76h-70c-12.667 0 -25 3 -37 9l-759 380v-306c0 -55.333 -27.333 -83 -82 -83h-56c-54.667 0 -82 27.667 -82 83v855c0 54.667 27.333 82 82 82h56c54.667 0 82 -27.333 82 -82v-320l749 374
c18 6 30.333 9 37 9h64c62.667 0 94 -25.333 94 -76c0 -34.667 -19 -61.334 -57 -80.001l-680 -339z" />
    <glyph glyph-name="afii10077" unicode="&#x43b;" horiz-adv-x="1661" 
d="M1629 124l-707.001 834c-24 28.667 -52.333 43 -85 43c-31.333 0 -58.666 -13.667 -81.999 -41l-711 -836c-19.333 -22.667 -29 -45.334 -29 -68.001c0 -44.667 31 -67 93 -67h63c26 0 47.333 10 64 30l603 715l600 -715c16.667 -20 38 -30 64 -30h63
c62 0 93 22.333 93 67c0 22.667 -9.66699 45.334 -29 68.001z" />
    <glyph glyph-name="afii10078" unicode="&#x43c;" horiz-adv-x="1614" 
d="M1560 61c0 -44.667 -18.335 -67 -55.002 -67h-77c-37.333 0 -56 22.333 -56 67v613l-466 -630c-27.333 -36.667 -60.666 -55 -99.999 -55c-41.333 0 -75 18.333 -101 55l-434 613v-596c0 -44.667 -18.667 -67 -56 -67h-87c-36.667 0 -55 22.333 -55 67v844
c0 26.667 8.83301 49.667 26.5 69s39.834 29 66.501 29c66 0 111.667 -17.333 137 -52l505 -699l542 701c24 31.333 65 47 123 47s87 -34.333 87 -103v-836z" />
    <glyph glyph-name="afii10079" unicode="&#x43d;" horiz-adv-x="1555" 
d="M1428 61c0 -44.667 -22.667 -67 -68 -67h-75c-45.333 0 -68 22.333 -68 67v360h-892v-360c0 -44.667 -22.667 -67 -68 -67h-77c-44.667 0 -67 22.333 -67 67v887c0 44.667 22.333 67 67 67h77c45.333 0 68 -22.333 68 -67v-351h892v351c0 44.667 22.667 67 68 67h75
c45.333 0 68 -22.333 68 -67v-887z" />
    <glyph glyph-name="afii10080" unicode="&#x43e;" horiz-adv-x="1650" 
d="M1514 305c0 -116.667 -59.333 -202.333 -178 -257c-80.667 -37.333 -185.667 -56 -315 -56h-369c-238 0 -395.667 59 -473 177c-28 42.667 -42 88 -42 136v372c0 82 38.333 153 115 213c94 74 227 111 399 111h370c328.667 0 493 -107.333 493 -322v-374zM1288 305.001
l0.000976562 388.999c0 80 -91 120 -273 120h-361c-65.333 0 -124.333 -8 -177 -24c-78.667 -24 -118 -61.667 -118 -113v-372c0 -49.333 40 -84.666 120 -105.999c52 -14 110.667 -21 176 -21h361c57.333 0 111.666 8 162.999 24c72.667 22.667 109 57 109 103z" />
    <glyph glyph-name="afii10081" unicode="&#x43f;" horiz-adv-x="1650" 
d="M1514 75c0 -55.333 -27.668 -83 -83.001 -83h-58c-55.333 0 -83 27.667 -83 83v642c0 39.333 -24.333 66 -73 80c-39.333 11.333 -108.666 17 -207.999 17h-362c-103.333 0 -174.333 -5.33301 -213 -16c-50 -14 -75 -41.333 -75 -82v-641c0 -55.333 -27.333 -83 -82 -83
h-58c-54.667 0 -82 27.667 -82 83v639c0 191.333 169.667 287 509 287h363c336.667 0 505 -95 505 -285v-641z" />
    <glyph glyph-name="afii10082" unicode="&#x440;" horiz-adv-x="1669" 
d="M1532 313c0 -208.667 -160 -313.001 -480 -313.001h-693v-205c0 -54.667 -27.333 -82 -82 -82h-58c-54.667 0 -82 27.333 -82 82v906c0 122.667 57.667 207.334 173 254.001c76 30.667 187.333 46 334 46h354c356 0 534 -99 534 -297v-391zM1307 309.999v391
c0 53.333 -41.333 88 -124 104c-34.667 6.66699 -95.667 10 -183 10h-346c-196.667 0 -295 -39.667 -295 -119v-511h693c170 0 255 41.667 255 125z" />
    <glyph glyph-name="afii10083" unicode="&#x441;" horiz-adv-x="1680" 
d="M1565 75c0 -55.333 -34.332 -83 -102.999 -83h-822c-151.333 0 -265 15 -341 45c-119.333 47.333 -179 134 -179 260v398c0 204 158 306 474 306h880c55.333 0 83 -27.667 83 -83v-22c0 -54.667 -27.667 -82 -83 -82h-865c-76.667 0 -132.334 -4.33301 -167.001 -13
c-66.667 -16.667 -100 -50 -100 -100v-395c0 -85.333 101.333 -128 304 -128h836c55.333 0 83 -27.667 83 -83v-20z" />
    <glyph glyph-name="afii10084" unicode="&#x442;" horiz-adv-x="1149" 
d="M1132 877c0 -43.333 -21.333 -65 -64 -65h-394v-753c0 -43.333 -21.333 -65 -64 -65h-54c-56 0 -84 21.667 -84 65v753h-392c-42.667 0 -64 21.667 -64 65v61c0 42.667 21.333 64 64 64h988c42.667 0 64 -21.333 64 -64v-61z" />
    <glyph glyph-name="afii10085" unicode="&#x443;" horiz-adv-x="1661" 
d="M1524 7c0 -196 -159 -294 -477 -294h-179c-55.333 0 -83 27.333 -83 82v26c0 55.333 27.667 83 83 83h181c168 0 252 32 252 96h-663c-334 -0 -501 100.333 -501 301v617c0 55.333 27.333 83 82 83h58c54.667 0 82 -27.667 82 -83v-617c0 -77.333 93 -116 279 -116h663
v733c0 55.333 27.667 83 83 83h58c54.667 0 82 -27.667 82 -83v-911z" />
    <glyph glyph-name="afii10086" unicode="&#x444;" horiz-adv-x="2018" 
d="M875 -5c-1.33301 16.667 -2.00195 36.667 -2.00195 60c0 34.667 1.33301 77.334 4 128.001c-369.333 8 -554 50.333 -554 127v391c0 46.667 41.333 78 124 94l183 10c-0.666992 -4 20 -7 62 -9c123.333 -6 185 -31 185 -75v-538c0 -20.667 -0.333008 -52 -1 -94
s-1 -73.333 -1 -94l1 5l1 -205c0 -54.667 27.333 -82 82 -82h58c54.667 0 82 27.333 82 82v901c0 72.667 95 109 285 109h6c80.667 0 138.334 -3.33301 173.001 -10c82.667 -16 124 -50.667 124 -104v-391c0 -38.667 -46.333 -69.667 -139 -93
c-82 -20.667 -170.667 -29.667 -266 -27l-183 5l3 -185c29.333 -4.66699 77.333 -7 144 -7c166.667 0 306.667 18 420 54c164 52 246 137.333 246 256v391c0 198 -174.667 297 -524 297h-14c-122 0 -230 -8.66699 -324 -26c-22 -4 -48 -6 -78 -6
c-39.333 0 -96.666 4.66699 -171.999 14c-86 10.667 -142 16.667 -168 18c-356 -22.667 -534 -118.334 -534 -287.001v-391c0 -208.667 160 -313 480 -313h120z" />
    <glyph glyph-name="afii10087" unicode="&#x445;" horiz-adv-x="1436" 
d="M1391 142c30.667 -22.667 46.001 -48.334 46.001 -77.001c0 -48.667 -31.667 -73 -95 -73h-66c-18 0 -34.333 5.33301 -49 16l-496 363l-502 -363c-14.667 -10.667 -30.667 -16 -48 -16h-69c-63.333 0 -95 24.333 -95 73c0 28.667 15.667 54.334 47 77.001l495 354
l-489 355c-30.667 22 -46 47.667 -46 77c0 48.667 31.667 73 95 73h70c18 0 34.333 -5.33301 49 -16l494 -362l483 361c15.333 11.333 31.666 17 48.999 17h67c62.667 0 94 -24.333 94 -73c0 -28.667 -15 -54 -45 -76l-478 -353z" />
    <glyph glyph-name="afii10088" unicode="&#x446;" horiz-adv-x="1745" 
d="M1524 190h126.999c22.667 -2.66699 45.334 -4.66699 68.001 -6c46.667 -2 68 -25.333 64 -70l-7 -73c-2 -23.333 -25.333 -37 -70 -41h-1068c-334 -0 -501 100.333 -501 301v617c0 55.333 27.333 83 82 83h58c54.667 0 82 -27.667 82 -83v-617
c0 -77.333 93 -116 279 -116h663v733c0 55.333 27.667 83 83 83h58c54.667 0 82 -27.667 82 -83v-728z" />
    <glyph glyph-name="afii10089" unicode="&#x447;" horiz-adv-x="1260" 
d="M101 946c0 45.333 20.332 68 60.999 68h72c40.667 0 61 -22.667 61 -68v-420c0 -50 27.333 -83 82 -99c27.333 -8 73.333 -12 138 -12h441v531c0 45.333 20.333 68 61 68h63c40 0 60 -22.667 60 -68v-886c0 -44 -20 -66 -60 -66h-63c-40.667 0 -61 22 -61 66v184h-432
c-127.333 0 -219.666 11.333 -276.999 34c-97.333 38.667 -146 114 -146 226v442z" />
    <glyph glyph-name="afii10090" unicode="&#x448;" horiz-adv-x="1891" 
d="M1364 -6c268 0 402.001 87.999 402.001 263.999v689c0 44.667 -23.667 67 -71 67h-60c-47.333 0 -71 -22.333 -71 -67v-690c0 -62 -68.333 -93 -205 -93h-117c-80.667 0 -127.334 2.33301 -140.001 7c-34.667 12.667 -52 49.334 -52 110.001v666
c0 44.667 -23.667 67 -71 67h-70c-48 0 -72 -22.333 -72 -67v-659c0 -60.667 -8.33301 -96 -25 -106c-20 -12 -68.333 -18 -145 -18h-127c-140 0 -210 31.667 -210 95v688c0 44.667 -23.667 67 -71 67h-70c-47.333 0 -71 -22.333 -71 -67v-689c0 -176 139.333 -264 418 -264
h364c6 0 15 -0.333008 27 -1z" />
    <glyph glyph-name="afii10091" unicode="&#x449;" horiz-adv-x="1865" 
d="M1711 947c0 44.667 -22.667 67 -68 67h-69c-46 0 -69 -22.333 -69 -67v-690c0 -62 -65.667 -93 -197 -93h-122c-82 0 -128 2.66699 -138 8c-24 12.667 -36 49 -36 109v666c0 44.667 -23 67 -69 67h-68c-46 0 -69 -22.333 -69 -67v-669c0 -54 -8.33301 -86 -25 -96
c-19.333 -12 -65.333 -18 -138 -18h-123c-141.333 0 -212 31.667 -212 95v688c0 44.667 -22.667 67 -68 67h-68c-45.333 0 -68 -22.333 -68 -67v-689c0 -176 137.333 -264 412 -264h351c6 0 14.5 -0.333008 25.5 -1s19.5 -1 25.5 -1h111l595 2c62 0 131.333 1.33301 208 4
c22 5.33301 41.333 24.333 58 57c6 12 9 21.667 9 29c0 26.667 -7 48.667 -21 66c-6.66699 8.66699 -13 14 -19 16c-17.333 6 -45.333 9 -84 9h-51c-8.66699 0 -13 4.66699 -13 14v758z" />
    <glyph glyph-name="afii10092" unicode="&#x44a;" horiz-adv-x="1271" 
d="M1162 245c0 -122.667 -69.335 -200.333 -208.002 -233c-51.333 -12 -110.666 -18 -177.999 -18h-250c-53.333 0 -107.666 7.33301 -162.999 22c-170.667 45.333 -256 120.333 -256 225l1 609c-69.333 -0.666992 -104 12.333 -104 39v87c0 23.333 18 36 54 38l101 4
c87.333 4 131 -12.667 131 -50v-271h486c257.333 0 386 -83 386 -249v-203zM988.998 262.001v173c0 68.667 -70 103 -210 103h-489v-286c0 -24.667 29.333 -46.667 88 -66c50 -16.667 105.667 -25 167 -25h232c76 0 128.333 6 157 18c36.667 15.333 55 43 55 83z" />
    <glyph glyph-name="afii10093" unicode="&#x44b;" horiz-adv-x="1572" 
d="M1222 248c0 -169.333 -136.333 -254 -409 -254h-266c-56.667 0 -114 7.33301 -172 22c-166.667 42 -250 118 -250 228v710c0 44.667 21 67 63 67h66c42 0 63 -22.333 63 -67v-250h496c272.667 0 409 -83.667 409 -251v-205zM1040 274v166.001
c0 69.333 -74.667 104 -224 104h-499v-279c0 -31.333 31.333 -57 94 -77c52.667 -16.667 105 -25 157 -25h246c83.333 0 139.333 5.66699 168 17c38.667 15.333 58 46.666 58 93.999zM1311 1028h88c12 0 22.333 -7 31 -21s13 -27.333 13 -40v-906
c0 -12.667 -4.33301 -26 -13 -40s-19 -21 -31 -21h-88c-12 0 -22.167 7 -30.5 21s-12.5 27.333 -12.5 40v906c0 12.667 4.16699 26 12.5 40s18.5 21 30.5 21z" />
    <glyph glyph-name="afii10094" unicode="&#x44c;" horiz-adv-x="1653" 
d="M1528 244c0 -122 -92 -199.333 -276 -232c-68 -12 -146.667 -18 -236 -18h-332c-70 0 -142 7.33301 -216 22c-208.667 41.333 -313 116 -313 224v700c0 44 26.667 66 80 66h56c53.333 0 80 -22 80 -66v-246h645c341.333 0 512 -82.667 512 -248v-202zM1312 270v152.998
c0 68.667 -97.333 103 -292 103h-649v-265c0 -31.333 39 -56.666 117 -75.999c64.667 -16 138.667 -24 222 -24h308c110.667 0 184.667 5.66699 222 17c48 14.667 72 45.334 72 92.001z" />
    <glyph glyph-name="afii10095" unicode="&#x44d;" horiz-adv-x="1245" 
d="M97 513l1 -41.001c1.33301 -41.333 20.666 -62 57.999 -62h783v-137c0 -71.333 -67 -107 -201 -107h-582c-38.667 0 -58 -22 -58 -66v-41c0 -43.333 19.333 -65 58 -65h589c22.667 0 45.667 1.33301 69 4c200 22.667 300 105.667 300 249v502
c0 94.667 -49 165.334 -147 212.001c-66 31.333 -144.667 47 -236 47h-161c-38 0 -57 -21.667 -57 -65v-31c0 -50 19 -75 57 -75h168l35 -3c58.667 -5.33301 99.334 -14.666 122.001 -27.999c30.667 -18.667 46 -44.334 46 -77.001v-147h-786c-40 0 -59.333 -23 -58 -69z
" />
    <glyph glyph-name="afii10096" unicode="&#x44e;" horiz-adv-x="1407" 
d="M372 566h-105v404c0 29.333 -13.667 44 -41 44h-99c-28 0 -42 -14.667 -42 -44v-933c0 -24.667 14 -37 42 -37h99c27.333 -0 41 12.333 41 37v356zM372 566v171c0 184 145.667 276 437 276h48c131.333 0 228 -13 290 -39c98.667 -41.333 148 -120.333 148 -237v-470
c0 -182 -146 -273 -438 -273h-47c-209.333 0 -344 50 -404 150c-22.667 37.333 -34 78 -34 122v127h-105zM1113 281v442c0 86 -84 129 -252 129h-53c-168.667 0 -253 -43 -253 -129v-442c0 -83.333 84.333 -125 253 -125h54c167.333 0 251 41.667 251 125z" />
    <glyph glyph-name="afii10097" unicode="&#x44f;" horiz-adv-x="1240" 
d="M111 631c0 -86.667 35 -151.667 105 -195c57.333 -36 132 -54 224 -54h185l-486 -262c-26.667 -14.667 -40 -36 -40 -64c0 -20 14 -36 42 -48c22 -9.33301 44.667 -14 68 -14c26 0 53.667 1.66699 83 5l637 362v-302c0 -43.333 21 -65 63 -65h74
c34.667 0 52 21.667 52 65v886c0 43.333 -17.333 65 -52 65h-598c-238 0 -357 -85.667 -357 -257v-122zM300 639v118c0 38.667 27 63.667 81 75c22.667 4.66699 65 7 127 7h421v-285h-447c-121.333 0 -182 28.333 -182 85z" />
    <glyph glyph-name="afii10071" unicode="&#x451;" horiz-adv-x="1651" 
d="M1527 479c0 -61.333 -20.668 -92 -62.001 -92h-1104c0 -139.333 96 -209 288 -209h166c54.667 0 82 -27.667 82 -83v-20c0 -55.333 -27.333 -83 -82 -83h-142c-142 0 -258 18.667 -348 56c-128.667 53.333 -193 141 -193 263v371c0 116.667 63.667 203 191 259
c92.667 40.667 206.334 61 341.001 61h415c112 0 208.333 -19 289 -57c106 -50 159 -124.333 159 -223v-243zM1311 580v124c0 38 -42.667 67.333 -128 88c-60 14.667 -117.333 22 -172 22h-322c-223.333 0 -335 -39.333 -335 -118v-116h957zM425.999 1260h182
c50.667 0 76 -18.667 76 -56v-70c0 -37.333 -25.333 -56 -76 -56h-182c-50.667 0 -76 18.667 -76 56v70c0 37.333 25.333 56 76 56zM995.999 1260h192c44 0 66 -18.667 66 -56v-70c0 -37.333 -25.333 -56 -76 -56h-182c-50.667 0 -76 18.667 -76 56v70
c0 37.333 25.333 56 76 56z" />
    <glyph glyph-name="endash" unicode="&#x2013;" horiz-adv-x="1878" 
d="M1721 597c0 -54.667 -27.333 -82 -82 -82h-1399c-54.667 0 -82 27.333 -82 82v57c0 55.333 27.333 83 82 83h1399c54.667 0 82 -27.667 82 -83v-57z" />
    <glyph glyph-name="emdash" unicode="&#x2014;" horiz-adv-x="1300" 
d="M1264 516c0 -54.667 -27.667 -82 -83 -82h-1062c-55.333 0 -83 27.333 -83 82v66c0 55.333 27.667 83 83 83h1062c55.333 0 83 -27.667 83 -83v-66z" />
    <glyph glyph-name="quoteleft" unicode="&#x2018;" horiz-adv-x="482" 
d="M386 1163l-50.999 -305c-8 -46 -35 -69 -81 -69h-68c-56 0 -84 24.333 -84 73v11c1.33301 5.33301 2 9.33301 2 12l50 305c7.33301 46 34.666 69 81.999 69h68c56 0 84 -24.333 84 -73v-11c-1.33301 -5.33301 -2 -9.33301 -2 -12z" />
    <glyph glyph-name="quoteright" unicode="&#x2019;" horiz-adv-x="482" 
d="M386 1163l-50.999 -305c-8 -46 -35 -69 -81 -69h-68c-56 0 -84 24.333 -84 73v11c1.33301 5.33301 2 9.33301 2 12l50 305c7.33301 46 34.666 69 81.999 69h68c56 0 84 -24.333 84 -73v-11c-1.33301 -5.33301 -2 -9.33301 -2 -12z" />
    <glyph glyph-name="quotedblleft" unicode="&#x201c;" horiz-adv-x="763" 
d="M683 1163l-50.999 -305c-8 -46 -35 -69 -81 -69h-68c-56 0 -84 24.333 -84 73v11c1.33301 5.33301 2 9.33301 2 12l50 305c7.33301 46 34.666 69 81.999 69h68c56 0 84 -24.333 84 -73v-11c-1.33301 -5.33301 -2 -9.33301 -2 -12zM386.001 1163l-50.999 -305
c-8 -46 -35 -69 -81 -69h-68c-56 0 -84 24.333 -84 73v11c1.33301 5.33301 2 9.33301 2 12l50 305c7.33301 46 34.666 69 81.999 69h68c56 0 84 -24.333 84 -73v-11c-1.33301 -5.33301 -2 -9.33301 -2 -12z" />
    <glyph glyph-name="quotedblright" unicode="&#x201d;" horiz-adv-x="763" 
d="M683 1163l-50.999 -305c-8 -46 -35 -69 -81 -69h-68c-56 0 -84 24.333 -84 73v11c1.33301 5.33301 2 9.33301 2 12l50 305c7.33301 46 34.666 69 81.999 69h68c56 0 84 -24.333 84 -73v-11c-1.33301 -5.33301 -2 -9.33301 -2 -12zM386.001 1163l-50.999 -305
c-8 -46 -35 -69 -81 -69h-68c-56 0 -84 24.333 -84 73v11c1.33301 5.33301 2 9.33301 2 12l50 305c7.33301 46 34.666 69 81.999 69h68c56 0 84 -24.333 84 -73v-11c-1.33301 -5.33301 -2 -9.33301 -2 -12z" />
    <glyph glyph-name="bullet" unicode="&#x2022;" horiz-adv-x="1058" 
d="M960 634c0 -114 -44 -206 -132 -276c-82 -65.333 -181.333 -98 -298 -98s-216 32 -298 96c-89.333 70 -134 162 -134 276c0 106.667 47 191.667 141 255c82.667 56 179.667 84 291 84c110.667 0 207 -27.667 289 -83c94 -63.333 141 -148 141 -254z" />
    <glyph glyph-name="ellipsis" unicode="&#x2026;" horiz-adv-x="1997" 
d="M157 107c0 33.333 11.998 62.166 35.998 86.499s53 36.5 87 36.5c34.667 0 63.834 -12.167 87.501 -36.5s35.5 -53.166 35.5 -86.499s-12 -61.833 -36 -85.5s-53 -35.5 -87 -35.5c-33.333 0 -62.166 11.833 -86.499 35.5s-36.5 52.167 -36.5 85.5zM859.998 107
c0 33.333 11.8311 62.166 35.498 86.499s52.834 36.5 87.501 36.5c34 0 63 -12.167 87 -36.5s36 -53.166 36 -86.499s-12.167 -61.833 -36.5 -85.5s-53.166 -35.5 -86.499 -35.5c-34 0 -63 11.833 -87 35.5s-36 52.167 -36 85.5zM1564 107
c0 33.333 11.998 62.166 35.998 86.499s53 36.5 87 36.5c34.667 0 63.834 -12.167 87.501 -36.5s35.5 -53.166 35.5 -86.499s-12 -61.833 -36 -85.5s-53 -35.5 -87 -35.5c-33.333 0 -62.166 11.833 -86.499 35.5s-36.5 52.167 -36.5 85.5z" />
    <glyph glyph-name="Euro" unicode="&#x20ac;" horiz-adv-x="891" 
d="M846 18c-56.667 -17.333 -125.665 -25.999 -206.998 -25.999c-137.333 0 -240.333 41.667 -309 125s-110.334 226 -125.001 428h-187l30 135h157v154h-135l30 135h105c12.667 182.667 55.167 316.667 127.5 402s178.5 128 318.5 128c71.333 0 136.333 -8 195 -24v-151
c-62 16 -120.667 24 -176 24c-65.333 0 -112.333 -29.333 -141 -88s-47.334 -154 -56.001 -286h363l-30 -135h-333v-154h309l-30 -135h-279c6.66699 -146.667 24.5 -251.334 53.5 -314.001s78.833 -94 149.5 -94c42 0 98.667 11 170 33v-157z" />
    <glyph glyph-name="trademark" unicode="&#x2122;" horiz-adv-x="1468" 
d="M1376 743h-188v476l-131 -232h-80l-129 227v-471h-191v746h152l209 -350l205 350h153v-746zM586 1364h-178v-621h-199v621h-178v125h555v-125z" />
    <glyph glyph-name="arrowleft" unicode="&#x2190;" horiz-adv-x="2048" 
d="M492 486c-80.667 90 -150.333 158.5 -209 205.5s-126.667 90.833 -204 131.5v46c77.333 40.667 145 84.167 203 130.5s128 114.833 210 205.5h76c-30.667 -64 -56.5 -113.167 -77.5 -147.5s-50.5 -75.833 -88.5 -124.5h1566v-175h-1566c36.667 -46 66 -86.833 88 -122.5
s48 -85.5 78 -149.5h-76z" />
    <glyph glyph-name="arrowup" unicode="&#x2191;" horiz-adv-x="1024" 
d="M153 1255c90 81.333 158.501 151.167 205.501 209.5s88.5 126.166 124.5 203.499h118c45.333 -77.333 86.666 -143.666 123.999 -198.999s99.333 -126.666 186 -213.999l-19 -83c-78 35.333 -134.167 63.666 -168.5 84.999s-55.833 46.333 -64.5 75v-1432h-234v1445
c-46 -36 -86.833 -65 -122.5 -87s-85.5 -48.333 -149.5 -79v76z" />
    <glyph glyph-name="arrowright" unicode="&#x2192;" horiz-adv-x="2048" 
d="M1555 1205c81.333 -90 151.17 -158.334 209.503 -205.001s126.166 -90.667 203.499 -132v-45c-77.333 -40.667 -144.833 -84.167 -202.5 -130.5s-127.834 -115.166 -210.501 -206.499h-76c30.667 64.667 56.667 114.167 78 148.5s50.666 75.5 87.999 123.5h-1566v175
h1566c-36 46 -65 86.833 -87 122.5s-48.333 85.5 -79 149.5h76z" />
    <glyph glyph-name="arrowdown" unicode="&#x2193;" horiz-adv-x="1024" 
d="M891 300l-205.998 -196.503c-60 -58.333 -93 -126.166 -99 -203.499h-97c-40.667 77.333 -84.334 144.833 -131.001 202.5s-115.334 127.834 -206.001 210.501v76c64.667 -30.667 114.167 -56.667 148.5 -78s75.5 -50.666 123.5 -87.999v1445h208v-1451
c24 40 53.833 71 89.5 93s85.5 48.333 149.5 79z" />
    <glyph glyph-name="arrowboth" unicode="&#x2194;" horiz-adv-x="1850" 
d="M539 911h772v293h64l375 -325v-64l-375 -325h-64v293h-772v-293h-64l-375 325v64l375 325h64v-293z" />
    <glyph glyph-name="arrowupdn" unicode="&#x2195;" horiz-adv-x="1024" 
d="M600 1468l0.00292969 -1243c45.333 36 86 65.167 122 87.5s86 48.833 150 79.5v-77c-90 -80.667 -158.5 -150.167 -205.5 -208.5s-90.833 -126.5 -131.5 -204.5h-45c-40.667 77.333 -84.334 145 -131.001 203s-115.334 128 -206.001 210v77
c64 -31.333 113.167 -57.333 147.5 -78s75.833 -50.334 124.5 -89.001v1243c-46 -36 -86.833 -65 -122.5 -87s-85.5 -48.333 -149.5 -79v76c90 81.333 158.5 151.166 205.5 209.499s90.833 126.5 131.5 204.5h45c40.667 -78 84.167 -145.833 130.5 -203.5
s115.166 -127.834 206.499 -210.501v-76c-64.667 30.667 -114.167 56.667 -148.5 78s-75.5 50.666 -123.5 87.999z" />
    <glyph glyph-name="arrowupdnbse" unicode="&#x21a8;" horiz-adv-x="1024" 
d="M599 1468l0.00292969 -1243c45.333 36 86 65.167 122 87.5s86 48.833 150 79.5v-77c-90 -80.667 -158.5 -150.167 -205.5 -208.5s-90.5 -126.5 -130.5 -204.5h-46c-40.667 77.333 -84.334 145 -131.001 203s-115.334 128 -206.001 210v77
c64 -31.333 113.167 -57.333 147.5 -78s75.833 -50.334 124.5 -89.001v1243c-46 -36 -86.833 -65 -122.5 -87s-85.5 -48.333 -149.5 -79v76c90 81.333 158.5 151.166 205.5 209.499s90.833 126.5 131.5 204.5h45c40.667 -78 84.167 -145.833 130.5 -203.5
s115.166 -127.834 206.499 -210.501v-76c-64.667 30.667 -114.167 56.667 -148.5 78s-75.5 50.666 -123.5 87.999zM152.003 -172.996h719v-175h-719v175z" />
    <glyph glyph-name="uni21B2" unicode="&#x21b2;" horiz-adv-x="1460" 
d="M1163 337l-612 -1c71.333 -48 123.333 -132 156 -252l-72 1c-97.333 132 -227 232.333 -389 301v79c166 60.667 295.667 159 389 295h72c-32.667 -96 -86.667 -186.333 -162 -271h489v721h129v-873z" />
    <glyph glyph-name="uni21B3" unicode="&#x21b3;" horiz-adv-x="1460" 
d="M1214 416c-165.333 -60.667 -295 -159 -389 -295h-71c32 95.333 85.667 185.333 161 270h-587v819h98v-721h489c-75.333 84.667 -129 175 -161 271h71c94 -136 223.667 -234.333 389 -295v-49z" />
    <glyph glyph-name="uni21EE" unicode="&#x21ee;" horiz-adv-x="2048" 
d="M402 934l1243 -0.000976562c-36 45.333 -65 86 -87 122s-48.333 86 -79 150h76c81.333 -90 151.166 -158.333 209.499 -205s126.166 -90.667 203.499 -132v-45c-77.333 -40.667 -144.833 -84.167 -202.5 -130.5s-127.834 -115.166 -210.501 -206.499h-76
c30.667 64.667 56.5 114 77.5 148s50.5 75.333 88.5 124h-1243c36.667 -46 66 -86.833 88 -122.5s48 -85.5 78 -149.5h-76c-80.667 90 -150.334 158.5 -209.001 205.5s-126.667 90.833 -204 131.5v46c77.333 40.667 145 84.167 203 130.5s128 114.833 210 205.5h76
c-30.667 -64 -56.5 -113.167 -77.5 -147.5s-50.5 -75.833 -88.5 -124.5z" />
    <glyph glyph-name="uniF200" unicode="&#xf200;" horiz-adv-x="1140" 
d="M1040 0h-940v464h226v-238h488v238h226v-464z" />
    <glyph glyph-name="uniF200" unicode="&#xf800;" horiz-adv-x="1140" 
d="M1040 0h-940v464h226v-238h488v238h226v-464z" />
    <glyph glyph-name="uniF201" unicode="&#xf201;" horiz-adv-x="1145" 
d="M389 243c38.667 -64.667 72.667 -148.333 102 -251h-112c-73.333 116 -166.333 217.667 -279 305v119c112.667 87.333 209 189 289 305h102c-29.333 -102 -63.333 -186 -102 -252h430v250h226v-476h-656z" />
    <glyph glyph-name="uniF201" unicode="&#xf801;" horiz-adv-x="1145" 
d="M389 243c38.667 -64.667 72.667 -148.333 102 -251h-112c-73.333 116 -166.333 217.667 -279 305v119c112.667 87.333 209 189 289 305h102c-29.333 -102 -63.333 -186 -102 -252h430v250h226v-476h-656z" />
    <glyph glyph-name="uniF209" unicode="&#xf209;" horiz-adv-x="1272" 
d="M802 -6h-148.001c38.667 136 83.667 257 135 363h-689v583h226v-357h463c-51.333 106 -96.333 227 -135 363h135c106 -152 233.667 -286 383 -402v-148c-149.333 -116 -272.666 -250 -369.999 -402z" />
    <glyph glyph-name="uniF209" unicode="&#xf809;" horiz-adv-x="1272" 
d="M802 -6h-148.001c38.667 136 83.667 257 135 363h-689v583h226v-357h463c-51.333 106 -96.333 227 -135 363h135c106 -152 233.667 -286 383 -402v-148c-149.333 -116 -272.666 -250 -369.999 -402z" />
    <glyph glyph-name=".null" horiz-adv-x="0" 
 />
    <glyph glyph-name="nonmarkingreturn" horiz-adv-x="1113" 
 />
    </font>
</defs>
</svg>
