<svg
                xmlns="http://www.w3.org/2000/svg"
                width="169"
                height="236"
                viewBox="0 0 169 236"
              >
                <g>
                  <g>
                    <path
                      fill="#a0a0a0"
                      d="M144.912 206.025l-.163.833-.649.55-.226.191-.198.17-.67.572h-.883l-9.134.02c-6.566.015-13.35.036-20.028.036-15.48 0-30.97.007-46.457.007H32.35c-.516 0-1.017-.042-1.455-.077l-.536-.043-.819-.056-.614-.544-.353-.31-.741-.657-.064-.988a57.321 57.321 0 0 0-.261-2.732c-.24-2.168-.487-4.412-.233-6.7 1.01-9 3.981-17.867 9.354-27.912 5.322-9.96 10.97-18.467 17.26-26.014 5.202-6.24 10.695-12.389 16.003-18.333l.452-.508c3.156-3.53 3.05-7.794-.268-11.133-9.686-9.735-18.503-20.599-26.197-32.282-7.06-10.723-11.634-20.049-14.394-29.36-1.815-6.12-2.563-11.888-2.288-17.641.043-.854.24-1.617.417-2.295.063-.24.127-.48.183-.72l.382-1.757 1.793-.134c.077 0 .162-.015.24-.022.233-.02.53-.05.854-.05 35.177.008 70.36.022 105.537.03h8.062l.254 2.117c1.948 15.996-4.469 29.868-11.69 42.469-5.683 9.925-12.686 19.554-21.411 29.437-3.58 4.06-6.396 7.137-9.142 9.982-3.7 3.833-3.7 7.9-.014 11.747 14.02 14.641 24.227 28.06 32.113 42.236 4.327 7.772 7.108 14.472 8.767 21.065 1.469 5.831 2.64 12.142 1.356 18.806zm14.133 2.866c-1.391-.233-2.429-.84-3.078-1.8-.657-.96-.833-2.174-.53-3.6 1.116-5.245.325-10.646-.571-15.728-1.617-9.093-4.914-18.072-10.088-27.433-7.243-13.11-16.343-25.35-27.828-37.414-3.022-3.177-3.057-6.234-.106-9.615l1.8-2.062c3.84-4.398 7.815-8.937 11.52-13.54 8.769-10.87 15.313-21.827 20-33.489 4.017-9.982 5.86-19.01 5.633-27.616-.035-1.39-.17-2.81-.29-4.066-.049-.558-.105-1.08-.14-1.553l-.127-1.581 1.404-.742c.925-.487 1.829-.91 2.704-1.327 1.694-.805 3.297-1.56 4.56-2.534 3.445-2.654 4.73-6.424 4.3-12.594-.438-6.184-6.149-10.984-10.773-10.984h-.699l-.557-.311-.022-.014h-.218c-.572-.014-1.116-.028-1.652-.028H16.044c-.848 0-1.695.028-2.584.05-.318.006-.635.02-.953.027l-.699.19-.233.064-.24.015c-3.085.211-5.471 1.46-7.518 3.932C1.48 7.954.506 11.216.753 15.388c.36 5.993 3.487 10.32 8.591 11.888 1.25.38 2.577.62 3.982.882.663.12 1.341.247 2.026.388l2.301.473-.416 2.309c-.05.282-.113.557-.17.84-.099.473-.197.925-.226 1.306-.663 9.58 1.158 19.42 5.74 30.976 3.459 8.74 8.245 17.373 14.62 26.388 2.993 4.229 6.402 8.33 9.699 12.297a489.567 489.567 0 0 1 3.58 4.335c2.209 2.71 4.058 4.828 5.83 6.67 1.687 1.759 3.021 4.639-.219 8.38-.797.918-1.638 1.786-2.45 2.626-1.086 1.123-2.117 2.189-3.014 3.325a663.755 663.755 0 0 1-4.412 5.549c-4.299 5.372-8.74 10.935-12.58 16.695-7.941 11.923-13.109 23.734-15.805 36.095-1.215 5.584-1.116 11.238-.89 17.02v.247c.057 1.016.106 2.273-.868 3.304-.897.945-2.11 1.073-3.071 1.087-8.012.07-11.549 6.155-12.198 11.824-.445 3.946.755 7.843 3.296 10.688 2.57 2.88 6.304 4.461 10.512 4.461h.113c19.2-.127 40.104-.183 65.778-.183 14.366 0 28.965.014 43.09.035 10.801.014 21.595.028 32.396.028 3.177 0 5.965-1.115 8.52-3.416 3.156-2.838 3.791-6.445 3.777-11.352-.007-5.668-4.073-10.793-9.254-11.669z"
                    />
                  </g>
                  <g>
                    <path
                      fill="#a0a0a0"
                      d="M128.958 186.908c-1.313-6.12-3.488-12.212-6.474-18.107-7.038-13.907-17.528-26.5-33.01-39.63-1.891-1.603-3.084-2.323-3.868-2.323-.557 0-1.136.367-2.216 1.193-7.603 5.817-14.747 12.784-21.228 20.712-7.836 9.586-12.72 17.578-15.84 25.922-1.61 4.306-2.712 8.93-3.77 13.405-.234.982-.466 1.97-.706 2.944-.078.325-.12.79.134 1.207.211.346.607.6 1.1.713l1.35.261 16.977.022c14.43.014 28.851.028 43.28.035h.573c5.096 0 10.193-.021 15.29-.042 2.344-.008 4.68-.022 7.017-.029l.452-.233.19-.028c1.193-.19 1.264-.748 1.236-1.313-.085-1.638-.184-3.233-.501-4.716z"
                    />
                  </g>
                  <g>
                    <path
                      fill="#a0a0a0"
                      d="M84.046 109.68c.508.423 1.045.642 1.589.642.55 0 1.094-.226 1.616-.67a854.369 854.369 0 0 1 3.869-3.248c4.115-3.445 8.38-7.01 12.332-10.737 1.9-1.794 3.48-3.89 5.154-6.107.72-.96 1.468-1.948 2.237-2.901l-.31-.064c-.396-.084-.77-.17-1.087-.17-8.055-.006-16.11-.013-24.164-.013-8.055 0-15.651 0-23.473.014-.282 0-.635.092-1.002.19l-.501.128c.035.035.063.07.091.098.127.127.233.24.304.332.445.565.89 1.137 1.334 1.709 1.963 2.527 3.989 5.139 6.304 7.299 4.271 3.988 8.86 7.8 13.293 11.485l2.414 2.012z"
                    />
                  </g>
                </g>
              </svg>