<svg
                    xmlns="http://www.w3.org/2000/svg"
                    width="23"
                    height="23"
                    viewBox="0 0 23 23"
                  >
                    <g>
                      <g>
                        <path
                          fill="#707070"
                          d="M11.514 21.275c2.712 0 5.017-.954 6.915-2.86 1.897-1.908 2.846-4.217 2.846-6.93 0-2.711-.947-5.016-2.84-6.914-1.895-1.897-4.206-2.846-6.935-2.846-2.703 0-5.007.947-6.914 2.84C2.679 6.46 1.725 8.772 1.725 11.5c0 2.703.954 5.007 2.86 6.914 1.908 1.907 4.217 2.861 6.93 2.861zM11.508 23c-1.586 0-3.076-.302-4.471-.906a11.685 11.685 0 0 1-3.659-2.472A11.679 11.679 0 0 1 .906 15.96 11.153 11.153 0 0 1 0 11.486c0-1.588.302-3.08.906-4.476a11.506 11.506 0 0 1 2.472-3.646A11.802 11.802 0 0 1 7.04.906 11.152 11.152 0 0 1 11.514 0c1.588 0 3.08.302 4.476.906a11.626 11.626 0 0 1 3.646 2.458 11.613 11.613 0 0 1 2.458 3.651c.604 1.4.906 2.892.906 4.477 0 1.586-.302 3.076-.906 4.471a11.745 11.745 0 0 1-2.458 3.654 11.61 11.61 0 0 1-3.651 2.472c-1.4.607-2.892.911-4.477.911zm-.009-14.778a.933.933 0 0 1-.675-.264.877.877 0 0 1-.273-.656.96.96 0 0 1 .273-.696.905.905 0 0 1 .677-.281c.268 0 .493.094.675.281.182.187.273.42.273.696 0 .261-.091.48-.273.656a.934.934 0 0 1-.677.264zm-.775 2.128h1.725v6.9h-1.725z"
                        />
                      </g>
                    </g>
                  </svg>