<svg xmlns="http://www.w3.org/2000/svg" width="36" height="34" viewBox="0 0 36 34"><g><g clip-path="url(#clip-d21430cc-ca02-4b36-83b5-7e5301c665e5)"><path fill="#707070" d="M4.135 18.701c.472-.427.936-.864 1.418-1.28.643-.557 1.302-1.095 1.95-1.646.656-.558 1.308-1.122 1.959-1.687.643-.557 1.278-1.124 1.923-1.68.614-.528 1.239-1.045 1.856-1.571.63-.536 1.255-1.077 1.882-1.616.653-.56 1.306-1.121 1.957-1.683.095-.083.183-.174.273-.262.4-.393.905-.386 1.321-.024.958.833 1.933 1.645 2.896 2.472.84.72 1.67 1.451 2.509 2.172.82.704 1.65 1.397 2.468 2.102.99.853 1.971 1.717 2.96 2.57.752.649 1.512 1.287 2.264 1.933.103.089.186.2.279.3-.021.106-.06.214-.06.321-.003 4.149-.003 8.298 0 12.447 0 .105.045.211.068.317-.118.764-.82 1.27-1.366 1.363l-.083-.077c-.12-.022-.24-.064-.36-.064-2.648-.004-5.296-.004-7.944 0-.12 0-.239.043-.358.066l-.08.069-.218-.219c.02-.107.059-.215.06-.323.003-2.69.005-5.382.001-8.073 0-.117-.051-.235-.079-.352a.322.322 0 0 1-.06-.005c-.093-.64-.502-.992-1.077-1.197-1.573-.004-3.145-.01-4.718-.01-.082 0-.165.041-.248.063-.52.124-.897.563-.98 1.144a.247.247 0 0 1-.062.005c-.026.13-.077.26-.077.39-.004 2.666-.004 5.331 0 7.997 0 .12.037.24.057.361l-.218.22c-.107-.02-.214-.059-.322-.06-2.966-.025-5.933-.046-8.9-.068l.012.01-.168-.091-.029.003-.025-.014-.023-.102-.058.035c-.361-.272-.62-.608-.676-1.072.023-.131.068-.262.068-.393.005-4.264.007-8.527.008-12.79"/></g><g clip-path="url(#clip-d21430cc-ca02-4b36-83b5-7e5301c665e5)"><path fill="#707070" d="M28.328 3.588c.283.13.606.21.698.573-.002 1.68-.007 3.361 0 5.042 0 .102.084.204.13.306l.088.085c.852.742 1.702 1.485 2.555 2.225.846.734 1.696 1.464 2.542 2.197.4.346.815.677 1.188 1.05.46.461.533 1.017.282 1.618-.212.507-.71.78-1.306.83-.505.041-.858-.186-1.202-.478a319.6 319.6 0 0 1-2.623-2.242c-1.002-.868-1.99-1.753-2.994-2.62-.815-.701-1.65-1.378-2.466-2.08-.796-.684-1.574-1.39-2.37-2.076-.843-.727-1.703-1.436-2.548-2.161-.608-.522-1.202-1.06-1.805-1.586-.132-.115-.277-.214-.455-.35-.584.49-1.173.976-1.753 1.474-.83.712-1.653 1.434-2.48 2.15a2246.146 2246.146 0 0 1-4.835 4.158c-.812.696-1.623 1.392-2.435 2.086-1.043.89-2.086 1.78-3.134 2.665-.39.328-.76.706-1.203.938-.479.252-1.036.2-1.478-.145-.455-.355-.617-.85-.543-1.441.085-.685.637-.975 1.072-1.364.654-.584 1.32-1.152 1.983-1.725a455.23 455.23 0 0 1 1.794-1.543c.657-.562 1.316-1.12 1.973-1.681.647-.552 1.295-1.1 1.938-1.656.823-.713 1.64-1.434 2.463-2.145.594-.514 1.198-1.016 1.793-1.528.665-.571 1.323-1.15 1.988-1.72.673-.578 1.336-1.17 2.032-1.718.41-.323 1.363-.295 1.856.138 1.209 1.062 2.439 2.1 3.657 3.152.694.599 1.38 1.205 2.12 1.851.024-.152.053-.264.056-.376.008-.266.03-.536-.003-.799-.072-.576.218-.977.844-1.13l.076.023c.463.021.925.056 1.388.06.323.002.646-.039.97-.06l.147.003"/></g></g></svg>