<svg xmlns="http://www.w3.org/2000/svg" width="26" height="27" viewBox="0 0 26 27"><g><g clip-path="url(#clip-da21a352-b20c-4e87-9c51-20e51c221937)"><path fill="#707070" d="M5.797 20.465c.79-2.91 3.484-5.648 7.489-5.36 3.056.22 5.653 2.439 6.363 5.36zM23.06 2.495l.037.047-.005 8.958v8.937c-.285.024-.53.053-.777.064-.243.01-.487.002-.738.002-.726-3.234-2.618-5.469-5.676-6.708 1.969-2.039 1.567-4.785.319-6.22-1.662-1.913-4.211-1.992-5.836-.99C9.14 7.35 8.41 8.489 8.222 9.977c-.19 1.494.334 2.719 1.273 3.772-.578.316-1.16.586-1.69.934-1.22.799-2.166 1.865-2.898 3.127-.454.783-.805 1.605-.973 2.5-.01.056-.098.133-.155.138-.44.034-.883.052-1.342.077V2.5c.045-.005.099-.014.152-.014h20.325c.048 0 .097.006.145.009zM.092 27.025h15.622c3.14 0 6.278-.004 9.417.002.215 0 .288-.062.278-.277-.017-.383-.013-.767-.013-1.15 0-8.37 0-16.741.002-25.112 0-.35 0-.35-.338-.35H.092zm15.31-16.532c.024-1.437-1.164-2.708-2.807-2.673-1.395.029-2.53 1.26-2.556 2.614-.03 1.593 1.224 2.71 2.577 2.774 1.623.079 2.817-1.257 2.786-2.715"/></g></g></svg>