<svg xmlns="http://www.w3.org/2000/svg" width="29" height="38" viewBox="0 0 29 38"><g><g clip-path="url(#clip-4b2fbf95-81a1-4592-97cb-ee28033951d3)"><path fill="#da3a8d" d="M25.391 34.727c.02-.044.042-.07.041-.095-.03-2.03-.06-4.06-.092-6.09-.026-1.591-.7-2.96-1.798-4.141-1.589-1.708-3.672-2.478-6.084-2.502-2.063-.021-4.127-.007-6.19.002-.379.002-.765.02-1.134.091-1.944.376-3.6 1.205-4.806 2.699-.868 1.076-1.492 2.278-1.547 3.62-.082 2.003-.021 4.012-.021 6.019v.397zM14.526 37.6H2.19c-.86-.001-1.525-.613-1.525-1.41-.003-2.676-.055-5.354.02-8.029.04-1.486.615-2.875 1.427-4.162a10.141 10.141 0 0 1 3.092-3.121c1.318-.855 2.762-1.451 4.367-1.66 2.748-.356 5.514-.16 8.271-.158 1.635 0 3.234.35 4.7 1.058 2.613 1.262 4.463 3.17 5.396 5.756.307.852.445 1.785.478 2.686.092 2.445.075 4.893.123 7.34.019 1.002-.735 1.728-1.87 1.717-4.048-.042-8.095-.017-12.143-.017"/></g><g clip-path="url(#clip-4b2fbf95-81a1-4592-97cb-ee28033951d3)"><path fill="#da3a8d" d="M8.406 9.023c-.158 3.008 2.853 5.994 6.538 5.734 3.122-.221 5.843-2.47 5.815-5.789-.027-3.107-2.6-5.593-6.24-5.62-3.361-.026-6.18 2.545-6.113 5.675m6.03 8.593c-5.06-.026-8.832-3.834-9.123-7.882C4.918 4.255 9.559.511 14.44.492c2.547-.01 4.802.795 6.643 2.45 1.847 1.662 2.774 3.737 2.778 6.084.004 2.364-.914 4.465-2.79 6.123-1.844 1.63-4.055 2.49-6.635 2.467"/></g></g></svg>