<svg width="23.000000" height="23.000000" viewBox="0 0 23 23" fill="none" xmlns="http://www.w3.org/2000/svg" xmlns:xlink="http://www.w3.org/1999/xlink">
	<desc>
			Created with Pixso.
	</desc>
	<defs/>
	<path id="info_FILL0_wght400_GRAD0_opsz48" d="M10.7236 17.25L12.4492 17.25L12.4492 10.3501L10.7236 10.3501L10.7236 17.25ZM11.499 8.22266C11.7686 8.22266 11.9932 8.13428 12.1758 7.95801C12.3574 7.78174 12.4492 7.56299 12.4492 7.30273C12.4492 7.02539 12.3574 6.79346 12.1758 6.60596C11.9941 6.41895 11.7695 6.3252 11.501 6.3252C11.2314 6.3252 11.0068 6.41895 10.8242 6.60596C10.6426 6.79346 10.5508 7.02539 10.5508 7.30273C10.5508 7.56299 10.6426 7.78174 10.8242 7.95801C11.0059 8.13428 11.2305 8.22266 11.499 8.22266ZM11.5078 23C9.92188 23 8.43164 22.6982 7.03711 22.0942C5.64258 21.4907 4.42285 20.6665 3.37793 19.6221C2.33398 18.5771 1.50977 17.3569 0.905273 15.9609C0.301758 14.5645 0 13.0732 0 11.4854C0 9.89844 0.301758 8.40625 0.905273 7.01025C1.50977 5.61426 2.33398 4.39893 3.37793 3.36377C4.42285 2.32861 5.64258 1.50928 7.03906 0.905762C8.43555 0.301758 9.92676 0 11.5146 0C13.1016 0 14.5938 0.301758 15.9893 0.905762C17.3857 1.50928 18.6016 2.32861 19.6367 3.36377C20.6709 4.39893 21.4902 5.61572 22.0947 7.01514C22.6982 8.41406 23 9.90674 23 11.4922C23 13.0781 22.6982 14.5684 22.0947 15.9629C21.4902 17.3574 20.6709 18.5757 19.6367 19.6167C18.6016 20.6577 17.3838 21.4819 15.9854 22.0889C14.5859 22.6963 13.0938 23 11.5078 23ZM11.5146 21.2749C14.2266 21.2749 16.5312 20.3213 18.4287 18.4146C20.3262 16.5073 21.2754 14.1978 21.2754 11.4854C21.2754 8.77344 20.3281 6.46875 18.4346 4.57129C16.54 2.67383 14.2285 1.7251 11.5 1.7251C8.79785 1.7251 6.49316 2.67188 4.58594 4.56592C2.67871 6.45996 1.72461 8.771 1.72461 11.5C1.72461 14.2026 2.67871 16.5073 4.58594 18.4146C6.49316 20.3213 8.80273 21.2749 11.5146 21.2749Z" fill-rule="nonzero" fill="#FFFFFF"/>
</svg>
