<svg width="74.000000" height="74.000000" viewBox="0 0 74 74" fill="none" xmlns="http://www.w3.org/2000/svg" xmlns:xlink="http://www.w3.org/1999/xlink">
	<desc>
			Created with Pixso.
	</desc>
	<defs/>
	<path id="block_FILL0_wght500_GRAD200_opsz48" d="M36.9863 74C31.9087 74 27.1069 73.0391 22.5825 71.1167C18.0581 69.1948 14.1245 66.5586 10.7812 63.2085C7.43799 59.8579 4.80566 55.9199 2.8833 51.3936C0.960938 46.8667 0 42.0586 0 36.9683C0 31.9204 0.963379 27.1309 2.88965 22.5991C4.81641 18.0679 7.44971 14.1299 10.79 10.7847C14.1304 7.43945 18.0664 4.80566 22.5986 2.8833C27.1304 0.961426 31.9277 0 36.9902 0C42.0522 0 46.8486 0.960449 51.3789 2.88232C55.9087 4.80371 59.8438 7.43604 63.1826 10.7803C66.5215 14.124 69.1592 18.0625 71.0957 22.5962C73.0322 27.1299 74 31.9204 74 36.9683C74 42.0586 73.0361 46.8682 71.1084 51.397C69.1802 55.9253 66.5449 59.8623 63.2021 63.2075C59.8594 66.5522 55.9238 69.1875 51.396 71.1123C46.8677 73.0376 42.0645 74 36.9863 74ZM36.9893 67.146C45.3936 67.146 52.5171 64.2212 58.3604 58.3706C64.2031 52.5205 67.125 45.3862 67.125 36.9683C67.125 33.5107 66.5552 30.1802 65.4155 26.9766C64.2754 23.7729 62.6406 20.8398 60.5103 18.1777L18.1777 60.4888C20.7852 62.7056 23.7007 64.3696 26.9248 65.4805C30.1489 66.5908 33.5039 67.146 36.9893 67.146ZM13.5576 55.7803L55.7803 13.5366C53.1011 11.355 50.167 9.69922 46.978 8.56982C43.7891 7.43994 40.4595 6.87549 36.9893 6.87549C28.5854 6.87549 21.4619 9.7959 15.6187 15.6372C9.77539 21.4785 6.854 28.5889 6.854 36.9683C6.854 40.459 7.47021 43.812 8.70264 47.0273C9.93506 50.2422 11.5537 53.1602 13.5576 55.7803Z" fill-rule="nonzero" fill="#707070"/>
</svg>
