<svg width="46.737305" height="40.363770" viewBox="0 0 46.7373 40.3638" fill="none" xmlns="http://www.w3.org/2000/svg" xmlns:xlink="http://www.w3.org/1999/xlink">
	<desc>
			Created with Pixso.
	</desc>
	<defs/>
	<path id="warning_FILL0_wght400_GRAD0_opsz48" d="M0 40.3638L23.3682 0L46.7373 40.3638L0 40.3638ZM5.52344 37.1772L41.2139 37.1772L23.3682 6.37305L5.52344 37.1772ZM23.5898 34.1499C24.0439 34.1499 24.4219 33.9961 24.7227 33.6895C25.0234 33.3818 25.1738 33.0015 25.1738 32.5474C25.1738 32.0933 25.0205 31.7158 24.7139 31.415C24.4062 31.1138 24.0254 30.9634 23.5713 30.9634C23.1172 30.9634 22.7402 31.1172 22.4395 31.4238C22.1377 31.7314 21.9873 32.1118 21.9873 32.5659C21.9873 33.02 22.1416 33.3975 22.4482 33.6982C22.7559 33.9995 23.1357 34.1499 23.5898 34.1499ZM21.9873 28.2549L25.1738 28.2549L25.1738 16.3579L21.9873 16.3579L21.9873 28.2549Z" fill-rule="nonzero" fill="#DA3A8D"/>
</svg>
