<svg xmlns="http://www.w3.org/2000/svg" width="34" height="37" viewBox="0 0 34 37"><g><g clip-path="url(#clip-32860ad8-abd3-4958-87c3-64629292ee49)"><path fill="#707070" d="M2.1 12.344c.456.309.879.599 1.305.882a97.38 97.38 0 0 0 1.534 1c.393.25.81.192 1.08-.135a.779.779 0 0 0-.117-1.078c-.434-.347-.914-.635-1.377-.945-.455-.303-.914-.6-1.369-.903-.075-.05-.14-.117-.233-.194.628-.356 1.23-.687 1.823-1.035 1.769-1.04 3.528-2.094 5.302-3.124 2.294-1.331 4.598-2.644 6.897-3.965.009-.005.019-.01.027-.017.533-.508 1.029-.362 1.593.004 1.086.705 2.212 1.346 3.32 2.015.077.047.144.111.251.195-.579.332-1.121.646-1.667.955-2.352 1.332-4.704 2.663-7.059 3.99-1.438.812-2.88 1.616-4.32 2.423-.55.309-1.1.618-1.653.922-.764.42-1.136 1.07-1.13 1.936.007.81.027 1.622.037 2.432.008.673 0 1.346.015 2.02.011.52.408.914.93.912.245-.002.39.1.515.29.229.348.55.53.977.546a.485.485 0 0 1 .323.18c.284.38.623.607 1.123.579.124-.007.29.097.378.2.266.315.504.66.97.675.699.023 1.097-.421 1.1-1.232.005-1.328.01-2.656-.001-3.984-.002-.234.078-.348.278-.462 2.158-1.221 4.307-2.46 6.465-3.684 1.565-.887 3.142-1.752 4.709-2.635 1.283-.723 2.554-1.468 3.845-2.176.186-.102.5-.14.677-.053.64.316 1.249.697 1.868 1.055.063.037.118.087.2.148-.72.443-1.396.86-2.074 1.275-1.939 1.183-3.88 2.363-5.816 3.552-.195.12-.375.275-.532.442-.248.265-.256.546-.058.833.207.302.579.476.854.334.54-.281 1.063-.595 1.585-.91 1.89-1.14 3.778-2.284 5.664-3.43.337-.206.66-.431 1.033-.675.009.158.019.259.019.36 0 4.353-.002 8.706.006 13.06 0 .233-.078.354-.274.468-2.482 1.445-4.958 2.9-7.438 4.348-1.814 1.06-3.631 2.115-5.448 3.17-.523.304-1.05.603-1.63.936v-.323c0-2.403.005-4.807 0-7.21-.002-.782-.427-1.005-1.062-.853-.33.079-.429.35-.46.646-.022.199-.009.4-.009.6 0 2.225 0 4.449-.003 6.673 0 .132-.03.263-.052.435-.487-.274-.935-.523-1.38-.776-1.152-.655-2.303-1.313-3.455-1.969l-6.717-3.82c-.394-.223-.798-.43-1.178-.673-.11-.07-.219-.244-.219-.37-.01-4.585-.005-9.17-.003-13.755 0-.01.006-.02.03-.105zM.106 18.9v7.493c.001.805.36 1.42 1.047 1.819 1.92 1.111 3.849 2.208 5.776 3.306 1.856 1.057 3.715 2.107 5.573 3.16.824.466 1.647.935 2.473 1.397.587.327 1.19.33 1.767-.004a1241.37 1241.37 0 0 0 6.354-3.702c1.352-.792 2.696-1.6 4.048-2.393 1.687-.99 3.382-1.965 5.066-2.96.737-.436 1.156-1.06 1.154-1.96-.01-4.827-.007-9.654-.003-14.48 0-.888-.352-1.539-1.14-1.987-1.314-.749-2.605-1.538-3.907-2.309-1.321-.782-2.643-1.566-3.965-2.346-1.767-1.042-3.54-2.07-5.298-3.126-.785-.47-1.556-.57-2.37-.1-.857.493-1.722.972-2.576 1.47-2.027 1.182-4.046 2.378-6.075 3.556C5.783 7.037 3.524 8.32 1.278 9.627c-.781.454-1.2 1.107-1.186 2.064.032 2.402.01 4.805.01 7.208zm10.446 1.265l.106-.056V19.8c0-.748.005-1.496-.001-2.244-.006-.744.339-1.293.958-1.66 1.032-.608 2.076-1.195 3.12-1.783 1.475-.831 2.958-1.65 4.432-2.484 1.96-1.107 3.914-2.222 5.87-3.336.431-.246.856-.504 1.345-.791-.61-.352-1.18-.629-1.692-.99-.408-.288-.714-.224-1.116.006-1.833 1.052-3.687 2.068-5.53 3.104-1.87 1.05-3.735 2.11-5.602 3.164-1.318.745-2.638 1.487-3.95 2.241-.087.05-.166.2-.167.304-.012 1.001-.007 2.002-.005 3.003 0 .161.724.954.883.975.02.003.042.003.063.001.41-.027.697.172.93.491.099.136.236.243.356.363"/></g></g></svg>