<svg xmlns="http://www.w3.org/2000/svg" width="24" height="24" viewBox="0 0 24 24"><g><g><path fill="#da3a8d" d="M12.143 15.692c-.98 0-1.808-.333-2.484-.998-.675-.665-1.013-1.488-1.013-2.467 0-.98.337-1.812 1.012-2.498.674-.686 1.502-1.029 2.482-1.029.98 0 1.809.343 2.484 1.029.676.686 1.014 1.519 1.014 2.498 0 .98-.338 1.802-1.012 2.467-.674.665-1.502.998-2.483.998zm4.994 8.174c.28 0 .522-.1.724-.3.201-.2.302-.452.302-.755 0-.285-.1-.528-.302-.73a.988.988 0 0 0-.724-.301h-4.995c-2.66 0-4.918-.928-6.773-2.783-1.855-1.855-2.783-4.113-2.783-6.773 0-2.656.929-4.913 2.786-6.77 1.857-1.857 4.113-2.786 6.766-2.786 2.663 0 4.922.927 6.777 2.783 1.855 1.854 2.783 4.112 2.783 6.773v1.569c0 .52-.195.967-.586 1.34a1.92 1.92 0 0 1-1.37.559 2.01 2.01 0 0 1-1.434-.56c-.394-.372-.59-.819-.59-1.34v-1.568c0-1.574-.542-2.902-1.625-3.982-1.083-1.081-2.4-1.622-3.953-1.622-1.552 0-2.869.54-3.95 1.622-1.083 1.08-1.623 2.405-1.623 3.975 0 1.556.54 2.87 1.623 3.944 1.082 1.074 2.4 1.61 3.952 1.61.804 0 1.58-.149 2.325-.446a4.605 4.605 0 0 0 1.881-1.374c.36.572.842 1.019 1.447 1.34.606.32 1.255.48 1.947.48 1.107 0 2.057-.365 2.851-1.096.794-.73 1.19-1.676 1.19-2.835v-1.613c0-1.607-.305-3.113-.918-4.52a11.916 11.916 0 0 0-2.503-3.7A11.85 11.85 0 0 0 16.667 1.5C15.261.888 13.753.582 12.142.582c-1.606 0-3.112.306-4.518.918a11.89 11.89 0 0 0-3.699 2.507 11.891 11.891 0 0 0-2.507 3.698C.806 9.111.5 10.62.5 12.227c0 1.61.306 3.117.918 4.523a11.85 11.85 0 0 0 2.507 3.693 11.917 11.917 0 0 0 3.699 2.504c1.406.613 2.912.919 4.518.919z"/></g></g></svg>