<svg xmlns="http://www.w3.org/2000/svg" width="29" height="33" viewBox="0 0 29 33"><g><g clip-path="url(#clip-f36282b4-1c91-45c8-be32-134ad0648cd8)"><path fill="#707070" d="M-.164 21.528c.49-.977 1.013-1.853 1.372-2.793.3-.786.767-1.027 1.548-.923.4.053.814-.005 1.22.014.33.017.475-.085.436-.44a8.583 8.583 0 0 1 0-1.884c.039-.358-.11-.44-.438-.437-1.203.013-2.407-.008-3.61.009-.4.005-.546-.035-.313-.469.483-.895.931-1.81 1.364-2.73.18-.38.396-.55.843-.528.887.042 1.777.003 2.666.018.3.005.442-.08.56-.384 2.188-5.66 6.303-9.025 12.264-10.02 3.752-.625 7.286.12 10.505 2.217.32.207.349.37.202.7a101.959 101.959 0 0 0-1.511 3.578c-.16.402-.311.387-.63.17-2.195-1.496-4.63-2.121-7.266-1.858-3.54.355-6.29 2.01-8.136 5.096-.262.438-.148.505.307.504 4.463-.012 8.925-.008 13.387-.009.682 0 .679 0 .41.632-.367.868-.75 1.731-1.088 2.611-.143.372-.349.48-.737.48-4.425-.014-8.85-.001-13.276-.02-.47-.002-.65.098-.658.596-.01.555-.005 1.108.007 1.663.01.428.18.512.57.509 2.018-.018 4.037-.009 6.055-.009 2.074 0 4.148.011 6.221-.01.473-.004.533.103.34.523a39.747 39.747 0 0 0-1.121 2.658c-.167.444-.416.55-.865.547-3.055-.02-6.11-.01-9.165-.008-.648 0-.662.013-.32.576 1.83 3.017 4.556 4.638 8.02 5.008 2.67.285 5.15-.336 7.367-1.88.331-.23.468-.19.645.164a88.835 88.835 0 0 0 1.752 3.34c.206.372.158.544-.196.781-4.089 2.737-8.515 3.297-13.157 1.872-4.795-1.472-8.077-4.65-9.865-9.34-.164-.43-.37-.54-.799-.534-1.604.024-3.208.01-4.91.01"/></g></g></svg>