<svg xmlns="http://www.w3.org/2000/svg" width="24" height="24" viewBox="0 0 24 24"><g><g><path fill="#da3a8d" d="M21.39 20.882a16.01 16.01 0 0 1-2.786-.443 13.412 13.412 0 0 1-2.611-.93l2.33-2.485 3.068.672v3.186zM4.37 8.007zm0 0c-.516-1.18-.884-2.217-1.105-3.112-.221-.895-.327-1.732-.317-2.51h3.124l.703 3.229zm17.848 15.292c.46 0 .836-.146 1.128-.438.292-.291.438-.67.438-1.135V17.09c0-.383-.122-.72-.366-1.013a1.73 1.73 0 0 0-.944-.58l-3.958-.898a1.46 1.46 0 0 0-.863.03 1.85 1.85 0 0 0-.75.514l-3.15 3.173a21.22 21.22 0 0 1-4.525-3.427c-1.378-1.364-2.603-2.936-3.674-4.718l3.195-3.184c.175-.161.3-.38.375-.657.076-.276.088-.593.037-.95l-.88-4.094a1.581 1.581 0 0 0-.528-.934A1.432 1.432 0 0 0 6.797 0h-4.73C1.606 0 1.23.146.937.441.646.735.5 1.112.5 1.57c0 2.637.637 5.257 1.91 7.86a25.823 25.823 0 0 0 4.986 6.976 26.074 26.074 0 0 0 6.962 4.982c2.59 1.273 5.21 1.91 7.86 1.91z"/></g></g></svg>