<svg width="26" height="32" viewBox="0 0 26 32" fill="none" xmlns="http://www.w3.org/2000/svg">
<g clip-path="url(#clip0_80_2)">
<path d="M17.4414 11.5935C17.0269 11.5935 16.6909 11.929 16.6909 12.3429V26.5068C16.6909 26.9204 17.0269 27.2562 17.4414 27.2562C17.856 27.2562 18.1919 26.9204 18.1919 26.5068V12.3429C18.1919 11.929 17.856 11.5935 17.4414 11.5935Z" fill="#E7388C"/>
<path d="M8.58546 11.5935C8.17093 11.5935 7.83496 11.929 7.83496 12.3429V26.5068C7.83496 26.9204 8.17093 27.2562 8.58546 27.2562C9 27.2562 9.33597 26.9204 9.33597 26.5068V12.3429C9.33597 11.929 9 11.5935 8.58546 11.5935Z" fill="#E7388C"/>
<path d="M2.13106 9.52646V27.9904C2.13106 29.0817 2.53181 30.1066 3.23189 30.842C3.92874 31.5794 4.89853 31.998 5.91347 31.9998H20.1132C21.1284 31.998 22.0982 31.5794 22.7948 30.842C23.4948 30.1066 23.8956 29.0817 23.8956 27.9904V9.52646C25.2873 9.15761 26.189 7.81511 26.0029 6.38918C25.8164 4.96354 24.6001 3.89709 23.1601 3.8968H19.3175V2.96003C19.3219 2.17227 19.01 1.41583 18.4515 0.859336C17.8931 0.303132 17.1343 -0.00658594 16.3454 -0.000145674H9.68122C8.89231 -0.00658594 8.1336 0.303132 7.57513 0.859336C7.01665 1.41583 6.70472 2.17227 6.70912 2.96003V3.8968H2.86661C1.42658 3.89709 0.210244 4.96354 0.0237908 6.38918C-0.162369 7.81511 0.739406 9.15761 2.13106 9.52646ZM20.1132 30.5009H5.91347C4.63029 30.5009 3.63206 29.4002 3.63206 27.9904V9.59233H22.3946V27.9904C22.3946 29.4002 21.3964 30.5009 20.1132 30.5009ZM8.21012 2.96003C8.20514 2.56981 8.35876 2.19423 8.63609 1.91876C8.91313 1.64329 9.29014 1.49195 9.68122 1.49868H16.3454C16.7365 1.49195 17.1135 1.64329 17.3906 1.91876C17.6679 2.19393 17.8215 2.56981 17.8165 2.96003V3.8968H8.21012V2.96003ZM2.86661 5.39562H23.1601C23.9062 5.39562 24.511 5.99954 24.511 6.74456C24.511 7.48959 23.9062 8.09351 23.1601 8.09351H2.86661C2.1205 8.09351 1.51571 7.48959 1.51571 6.74456C1.51571 5.99954 2.1205 5.39562 2.86661 5.39562Z" fill="#E7388C"/>
<path d="M13.0137 11.5935C12.5992 11.5935 12.2632 11.929 12.2632 12.3429V26.5068C12.2632 26.9204 12.5992 27.2562 13.0137 27.2562C13.4282 27.2562 13.7642 26.9204 13.7642 26.5068V12.3429C13.7642 11.929 13.4282 11.5935 13.0137 11.5935Z" fill="#E7388C"/>
</g>
<defs>
<clipPath id="clip0_80_2">
<rect width="26" height="32" fill="white"/>
</clipPath>
</defs>
</svg>
