<svg xmlns="http://www.w3.org/2000/svg" width="30" height="30" viewBox="0 0 30 30"><g><g clip-path="url(#clip-6c6b6520-19af-45e9-846c-1a146eeb7697)"><path fill="#707070" d="M29.995 15.533c-.011-.365-.022-.743-.067-1.126a15.466 15.466 0 0 0-.074-.562c-.438-2.857-1.745-5.378-3.886-7.494-1.198-1.183-2.626-2.158-4.246-2.894-.622-.284-1.124-.157-1.437-.001-.515.258-.813.732-.796 1.27.017.544.34.986.91 1.245 1.692.771 3.105 1.855 4.2 3.223 2.012 2.518 2.757 5.329 2.211 8.354-.504 2.797-2.006 5.089-4.463 6.81-2.763 1.937-5.89 2.613-9.292 2.01-3.097-.547-5.606-2.082-7.456-4.56a10.03 10.03 0 0 1-1.991-5.34 9.878 9.878 0 0 1 .95-5.056c1.165-2.434 3.055-4.268 5.62-5.45.79-.363 1.112-1.168.75-1.87a1.468 1.468 0 0 0-.862-.725 1.702 1.702 0 0 0-1.224.09C5.977 4.765 3.77 6.74 2.282 9.33c-1.47 2.557-2 5.339-1.577 8.266.335 2.31 1.271 4.424 2.785 6.282 2.253 2.766 5.246 4.525 8.895 5.225.957.183 1.923.275 2.893.275 1.03 0 2.063-.103 3.093-.31 2.542-.508 4.788-1.568 6.676-3.148 3.21-2.688 4.875-6.115 4.953-10.186v-.018z"/></g><g clip-path="url(#clip-6c6b6520-19af-45e9-846c-1a146eeb7697)"><path fill="#707070" d="M14.268 13.286c.286.242.635.365.996.365.212 0 .428-.042.638-.13.552-.226.881-.71.88-1.293V2.113c0-.063 0-.126-.003-.189a1.37 1.37 0 0 0-.69-1.082 1.6 1.6 0 0 0-1.35-.124c-.36.13-.963.484-.963 1.37V9.18c0 1.005 0 2.01-.002 3.016-.001.556.268.9.494 1.09"/></g></g></svg>