<svg
                    xmlns="http://www.w3.org/2000/svg"
                    width="37"
                    height="33"
                    viewBox="0 0 37 33"
                  >
                    <g>
                      <g>
                        <path
                          fill="#e3763e"
                          d="M18.374 22.453a1.271 1.271 0 0 0 1.296-1.304v-7.127c0-.37-.126-.68-.377-.929a1.273 1.273 0 0 0-.934-.375 1.271 1.271 0 0 0-1.296 1.304v7.127c0 .37.125.68.377.929.25.25.562.375.934.375zm0 4.824c.371 0 .68-.126.927-.377.246-.252.369-.563.369-.935 0-.371-.126-.68-.377-.926a1.283 1.283 0 0 0-.934-.37c-.372 0-.68.126-.927.377-.246.252-.37.563-.37.935 0 .371.126.68.378.926.25.247.562.37.934.37zm-.182-22.729l14.602 25.206H3.59zm16.862 27.813c.261 0 .488-.06.68-.179a1.26 1.26 0 0 0 .45-.473c.121-.19.187-.398.2-.621.011-.223-.055-.45-.2-.682L19.322 1.289a1.372 1.372 0 0 0-.5-.5 1.308 1.308 0 0 0-.63-.152c-.231 0-.441.05-.63.152a1.372 1.372 0 0 0-.5.5L.202 30.406c-.145.232-.212.459-.2.682.013.223.079.43.2.621.107.196.257.354.45.473.192.12.419.18.68.18z"
                        />
                      </g>
                    </g>
                  </svg>