 <svg
                  xmlns="http://www.w3.org/2000/svg"
                  width="41"
                  height="41"
                  viewBox="0 0 41 41"
                >
                  <g>
                    <g>
                      <path
                        fill="#3da6dc"
                        d="M20.525 37.22c4.638 0 8.58-1.632 11.826-4.893 3.246-3.262 4.868-7.213 4.868-11.852 0-4.638-1.62-8.58-4.859-11.826C29.121 5.403 25.168 3.78 20.5 3.78c-4.622 0-8.565 1.62-11.827 4.859-3.261 3.239-4.892 7.192-4.892 11.86 0 4.622 1.63 8.565 4.892 11.827 3.262 3.261 7.213 4.892 11.852 4.892zm-.012 2.95c-2.712 0-5.261-.516-7.647-1.55-2.385-1.032-4.471-2.441-6.258-4.228S3.412 30.518 2.38 28.13C1.346 25.742.83 23.19.83 20.475s.516-5.266 1.55-7.654c1.032-2.388 2.441-4.467 4.228-6.237 1.787-1.77 3.874-3.172 6.262-4.205C15.258 1.346 17.81.83 20.525.83s5.266.516 7.654 1.55c2.388 1.032 4.467 2.433 6.237 4.204 1.77 1.77 3.172 3.852 4.205 6.245 1.033 2.393 1.549 4.946 1.549 7.658 0 2.712-.516 5.261-1.55 7.647-1.032 2.385-2.433 4.468-4.204 6.249-1.77 1.78-3.852 3.19-6.245 4.229-2.393 1.039-4.946 1.558-7.658 1.558zm-1.17-25.728a1.5 1.5 0 0 1-.466-1.122c0-.473.156-.87.467-1.19.312-.321.697-.482 1.157-.482.46 0 .845.16 1.155.481.311.32.467.718.467 1.191 0 .446-.156.82-.467 1.122a1.598 1.598 0 0 1-1.157.452c-.46 0-.845-.15-1.156-.452zm-.17 4.091h2.95v11.802h-2.95z"
                      />
                    </g>
                  </g>
                </svg>